<svg width="84" height="90" viewBox="0 0 84 90" fill="none" xmlns="http://www.w3.org/2000/svg">
<path d="M7.24342 68.4244L6.91908 69.328H6.44995L7.76755 65.8744H8.1655L9.48552 69.328H9.01882L8.68962 68.4244H7.24342ZM7.38092 68.0519H8.55455L7.96652 66.4364L7.38092 68.0519Z" fill="black"/>
<path d="M14.4704 66.7619L14.485 67.0842C14.6807 66.8372 14.9371 66.7141 15.2525 66.7141C15.7945 66.7141 16.0679 67.0202 16.0727 67.6324V69.328H15.6343V67.63C15.6327 67.4453 15.5906 67.3085 15.5073 67.2194C15.424 67.1312 15.2954 67.0866 15.1199 67.0866C14.9775 67.0866 14.853 67.1247 14.7454 67.2008C14.6378 67.2769 14.5545 67.3765 14.4939 67.4996V69.328H14.0555V66.7619H14.4704Z" fill="black"/>
<path d="M22.4916 69.328C22.4665 69.2778 22.4455 69.1871 22.4301 69.0576C22.2263 69.2697 21.9828 69.375 21.6997 69.375C21.4466 69.375 21.2395 69.3037 21.0777 69.1604C20.916 69.0171 20.8351 68.8357 20.8351 68.6163C20.8351 68.349 20.937 68.1417 21.14 67.9935C21.343 67.8454 21.6286 67.7717 21.9966 67.7717H22.4228V67.57C22.4228 67.417 22.3767 67.2947 22.2853 67.2032C22.1939 67.1125 22.0589 67.0672 21.8801 67.0672C21.724 67.0672 21.5922 67.1069 21.487 67.1854C21.3811 67.2648 21.3285 67.3603 21.3285 67.4721H20.8877C20.8877 67.3441 20.933 67.2202 21.0235 67.1012C21.1141 66.9822 21.2379 66.8874 21.3932 66.8178C21.5485 66.7481 21.72 66.7133 21.906 66.7133C22.2012 66.7133 22.4334 66.787 22.6008 66.9352C22.7682 67.0834 22.8556 67.2866 22.8612 67.5457V68.7272C22.8612 68.9628 22.8912 69.1499 22.951 69.2892V69.3272H22.4908L22.4916 69.328ZM21.7636 68.9936C21.9011 68.9936 22.0314 68.958 22.1551 68.8867C22.2781 68.8155 22.3678 68.7231 22.4228 68.609V68.0826H22.0791C21.542 68.0826 21.2735 68.2397 21.2735 68.5547C21.2735 68.6924 21.3196 68.8001 21.411 68.877C21.5024 68.9539 21.6205 68.9936 21.7644 68.9936H21.7636Z" fill="black"/>
<path d="M35.8205 69.328H35.3627V67.732H33.6229V69.328H33.1675V65.8744H33.6229V67.3595H35.3627V65.8744H35.8205V69.328Z" fill="black"/>
<path d="M40.7366 66.0809C40.7366 66.0096 40.7584 65.9497 40.8021 65.9003C40.8458 65.8509 40.9097 65.8266 40.9954 65.8266C41.0812 65.8266 41.1459 65.8509 41.1895 65.9003C41.2332 65.9497 41.2559 66.0096 41.2559 66.0809C41.2559 66.1522 41.234 66.2113 41.1895 66.259C41.1451 66.3068 41.0803 66.3303 40.9954 66.3303C40.9105 66.3303 40.8458 66.3068 40.8021 66.259C40.7584 66.2113 40.7366 66.1522 40.7366 66.0809ZM41.2106 69.328H40.7722V66.7619H41.2106V69.328Z" fill="black"/>
<path d="M47.115 69.0171C47.2711 69.0171 47.4078 68.9693 47.5251 68.8746C47.6424 68.7798 47.7071 68.6608 47.7192 68.5191H48.1342C48.1261 68.6665 48.0759 68.8057 47.9821 68.9385C47.8891 69.0713 47.7645 69.1774 47.6084 69.256C47.4531 69.3353 47.2881 69.3742 47.1142 69.3742C46.7648 69.3742 46.4874 69.2576 46.2811 69.0244C46.0749 68.7912 45.9721 68.4721 45.9721 68.0672V67.9935C45.9721 67.7433 46.0182 67.5215 46.1096 67.3271C46.201 67.1328 46.3329 66.9813 46.5044 66.8745C46.6758 66.7668 46.878 66.7133 47.1126 66.7133C47.3997 66.7133 47.6392 66.7992 47.8292 66.9716C48.0193 67.1441 48.1212 67.3676 48.1334 67.6429H47.7184C47.7055 67.4769 47.6432 67.3409 47.53 67.234C47.4167 67.1271 47.2776 67.0737 47.1118 67.0737C46.8894 67.0737 46.7163 67.1538 46.5941 67.3142C46.472 67.4745 46.4105 67.7069 46.4105 68.0106V68.0931C46.4105 68.3887 46.4712 68.6163 46.5933 68.7766C46.7147 68.9361 46.8886 69.0163 47.115 69.0163V69.0171Z" fill="black"/>
<path d="M53.5178 68.1393L53.2428 68.426V69.3272H52.8044V65.6841H53.2428V67.8875L53.4773 67.6049L54.2765 66.7603H54.8095L53.8114 67.8324L54.9251 69.3264H54.4107L53.517 68.1377L53.5178 68.1393Z" fill="black"/>
<path d="M59.8494 66.7619L59.8615 67.0461C60.0492 66.8251 60.3032 66.7141 60.6227 66.7141C60.981 66.7141 61.2252 66.8518 61.3546 67.1271C61.4396 67.004 61.5512 66.9044 61.6879 66.8283C61.8246 66.7522 61.9863 66.7141 62.1724 66.7141C62.7353 66.7141 63.0209 67.0121 63.0306 67.6081V69.328H62.5922V67.634C62.5922 67.451 62.5501 67.3134 62.4668 67.2227C62.3835 67.132 62.2427 67.0866 62.0446 67.0866C61.882 67.0866 61.7469 67.1352 61.6394 67.2324C61.5318 67.3296 61.4695 67.4607 61.4517 67.6251V69.328H61.0109V67.6462C61.0109 67.2729 60.8281 67.0866 60.4633 67.0866C60.1754 67.0866 59.9788 67.2089 59.8729 67.4543V69.328H59.4345V66.7619H59.8494Z" fill="black"/>
<path d="M69.4487 69.328C69.4236 69.2778 69.4026 69.1871 69.3872 69.0576C69.1834 69.2697 68.9399 69.375 68.6568 69.375C68.4037 69.375 68.1966 69.3037 68.0348 69.1604C67.8731 69.0171 67.7922 68.8357 67.7922 68.6163C67.7922 68.349 67.8933 68.1417 68.0971 67.9935C68.3001 67.8454 68.5857 67.7717 68.9537 67.7717H69.3799V67.57C69.3799 67.417 69.3338 67.2947 69.2424 67.2032C69.151 67.1125 69.016 67.0672 68.8372 67.0672C68.6811 67.0672 68.5493 67.1069 68.4433 67.1854C68.3373 67.264 68.2848 67.3603 68.2848 67.4721H67.844C67.844 67.3441 67.8893 67.2202 67.9798 67.1012C68.0704 66.9822 68.1942 66.8874 68.3495 66.8178C68.5048 66.7481 68.6763 66.7133 68.8623 66.7133C69.1575 66.7133 69.3888 66.787 69.5563 66.9352C69.7237 67.0834 69.8111 67.2866 69.8167 67.5457V68.7272C69.8167 68.9628 69.8466 69.1499 69.9065 69.2892V69.3272H69.4471L69.4487 69.328ZM68.7215 68.9936C68.859 68.9936 68.9893 68.958 69.1122 68.8867C69.2352 68.8155 69.3249 68.7231 69.3799 68.609V68.0826H69.0362C68.4991 68.0826 68.2306 68.2397 68.2306 68.5547C68.2306 68.6924 68.2767 68.8001 68.3681 68.877C68.4595 68.9539 68.5776 68.9936 68.7215 68.9936Z" fill="black"/>
<path d="M75.0951 66.7619L75.1097 67.0842C75.3054 66.8372 75.5618 66.7141 75.8773 66.7141C76.4192 66.7141 76.6926 67.0202 76.6974 67.6324V69.328H76.259V67.63C76.2574 67.4453 76.2153 67.3085 76.132 67.2194C76.0487 67.1304 75.9201 67.0866 75.7446 67.0866C75.6023 67.0866 75.4777 67.1247 75.3701 67.2008C75.2625 67.2769 75.1792 67.3765 75.1186 67.4996V69.328H74.6802V66.7619H75.0951Z" fill="black"/>
<path d="M81.9476 66.7619L81.9622 67.0842C82.1579 66.8372 82.4143 66.7141 82.7298 66.7141C83.2717 66.7141 83.5451 67.0202 83.5499 67.6324V69.328H83.1116V67.63C83.1099 67.4453 83.0679 67.3085 82.9846 67.2194C82.9013 67.1304 82.7727 67.0866 82.5971 67.0866C82.4548 67.0866 82.3302 67.1247 82.2226 67.2008C82.1151 67.2769 82.0318 67.3765 81.9711 67.4996V69.328H81.5327V66.7619H81.9476Z" fill="black"/>
<path d="M72.2019 50.3959H71.1779V61.1066H64.9248V50.4275H26.3384V44.0846H64.8148V20.7458H71.152V44.0887H72.2019V50.3959Z" fill="black"/>
<path d="M52.857 41.9015H46.3466V26.5347C46.2569 26.5234 46.1905 26.5047 46.1242 26.508C43.8457 26.6092 41.5664 26.6934 39.3227 27.1679C35.5794 27.9599 32.1475 29.4166 29.2381 31.9528C26.6296 34.2266 25.1333 37.1247 24.5606 40.5241C24.2783 42.1987 24.2977 43.887 24.2993 45.5729C24.3042 50.5044 24.3341 55.4358 24.3543 60.3672C24.3543 60.5065 24.3543 60.645 24.3543 60.8069C24.2225 60.8126 24.1246 60.8207 24.0268 60.8207C22.2392 60.8207 20.4517 60.8167 18.665 60.8272C18.4223 60.8288 18.3212 60.7624 18.3099 60.5154C18.2824 59.9016 18.2064 59.2886 18.2056 58.6748C18.2015 53.3288 18.1951 47.9828 18.2201 42.6368C18.2339 39.8512 18.6254 37.1191 19.6081 34.4938C20.9775 30.8386 23.3724 28.0328 26.6668 25.976C30.436 23.622 34.5069 22.077 38.9045 21.3976C41.6546 20.9725 44.4264 20.8437 47.2016 20.7571C48.867 20.7044 50.5324 20.6688 52.1978 20.6275C52.4089 20.6219 52.62 20.6275 52.8562 20.6275V41.9023L52.857 41.9015Z" fill="black"/>
<path d="M46.3911 51.9385H52.5488V60.8045H46.3911V51.9385Z" fill="black"/>
</svg>
