<svg width="76" height="61" viewBox="0 0 76 61" fill="none" xmlns="http://www.w3.org/2000/svg">
<path d="M73.0442 32.7314C70.4803 38.3438 66.4546 43.2831 61.7233 47.3678C55.884 52.4081 48.845 56.2854 41.4916 58.5944C37.9927 59.6937 34.4902 60.4148 30.984 60.7578C29.2246 60.9299 27.2938 60.978 25.3826 60.9313C17.2891 60.7334 8.53004 57.8686 3.83402 50.8378C2.76501 49.237 1.96325 47.5119 1.42874 45.6626C0.717124 43.2018 0.459585 40.5308 0.740167 37.9425C0.995898 35.5854 1.52679 33.3213 2.33284 31.1503C3.92077 26.8745 6.41483 22.9226 9.43888 19.4499C11.5263 17.053 13.7766 14.9009 16.1898 12.9938C24.6337 6.3215 34.8695 1.96774 45.615 0.927416C46.0401 0.8863 46.4922 0.856932 46.9711 0.839311C48.5312 0.781703 49.8955 0.718674 51.3588 0.812879C51.9477 0.850832 52.5421 0.837955 53.1236 0.90234C53.7191 0.968306 54.3406 1.04444 54.988 1.13074C61.6298 2.01382 68.3428 4.964 72.2364 10.6014C73.6196 12.6041 74.624 14.8637 75.1445 17.2418C75.6817 19.6948 75.7721 22.1922 75.4156 24.7342C75.037 27.4338 74.2465 30.0996 73.0442 32.7314ZM8.2542 23.0229C4.35452 28.2719 1.49855 34.8304 1.95805 41.4451C2.22011 45.2087 3.53062 48.5522 5.88959 51.4755C6.1774 51.832 6.48848 52.1819 6.82283 52.5253C11.4714 57.3006 18.1823 59.2803 24.7347 59.5568C28.3542 59.7095 32.0201 59.4032 35.7323 58.6378C43.2747 57.0831 50.5855 53.8212 56.8945 49.3325C61.9362 45.7466 66.4539 41.2295 69.6793 36.0286C72.0629 32.1852 73.7172 27.9765 74.134 23.5522C74.1684 23.1921 74.1844 22.8103 74.1821 22.4068C74.1774 21.5393 74.2119 20.6922 74.1306 19.8287C73.8645 16.9985 72.9825 14.3868 71.4847 11.9935C68.9798 7.99076 64.8843 5.27372 60.4485 3.78474C56.1869 2.35472 51.4611 1.90878 46.8864 2.20901C39.6272 2.68546 32.5605 4.86031 26.0413 8.22797C19.1481 11.7888 12.8533 16.8311 8.2542 23.0229Z" fill="#161273"/>
<path d="M59.3262 8.72C58.8735 9.57191 58.334 10.4191 57.7078 11.1822C57.5835 11.3331 57.398 11.5154 57.1514 11.7291C56.1948 12.5551 55.2887 13.613 54.433 14.903C53.837 15.8007 53.2381 16.7272 52.6363 17.6824C52.0995 18.5349 51.4841 19.3665 50.7678 20.0395C49.7464 20.9985 48.5367 21.4655 47.1222 21.2093C47.1176 21.2084 47.1133 21.2065 47.1095 21.2037C47.1058 21.2008 47.1028 21.1972 47.1007 21.1929C47.0987 21.1887 47.0976 21.1841 47.0977 21.1794C47.0978 21.1747 47.099 21.1701 47.1012 21.1659C47.5709 20.3038 48.0494 19.4228 48.3957 18.5058C48.5624 18.0648 48.6625 17.7379 48.6959 17.5251C48.9338 16.0145 47.6461 15.2059 46.3618 15.004C45.7126 14.9016 45.0172 14.8088 44.3639 14.823C42.4377 14.865 40.6946 15.7684 39.3432 17.1429C38.7427 17.7535 38.2317 18.476 37.9993 19.2635C37.992 19.287 37.9959 19.3087 38.0108 19.3286C38.0998 19.4483 38.2213 19.4962 38.3754 19.4722C38.7744 19.4108 39.1483 19.3606 39.4971 19.3218C39.8427 19.2832 40.2161 19.2927 40.5326 19.4621C41.1123 19.7729 41.5233 20.2162 41.7654 20.7918C42.1111 21.6139 41.6475 22.4699 40.8403 22.7443C39.3968 23.235 37.7648 23.2391 36.3998 22.5465C35.1507 21.9134 34.4391 20.6901 34.1301 19.3516C33.8857 18.2934 33.7847 17.2244 33.8271 16.1446C33.8942 14.4306 33.9634 12.6888 34.2507 11.0013C34.3912 10.1771 34.5356 9.35165 34.6838 8.52481C34.8672 7.50324 34.9822 6.49975 35.0288 5.51432C35.0297 5.49037 35.0416 5.47456 35.0647 5.46688C36.8783 4.89397 38.6517 4.43311 40.3849 4.0843C43.648 3.42735 46.8014 3.11966 49.8454 3.16123C51.162 3.1793 52.5877 3.29248 54.1226 3.50077C59.97 4.29508 65.6901 6.66511 69.3648 11.3882C71.9321 14.6874 73.1018 18.8318 72.8748 22.9992C72.5203 29.4925 69.3445 35.5203 65.1974 40.4468C63.1357 42.8961 60.8366 45.1166 58.3001 47.1082C52.5995 51.5844 46.2491 54.819 39.249 56.812C36.0207 57.7315 32.6761 58.301 29.2152 58.5206C28.7787 58.5481 28.3271 58.5608 27.8604 58.5585C26.8167 58.5524 25.7167 58.5897 24.6533 58.5185C17.7967 58.0597 10.7096 55.7452 6.47583 49.9879C3.84283 46.4074 2.79506 41.828 3.34131 37.4247C3.66346 34.8272 4.36808 32.3189 5.45516 29.8999C7.74658 24.7999 11.3006 20.3438 15.5283 16.5587C15.8744 16.2487 16.2083 15.9591 16.53 15.6898C21.7657 11.3071 27.622 8.00996 34.0989 5.79829C34.145 5.78248 34.157 5.79603 34.1348 5.83895C32.7719 8.48076 31.7377 11.1687 31.3033 14.0971C31.1291 15.271 30.9637 16.4814 30.8973 17.679C30.8092 19.2723 30.6764 20.8657 30.635 22.4705C30.6224 22.9576 30.5916 23.4128 30.5428 23.8362C30.4351 24.7776 30.3253 25.6695 29.9864 26.5288C29.8712 26.8211 29.6776 27.1824 29.4056 27.6125C28.628 28.8433 27.8708 30.0456 27.1338 31.2194C26.9508 31.5115 26.8573 31.8395 26.6709 32.1262C25.301 34.234 23.9446 36.3257 22.6018 38.4014C22.4683 38.6081 22.3043 38.7728 22.0942 38.9097C20.5646 39.908 18.9963 40.9117 17.5453 42.0279C14.3107 44.5156 12.019 47.738 10.6703 51.6951C10.6604 51.7245 10.6687 51.7468 10.6954 51.7622L11.1834 52.0455C11.2069 52.0591 11.231 52.0606 11.2559 52.0502C11.4082 51.9856 11.5365 51.8964 11.6408 51.7825C14.814 48.3356 18.7031 45.978 23.308 44.7097C24.9495 44.2577 26.6059 43.7412 28.1687 43.0723C29.0326 42.7023 29.7278 42.294 30.2541 41.8476C31.4009 40.8751 32.2948 39.5237 32.9576 38.1587C33.2131 37.6328 33.4727 37.111 33.6523 36.5613C33.7594 36.2328 33.7759 35.9195 33.7018 35.6213C33.4856 34.7558 32.8485 34.2062 32.086 33.7826C30.9533 33.1532 29.8287 32.6268 28.7123 32.2035C28.7088 32.2021 28.7056 32.2 28.703 32.1973C28.7004 32.1946 28.6984 32.1914 28.6972 32.1878C28.6959 32.1843 28.6955 32.1805 28.6959 32.1768C28.6963 32.173 28.6975 32.1694 28.6994 32.1662L31.7133 27.3611C31.716 27.3566 31.7199 27.3529 31.7246 27.3504C31.7292 27.3479 31.7345 27.3466 31.7398 27.3468C31.7451 27.3469 31.7503 27.3484 31.7549 27.3512C31.7596 27.3539 31.7634 27.3578 31.7661 27.3624C32.4737 28.6135 33.4374 29.6816 34.8065 30.0971C36.8675 30.7233 39.0877 30.1181 40.7563 28.8318C41.0016 28.6429 41.5334 28.1249 42.3517 27.2777C43.1469 26.4549 43.8922 25.7011 44.5875 25.0161C44.9284 24.68 46.0901 24.9368 46.5468 25.0175C47.7993 25.2398 49.0673 24.6203 50.0046 23.8199C50.2821 23.5832 50.5821 23.277 50.9047 22.9016C51.5539 22.1459 52.2371 21.4553 52.8355 20.6495C53.1554 20.2184 53.3965 19.8875 53.5587 19.6566C54.0096 19.0132 54.5043 18.4726 55.0429 18.0348C55.4324 17.7185 55.8424 17.5484 56.273 17.5244C56.8755 17.4906 57.5044 17.6424 58.0866 17.7949C59.1832 18.0815 60.2181 17.6966 60.9589 16.8569C61.8765 15.8172 62.4519 14.5167 62.3414 13.1456C62.3216 12.8998 62.2594 12.6549 62.1551 12.4109C61.5512 10.9938 60.4655 9.81386 59.3614 8.71458C59.3474 8.70057 59.3357 8.70238 59.3262 8.72ZM46.1978 9.6668C46.3754 10.0572 46.5916 10.5587 47.0978 10.5648C47.6231 10.5709 48.0162 10.1704 48.2724 9.7244C48.5105 9.30963 48.6562 8.81195 48.7095 8.23136C48.7407 7.89294 48.6876 7.58299 48.5502 7.3015C48.5482 7.29714 48.545 7.2935 48.5409 7.29102C48.5368 7.28853 48.5321 7.28733 48.5273 7.28754C48.5224 7.28776 48.5177 7.28939 48.5137 7.29223C48.5098 7.29508 48.5066 7.29901 48.5048 7.30354C48.3381 7.72441 48.1741 8.15884 47.865 8.49567C47.5668 8.82031 47.2632 8.72881 46.8925 8.62173C46.8681 8.61475 46.8473 8.59903 46.8342 8.57768C46.667 8.31065 46.5261 8.03504 46.4113 7.75084C46.4088 7.74493 46.405 7.73968 46.4002 7.73553C46.3953 7.73138 46.3895 7.72845 46.3834 7.72699C46.3772 7.72553 46.3708 7.72558 46.3647 7.72714C46.3586 7.72869 46.3529 7.73171 46.3483 7.73593C46.0469 8.00612 45.7227 8.30681 45.3757 8.638C45.3043 8.70622 45.2063 8.78258 45.0816 8.86707C44.9971 8.924 44.9115 8.95201 44.8247 8.95111C44.7091 8.94975 44.5975 8.94975 44.4899 8.95111C44.4655 8.95156 44.4445 8.94365 44.4269 8.92739C44.2322 8.75027 44.1095 8.52527 44.0589 8.25237C44.0029 7.94829 43.9518 7.61981 43.9057 7.26694C43.8971 7.20278 43.8648 7.18697 43.8088 7.2195C43.5357 7.37673 43.3737 7.62817 43.3317 7.94535C43.2178 8.81014 43.1134 9.71017 43.5492 10.4889C43.5903 10.5621 43.648 10.617 43.722 10.6536C44.0284 10.804 44.3639 10.9396 44.6966 10.8711C45.375 10.7315 45.7586 10.1981 46.1416 9.66137C46.1637 9.63065 46.1825 9.63246 46.1978 9.6668ZM58.0141 22.4068C55.8691 21.4756 54.0324 22.9138 52.7752 24.56C51.9003 25.7054 51.1832 26.9063 50.7176 28.2313C50.6736 28.3567 50.6031 28.4793 50.5238 28.5844C50.0711 29.1853 49.6177 29.7939 49.1636 30.4102C48.6413 31.1182 48.0589 31.6922 47.4164 32.1323C46.4276 32.8101 45.1053 33.2065 43.9491 32.7735C43.6857 32.6745 43.4281 32.5814 43.1765 32.4942C42.614 32.2997 42.0901 32.2387 41.4923 32.3939C40.3144 32.7003 39.2856 33.3516 38.292 34.1479C36.8372 35.3127 35.5066 36.6743 34.3002 38.2326C34.0189 38.5959 33.8156 39.0418 33.8732 39.5176C33.8764 39.5429 33.8899 39.5601 33.9139 39.5691C34.3104 39.7182 34.7658 39.5664 35.0986 39.3332C36.1829 38.5749 37.2233 37.8429 38.5963 37.6972C39.1107 37.6423 39.5513 37.7148 40.0196 37.8903C40.5706 38.0964 41.0958 38.3417 41.7058 38.3966C42.7911 38.4942 43.8022 38.2556 44.7393 37.6809C45.3863 37.2842 45.9757 36.7807 46.5075 36.1703C47.3823 35.1659 48.2778 34.1312 49.1941 33.0662C49.4091 32.8164 49.713 32.6483 50.1056 32.562C50.5877 32.4558 51.0212 32.4556 51.4062 32.5613C51.7356 32.6512 52.0729 32.7405 52.4181 32.829C52.8274 32.9341 53.3269 32.9463 53.6929 32.7023C54.2608 32.3248 54.7203 31.767 55.0219 31.1625C55.2754 30.6549 55.5051 29.8389 55.0558 29.3563C54.4418 28.6969 53.7119 28.2164 53.2137 27.439C53.0246 27.1442 53.1534 26.8047 53.333 26.5451C53.6542 26.0815 54.0973 25.73 54.662 25.4905C55.0863 25.3109 55.4536 25.3062 55.8711 25.5034C56.1043 25.6132 56.3365 25.7225 56.5678 25.8314C57.3066 26.1805 58.212 25.9419 58.826 25.4085C59.3104 24.9883 59.7317 24.4721 60.09 23.8599C60.6191 22.9567 61.0316 22.0506 61.3275 21.1415C61.4391 20.7981 61.3906 20.5069 61.1818 20.2679C61.1719 20.2564 61.1581 20.2489 61.143 20.2468C61.1279 20.2447 61.1126 20.2481 61.0998 20.2564C60.5427 20.6156 60.2493 21.2242 59.8786 21.7488C59.752 21.9281 59.5625 22.1147 59.3099 22.3086C58.9243 22.6041 58.4445 22.5939 58.0141 22.4068ZM46.9054 42.6934C45.3683 44.8351 44.3876 47.338 43.2307 49.7337C43.2189 49.7577 43.2183 49.7819 43.2287 49.8063C43.4306 50.2908 43.882 50.6954 44.2886 51.0174C44.9013 51.5017 45.5919 52.0387 46.3605 52.6283C46.6266 52.8326 46.9081 53.0655 47.2049 53.3271C47.2217 53.3417 47.2427 53.3511 47.2652 53.3542C47.5802 53.394 47.8795 53.3036 48.1632 53.0831C48.6164 52.7311 48.9966 52.3076 49.3039 51.8124C49.7796 51.0452 50.2086 50.2115 50.5218 49.3806C50.8694 48.4562 51.0592 47.3305 50.658 46.4183C50.2667 45.5273 49.6985 44.7743 48.9535 44.1594C48.4926 43.7792 47.6387 43.2289 46.9657 42.686C46.9426 42.6675 46.9225 42.67 46.9054 42.6934ZM37.9966 44.0557C37.2409 45.2465 36.5659 46.4203 36.0338 47.6199C35.5581 48.6912 35.1144 49.6608 34.7028 50.5287C34.6531 50.6335 34.6309 50.7756 34.6364 50.955C34.6373 50.979 34.6456 51.0002 34.6614 51.0187C35.5533 52.0204 36.6479 52.7368 37.6882 53.5738C38.0018 53.8259 38.3253 54.076 38.6587 54.324C38.678 54.3381 38.7014 54.3452 38.7251 54.3444C39.5492 54.3051 40.1687 53.548 40.5821 52.9198C41.3717 51.7209 41.9972 50.4427 42.2283 49.0479C42.3435 48.3525 42.2155 47.7453 41.9111 47.1346C41.4431 46.1953 40.7893 45.4333 39.9498 44.8486C39.3371 44.4221 38.794 44.0241 38.3205 43.6545C38.3011 43.6391 38.2839 43.6414 38.269 43.6612C38.1737 43.7887 38.0829 43.9201 37.9966 44.0557ZM27.9024 46.7653C27.3503 47.9685 26.7609 49.2528 26.1342 50.6182C26.0651 50.7686 26.0596 50.9055 26.1681 51.0364C26.9048 51.9255 27.9126 52.625 28.835 53.3203C29.2172 53.609 29.5784 53.914 29.9532 54.2129C30.0711 54.3064 30.2406 54.3762 30.3924 54.3308C31.1304 54.1078 31.5337 53.6504 31.9593 53.0485C32.3465 52.5018 32.6901 51.9002 32.9901 51.2437C33.3507 50.4542 33.6428 49.6666 33.735 48.8202C33.772 48.4799 33.7481 48.1661 33.6631 47.8788C33.2517 46.486 32.3029 45.4539 31.1216 44.6223C30.7231 44.3417 30.3095 44.057 29.8807 43.7683C29.8416 43.7417 29.7937 43.7315 29.7471 43.7399C29.7005 43.7482 29.6589 43.7745 29.6313 43.8131C29.0328 44.6548 28.5422 45.6023 28.0406 46.4928C27.9918 46.5791 27.9458 46.6699 27.9024 46.7653Z" fill="#161273"/>
</svg>
