<svg width="158" height="36" viewBox="0 0 158 36" fill="none" xmlns="http://www.w3.org/2000/svg">
<path fill-rule="evenodd" clip-rule="evenodd" d="M25.9873 30.0818C26.1791 29.9665 26.4213 29.9229 26.783 29.9229C27.9876 29.9229 27.6951 30.1348 28.2109 28.4585L27.107 28.4429C26.2798 28.4429 26.4905 28.3993 25.9873 30.0818Z" fill="#F79820"/>
<path fill-rule="evenodd" clip-rule="evenodd" d="M24.2039 35.8866C26.2136 36.0268 26.0281 35.5376 26.5156 33.9423C26.7074 33.316 27.4308 31.11 27.522 30.6613C25.5469 30.5118 25.701 30.9231 25.1883 32.6306C25.0405 33.1229 24.2354 35.6155 24.2039 35.8897V35.8866ZM40.9358 35.8804C42.0051 36.0175 42.6782 35.8866 42.9487 35.0329C43.2254 34.1573 44.8923 28.8822 44.971 28.446C42.8354 28.4273 43.2663 28.3151 42.2567 31.54C41.8982 32.6835 41.2157 34.8054 40.939 35.8804H40.9358ZM19.4674 35.8897C19.8825 35.8897 20.8418 35.9614 21.1469 35.8087C21.4362 35.6654 23.3767 32.2909 23.8202 31.6428L25.1254 29.5334C25.3078 29.253 25.6695 28.7357 25.7733 28.4522C23.8296 28.3743 23.9397 28.4678 23.273 29.5801C23.1157 29.8419 22.9993 30.0475 22.8452 30.3092L21.3261 32.9453C21.1626 33.26 21.2035 33.2008 21.0651 33.2568C21.0651 32.6524 21.0651 32.051 21.0651 31.4465C21.0651 30.3248 21.3199 29.1003 20.3197 28.5986C19.8731 28.3743 19.1938 28.4335 18.6434 28.4491L18.3509 29.4804C19.2126 29.4991 19.4768 29.3278 19.4705 30.2469V35.8866L19.4674 35.8897ZM102.558 29.4835C102.731 29.3745 102.897 28.6423 102.935 28.4522C102.114 28.4055 98.0728 28.421 97.1198 28.446C96.2392 28.4678 95.6636 28.9881 95.4246 29.63C95.0377 30.68 94.4496 32.7957 94.069 33.9922C93.7734 34.9207 94.2515 35.6436 94.9654 35.843C95.3334 35.9458 99.9158 35.9115 100.639 35.8928C100.718 35.7433 100.925 35.0671 100.966 34.8646C100.397 34.8148 97.3808 34.8521 96.5631 34.8553C95.456 34.8553 95.6573 34.5437 95.9184 33.7086L96.9437 30.4058C97.1638 29.6674 97.3148 29.4835 98.1891 29.4867C99.6453 29.4898 101.101 29.4867 102.558 29.4867V29.4835ZM52.0883 35.8804C52.8463 35.977 54.249 35.8928 55.0762 35.896C55.831 35.896 57.3626 35.977 58.0231 35.8243C59.8441 35.4005 60.2467 33.3472 58.7433 32.2785C58.2936 31.9575 57.284 31.5867 56.6959 31.3188C56.2996 31.1381 55.9882 31.0197 55.6863 30.7984C55.4158 30.6021 55.1799 30.1161 55.5228 29.7733C55.9159 29.3807 57.5199 29.4867 58.237 29.4867C59.4101 29.4867 60.0831 29.5801 60.2876 28.4553C59.3472 28.3992 58.2684 28.4491 57.3092 28.4429C56.3531 28.4366 55.4316 28.3805 54.7365 28.8635C54.2427 29.2062 53.6357 29.9042 53.9251 30.8857C54.1421 31.621 54.8183 31.9793 55.5165 32.3065C56.5418 32.7863 58.2401 33.3129 57.9476 34.2851C57.825 34.6932 57.501 34.8553 56.9852 34.8521C55.9945 34.849 55.0007 34.849 54.01 34.849C52.8054 34.849 52.3745 34.7961 52.0915 35.8835L52.0883 35.8804ZM110.732 28.4522C110.172 28.4148 105.599 28.4055 105.218 28.4709C104.517 28.5924 103.989 29.1502 103.787 29.7609L102.504 33.9205C102.224 34.8397 102.517 35.4068 103.146 35.7402C103.633 35.9988 105.052 35.8928 105.718 35.8928C106.627 35.8928 107.533 35.8928 108.452 35.8928L108.757 34.8459C107.527 34.8459 106.297 34.8459 105.067 34.8459C103.536 34.8459 104.234 34.4533 104.652 32.6243H108.272L108.587 31.5743H105.02C105.042 31.272 105.338 30.437 105.448 30.1098C105.64 29.5365 105.964 29.4742 106.646 29.4773C107.904 29.4773 109.172 29.4898 110.424 29.4773L110.732 28.4491V28.4522ZM61.8129 35.8928H66.9992C67.2005 35.4535 67.4269 34.5686 67.5748 34.0701L68.7259 30.3248C68.8202 30.0257 68.9083 29.7203 68.9995 29.415C69.0813 29.1439 69.2417 28.7389 69.2857 28.4553L67.5213 28.4491L65.565 34.8397C64.958 34.8802 63.3572 34.849 62.6495 34.849C61.7438 34.849 62.2124 33.9548 62.3759 33.422L63.4453 29.9291C63.9139 28.4086 64.0208 28.4023 62.1243 28.446C61.75 29.8014 61.294 31.1941 60.8757 32.5308C60.7247 33.0138 60.2876 34.2072 60.3285 34.6652C60.3977 35.413 61.0235 35.8928 61.8129 35.8928ZM17.4451 30.1566C17.6118 29.5178 17.2721 29.0068 16.9482 28.7607C16.4764 28.4055 16.0235 28.4429 15.3064 28.4429C14.3566 28.4429 12.3249 28.2746 11.6361 28.6859C10.7712 29.2031 10.6769 30.0787 10.3183 31.244C10.1768 31.7114 10.0038 32.2411 9.86227 32.724C9.57292 33.7117 8.93447 34.8677 9.89687 35.6062C10.3561 35.9583 10.8341 35.8928 11.5418 35.8928H13.4917C14.1742 35.8928 14.6491 35.9552 15.1901 35.656C16.0927 35.1575 16.1588 34.257 16.5267 33.1228C16.8381 32.1601 17.1903 31.1131 17.4419 30.1566H17.4451ZM13.0986 29.5116C13.3439 29.4586 15.2813 29.4493 15.4731 29.5303C15.9889 29.7484 15.4417 30.8981 15.3064 31.3531C15.1146 31.9949 14.9133 32.615 14.7214 33.2568C14.5202 33.9267 14.4321 34.6714 13.7905 34.8179C13.5452 34.874 11.5292 34.8833 11.353 34.8085C10.8844 34.606 11.4128 33.4375 11.5543 32.9764C11.7588 32.3096 11.9475 31.727 12.1519 31.0726C12.4224 30.2064 12.4287 29.658 13.1017 29.5147L13.0986 29.5116ZM68.2761 35.8928H70.0154L71.9842 29.496C72.6918 29.4555 73.4907 29.4835 74.2172 29.4835C75.1481 29.4835 75.686 29.3465 75.34 30.3934C75.1293 31.0321 75.0978 31.5836 74.3587 31.6428C73.6511 31.6989 72.8051 31.5836 72.1131 31.6584L72.9466 34.4035C73.302 35.5532 73.2611 36.0736 75.1198 35.8804L74.1669 32.7022C74.9657 32.6461 76.0382 32.8798 76.6735 31.7114C76.8276 31.4309 77.0006 30.7548 77.1107 30.3965C77.2679 29.8761 77.2711 29.4337 76.9754 29.0317C76.3842 28.2185 75.296 28.4397 74.0788 28.4397C72.8617 28.4397 71.7043 28.421 70.528 28.4397C70.2858 29.5334 68.3044 35.4379 68.2761 35.8866V35.8928ZM76.6861 35.896L78.4253 35.8897L79.372 32.8393C80.347 32.8393 82.0674 32.805 82.9763 32.8424C82.8851 33.9423 81.5453 35.8897 82.7184 35.8897H83.8192L84.7627 32.8705C84.9325 32.3065 85.6433 30.2532 85.637 29.7889C85.6276 29.1938 85.2565 28.7638 84.8633 28.58C84.401 28.3618 83.577 28.4429 82.9952 28.4429C81.6428 28.4429 80.2872 28.4429 78.9348 28.4429C78.8279 28.985 78.548 29.7266 78.3813 30.2781C78.1863 30.9262 78.0039 31.5026 77.8026 32.1476C77.6045 32.7832 77.4189 33.3908 77.2302 34.0202C77.1138 34.4066 76.7018 35.5657 76.683 35.8928L76.6861 35.896ZM79.7148 31.7862C79.7746 31.4621 80.3093 29.6985 80.4225 29.496C80.7338 29.468 83.3946 29.4617 83.5581 29.5147C84.2092 29.7297 83.5078 30.8452 83.3254 31.7862H79.7148ZM53.4344 28.4647C52.8589 28.3618 52.082 28.4179 51.7455 28.7015C51.4341 28.9663 51.3209 29.5957 51.1762 30.0693L50.3334 32.8237C50.3082 32.8829 50.2767 32.9328 50.2359 32.9733C49.9213 31.8983 49.588 30.8171 49.2357 29.7297C48.7545 28.2434 48.786 28.4055 46.273 28.4491L44.0023 35.8928H45.7572L47.5468 30.0693C47.6632 30.1566 47.6128 30.0974 47.6695 30.2687L48.1412 31.8235C48.3268 32.4249 48.5061 32.9982 48.6979 33.6245C48.8237 34.042 49.091 35.0858 49.2703 35.4036C49.5974 35.9863 50.2736 35.9396 51.1416 35.8928L53.4344 28.4647ZM9.878 28.4491C8.02239 28.365 8.07586 28.5488 7.62296 30.0444C7.5066 30.4245 6.81468 32.777 6.71403 32.9016C6.58508 32.8206 6.50017 32.3969 6.42468 32.1507L5.66986 29.7141C5.48745 29.1159 5.40882 28.5955 4.79552 28.4678C4.43384 28.393 3.13491 28.4335 2.70089 28.4491C2.48074 29.4929 0.467874 35.4535 0.452148 35.8928H2.18824L4.01869 30.1036L4.33005 30.9916C4.54077 31.6896 5.58809 35.2167 5.73905 35.4504C6.08816 35.9832 6.78008 35.9365 7.58522 35.8897L9.88114 28.4491H9.878ZM94.5219 28.4522C92.377 28.3151 92.7167 28.6641 91.814 31.5213C91.7197 31.8235 91.4838 32.7396 91.3611 32.939C91.2322 32.8424 90.4616 30.1628 90.3327 29.7515C89.8861 28.3276 89.9332 28.3618 87.3511 28.4491C87.1656 29.3838 85.1024 35.5002 85.1024 35.8928H86.8385C87.1184 35.1606 87.9141 32.4311 88.2034 31.4839C88.2789 31.2378 88.3513 30.9947 88.4299 30.7455L88.5934 30.2158C88.6375 30.1005 88.6091 30.1472 88.6689 30.0724C88.8041 30.2594 89.6565 33.1821 89.7949 33.6432C90.4207 35.7495 90.232 35.9957 92.2323 35.8866L94.5282 28.4491L94.5219 28.4522ZM36.649 28.446C35.7212 28.4304 34.9601 28.3058 34.6739 29.1377C34.4475 29.8014 33.6235 32.7645 33.4725 32.9546C33.3436 32.749 33.136 31.9388 33.0416 31.6366C32.9064 31.191 32.7711 30.7548 32.6296 30.2968C32.205 28.9289 32.3183 28.4366 30.9627 28.4397C29.2486 28.4397 29.5191 28.3151 29.3524 28.8853L28.3429 32.1632C28.2013 32.6368 27.2326 35.6529 27.2232 35.8835L28.953 35.8897C29.1165 35.547 29.2958 34.8366 29.4216 34.4315L30.7614 30.0631L31.815 33.316C32.6233 35.9302 32.3057 35.9178 34.3405 35.8928L36.6459 28.4491L36.649 28.446Z" fill="#B31F8D"/>
<path fill-rule="evenodd" clip-rule="evenodd" d="M61.5079 3.90869C61.8287 3.77782 61.7721 3.62203 62.2627 3.50675C63.0176 3.32914 65.0587 3.60334 65.4959 3.34161C65.8985 3.10169 66.0117 2.26975 66.1689 1.76187C66.3168 1.28515 66.6124 0.478142 66.6879 0.0232285C65.9519 0.00453338 65.2002 0.0232302 64.4612 0.0201143C63.7 0.0201143 62.8697 -0.132563 62.5772 0.403362L61.5111 3.90557L61.5079 3.90869Z" fill="#F79820"/>
<path fill-rule="evenodd" clip-rule="evenodd" d="M136.981 11.8728C133.461 12.2623 131.033 15.2628 131.376 18.6092C131.703 21.8061 134.562 24.4951 138.242 24.1305C141.4 23.8189 144.111 20.9866 143.768 17.4159C143.469 14.2907 140.588 11.474 136.981 11.8728Z" fill="#F79820"/>
<path fill-rule="evenodd" clip-rule="evenodd" d="M117.189 35.9614C118.151 36.0424 119.412 35.9707 120.4 35.9707H136.616C140.994 35.9614 143.721 36.3883 146.664 33.0699C147.825 31.7612 148.029 30.4869 148.636 28.5893L151.294 19.9896C151.382 19.7029 151.631 19.0174 151.649 18.7713H145.428C145.309 19.3415 145.274 19.7808 145.114 20.3074C144.696 21.6534 143.935 22.8001 142.96 23.6974C139.89 26.5204 135.207 26.5142 132.21 23.713C131.216 22.7845 130.483 21.722 130.046 20.3323C129.876 19.787 129.848 19.3384 129.716 18.7744L122.516 18.765L117.192 35.9614H117.189ZM95.6699 22.9839H99.0729C99.878 22.987 99.9284 22.2174 100.133 21.5444L100.724 19.5534H97.45C96.7833 19.5534 96.6417 19.7746 96.4813 20.3105C96.2172 21.1985 95.8932 22.0834 95.6731 22.9808L95.6699 22.9839ZM16.1305 8.04654C16.8318 8.05277 17.5332 8.04654 18.2345 8.04654C20.4329 8.04654 20.0681 8.27711 20.6908 6.2705C20.8292 5.82182 21.1091 5.05844 21.1752 4.61911C20.4738 4.61911 19.7725 4.61911 19.0711 4.61911C16.9387 4.63157 17.2501 4.31687 16.6274 6.38891C16.4733 6.90614 16.2405 7.52308 16.1305 8.04342V8.04654ZM28.975 22.9746C29.516 23.0213 31.6578 22.9901 32.3591 22.9901C33.202 22.9901 33.2209 22.261 33.4442 21.5257C33.614 20.9617 33.9191 20.136 34.0292 19.5658C33.2366 19.5253 31.6515 19.5658 30.7772 19.5596C30.0349 19.5565 29.9626 19.7559 29.7802 20.3323C29.4971 21.2297 29.2329 22.0897 28.9719 22.9746H28.975ZM24.1284 22.987C24.8204 23.0026 25.528 22.987 26.2231 22.987C26.8206 22.987 27.7799 23.1366 28.1384 22.7596C28.3523 22.5352 28.563 21.6223 28.6888 21.2234C28.8461 20.7218 29.082 20.0675 29.1826 19.5502C28.475 19.5502 27.7673 19.5534 27.0597 19.5534C26.4684 19.5534 25.4588 19.41 25.1474 19.7933C25.0311 19.9366 24.2165 22.6069 24.1316 22.9839L24.1284 22.987ZM100.34 22.9901C101.048 22.9901 101.756 22.9901 102.463 22.9901C103.083 22.9901 104.023 23.1241 104.366 22.7471C104.561 22.5321 105.278 20.055 105.388 19.5658C104.769 19.5066 103.945 19.5565 103.3 19.5565C101.139 19.5565 101.447 19.2947 100.837 21.32C100.686 21.8186 100.435 22.476 100.34 22.987V22.9901ZM108.474 22.9714C108.999 23.0431 109.977 22.987 110.549 22.987C111.122 22.987 112.128 23.1241 112.477 22.772C112.679 22.5695 113.437 19.9989 113.531 19.5565C112.833 19.5471 112.134 19.5565 111.433 19.5565C110.836 19.5565 109.857 19.41 109.511 19.7902C109.304 20.0176 108.603 22.4854 108.474 22.9746V22.9714ZM24.8801 16.0916C26.959 16.0387 29.1103 16.0885 31.1955 16.0885C32.3057 16.0885 33.0291 16.0761 33.9097 15.6367C34.6079 15.2878 35.2023 14.7051 35.586 14.1224C36.0829 13.3684 36.8629 10.4894 37.1837 9.44867C37.6712 7.85959 38.143 6.22377 38.6588 4.6378C38.1084 4.56302 37.0957 4.62222 36.4918 4.62222C34.9853 4.6191 34.416 5.31394 34.0386 6.56339L32.4881 11.6048C32.095 12.8792 31.9629 13.9261 30.7897 14.2938C30.318 14.4403 27.1163 14.434 26.4558 14.3842C25.7293 14.3312 25.6035 13.7361 25.8111 13.0506L28.368 4.62846C27.6415 4.60976 25.8488 4.54745 25.2701 4.73751C24.8958 4.85903 24.5058 5.13323 24.3171 5.36068C24.0404 5.69096 23.946 5.95269 23.7919 6.44811C23.2855 8.06835 22.8012 9.7104 22.3106 11.3306C21.8105 12.9789 21.3262 14.5711 20.8261 16.2163C20.5745 17.0451 20.4109 17.9518 19.8826 18.4503C19.1623 19.1327 18.3415 18.9863 17.1652 18.9863C15.0265 18.9863 12.891 18.9863 10.7523 18.9894C9.25214 18.9894 9.79938 17.7804 9.99752 17.0794C10.2963 16.0231 13.4886 5.08337 13.5578 4.62534C11.3593 4.62534 9.8843 4.3636 9.29931 6.31724L5.83656 17.687C5.52834 18.6653 5.73277 19.4007 6.24857 19.9865C6.78953 20.6034 7.42169 20.6875 8.52247 20.6875H17.5363C19.5272 20.6875 21.3859 20.9368 22.7666 19.9241C24.6002 18.5812 24.314 17.3473 24.8801 16.0948V16.0916ZM49.566 16.1072C49.566 16.3035 49.1068 17.5841 49.0156 17.7617C48.7734 18.2385 48.3551 18.6248 47.7764 18.8398C47.0813 19.0984 44.2948 18.9832 43.3229 18.9832H38.7248C37.5548 18.9832 36.0924 18.7744 35.7842 20.6875C39.5268 20.728 43.2946 20.6875 47.0405 20.6875C49.0722 20.6875 50.412 20.8495 51.7172 19.7465C53.3495 18.3631 53.1325 17.1136 53.6483 16.101C54.878 16.073 58.476 16.1851 59.3535 16.0356C60.8977 15.7707 62.0646 14.6833 62.5615 13.465C62.832 12.7982 63.0427 11.9756 63.2534 11.2901L64.6089 6.8781C64.7285 6.50108 64.8228 6.16145 64.9392 5.79378C65.0304 5.50712 65.2474 4.90577 65.2726 4.61911C63.4044 4.59107 61.8821 4.34803 61.0487 5.60995C60.7059 6.13029 59.4258 10.5548 59.1396 11.4958C58.7371 12.8138 58.5861 14.3219 56.85 14.3842C56.0449 14.4122 55.0007 14.4216 54.2018 14.3811C54.2239 14.1006 54.4503 13.4961 54.5384 13.2001C55.0699 11.4553 55.9191 8.92832 56.3468 7.30185C56.6078 6.31101 56.0795 5.45415 55.5668 5.0709C54.8403 4.52874 54.0509 4.61911 52.9438 4.61911C51.2832 4.61911 44.3797 4.51005 43.7004 4.72816C42.9644 4.96184 42.4706 5.5414 42.2285 6.29855L40.7786 11.0315C40.2124 12.873 39.3664 14.3219 40.7786 15.5807C41.4548 16.182 42.2976 16.1072 43.3796 16.1072C44.4615 16.1072 45.4553 16.1072 46.4932 16.1072C47.4713 16.1072 48.6193 16.0543 49.5785 16.1135L49.566 16.1072ZM50.1038 14.3686C48.7545 14.4029 47.3675 14.3717 46.0151 14.3717C45.3515 14.3717 44.5904 14.4901 44.2539 14.0944C43.8922 13.6738 44.2036 13.0257 44.3514 12.5458C44.669 11.5114 44.9899 10.4644 45.2981 9.44243C45.4648 8.89404 45.6157 8.40797 45.773 7.88451C46.2164 6.3889 47.0216 6.33905 48.2891 6.33905C48.9715 6.33905 49.6509 6.33905 50.3334 6.33905C50.9498 6.33905 51.7958 6.23311 52.1103 6.58832C52.4815 7.00584 52.1701 7.67886 52.0128 8.1774C51.3712 10.2183 50.7674 12.3339 50.1006 14.3655L50.1038 14.3686ZM75.9659 16.0885C75.469 13.9698 74.1826 14.3842 71.893 14.3873C70.6066 14.3873 70.5626 13.8327 70.8551 12.8886L72.2169 8.48276C72.5314 7.51373 72.5283 7.09309 73.258 6.61637C73.909 6.19261 74.9626 6.32036 75.8432 6.32036C77.5667 6.32036 79.177 5.9745 78.6487 7.62902C78.5291 8.00603 78.4159 8.35501 78.3058 8.71644L76.9283 13.1036C76.6641 13.9199 76.4219 14.6459 76.9723 15.3719C77.4567 16.0075 78.0637 16.0854 79.1393 16.0854H84.9483C86.4422 16.0792 86.8165 15.5744 87.2725 15.4841C87.5996 15.7146 87.6216 15.8486 88.1405 16.0013C88.6752 16.1602 91.6631 16.0885 92.3361 16.0885C93.4746 16.0885 95.4466 16.1976 96.4342 15.9078C96.7927 15.8019 97.1984 15.5495 97.4469 15.4841C98.0161 15.8891 98.0759 16.0885 99.1673 16.0854C100.045 16.0854 103.206 16.1322 103.809 16.0636C104.869 15.9421 105.174 15.6118 105.58 15.4841C105.92 15.6835 105.973 15.8891 106.555 16.0325C107.014 16.1446 110.53 16.0916 111.153 16.0916C112.902 16.0916 114.368 15.3999 115.173 13.9386C115.588 13.1846 117.355 7.24265 117.783 5.84986C117.881 5.53828 118.104 4.92757 118.142 4.62534C117.453 4.62534 116.767 4.62534 116.078 4.62534C115.342 4.62534 114.902 4.71259 114.434 5.06779C114.037 5.36691 113.798 5.70031 113.61 6.32036C113.446 6.86252 113.289 7.34547 113.113 7.9032L111.644 12.6081C111.238 13.8887 110.807 14.3935 109.294 14.3904C108.618 14.3904 107.857 14.5119 107.477 14.11C107.083 13.6893 107.442 12.9945 107.59 12.5022C107.747 11.9912 107.92 11.449 108.08 10.9225L109.549 6.20507C109.678 5.7782 109.955 5.04286 110.024 4.63157C109.238 4.56925 107.351 4.54744 106.741 4.80605C105.829 5.19553 105.637 5.80936 105.316 6.84694C104.766 8.62609 104.228 10.3491 103.668 12.1189C103.029 14.138 102.762 14.3873 100.746 14.3873C100.13 14.3873 99.5856 14.4496 99.2962 14.0632C98.9943 13.6644 99.2616 13.1254 99.3906 12.7078L100.627 8.73202C100.891 7.89074 101.378 6.87186 100.966 5.92153C100.633 5.15503 99.9095 4.61911 98.7961 4.61911C96.4719 4.61911 94.1508 4.61911 91.8266 4.61911C90.6157 4.61911 89.7634 4.61287 88.8419 5.12076C88.0871 5.53516 87.5241 6.08044 87.1058 6.84071C86.7441 7.50438 86.4642 8.60427 86.2095 9.40816C85.9264 10.3118 85.6371 11.2091 85.3697 12.0784C85.0521 13.116 84.92 13.8295 84.0362 14.2066C83.533 14.4216 83.077 14.3842 82.4857 14.3842C81.8944 14.3842 81.3251 14.4745 81.0106 14.0819C80.693 13.6893 80.9446 13.1659 81.0767 12.7452L82.3221 8.77565C82.5895 7.91567 83.0707 6.94665 82.7121 6.00255C82.4196 5.22982 81.6994 4.62534 80.6301 4.61599C78.2964 4.5973 75.9502 4.61599 73.6134 4.61599C70.6633 4.61599 69.5184 4.18601 68.7448 6.69426C68.1975 8.47341 67.6597 10.2089 67.103 11.9694C66.8325 12.82 66.3765 13.7922 66.7822 14.7394C67.1124 15.509 67.7824 16.073 68.9209 16.0792C71.2671 16.0917 73.6197 16.0792 75.9659 16.0792V16.0885ZM92.6569 6.3484C93.1318 6.29232 96.2895 6.27985 96.5788 6.4076C97.167 6.66622 97.0632 7.18656 96.865 7.82531L95.4403 12.39C95.1384 13.3528 94.8459 14.3343 93.4054 14.3811C92.8142 14.3997 89.776 14.4589 89.4395 14.3032C88.8513 14.0321 88.974 13.5086 89.1627 12.901L90.5874 8.32696C90.9271 7.22084 91.4052 6.50108 92.6569 6.35152V6.3484ZM122.985 17.2383H129.731C130.005 13.3809 133.487 10.2121 137.544 10.1996C141.783 10.1871 145.01 13.3435 145.416 17.2134C145.689 17.2881 151.417 17.2539 152.153 17.2383L157.452 0.0419311C157.009 -0.01727 139.17 0.029465 138.053 0.029465C134.024 0.029465 130.813 -0.416102 128.005 2.90539C126.901 4.21093 126.583 5.46038 126.007 7.36728C125.894 7.73806 123.035 16.8893 122.982 17.2352L122.985 17.2383Z" fill="#B31F8D"/>
</svg>
