<svg width="74" height="77" viewBox="0 0 74 77" fill="none" xmlns="http://www.w3.org/2000/svg">
<path d="M40.6897 30.5379L40.4778 30.6589L25.1761 15.3543C25.1725 15.3504 25.1704 15.3453 25.1704 15.3402C25.1704 15.335 25.1725 15.33 25.1761 15.3265L40.4808 0.018788C40.5058 -0.00626265 40.5309 -0.00626265 40.5559 0.018788L55.8846 15.3437C55.9002 15.3593 55.9002 15.3748 55.8846 15.3903C51.0393 20.2321 46.1986 25.0752 41.3623 29.9194C41.1464 30.1354 40.9222 30.3415 40.6897 30.5379Z" fill="#EC3237"/>
<path d="M24.9612 57.9789L24.9574 73.8682C24.9574 73.9314 24.9276 73.9526 24.868 73.9321C24.2828 73.7272 23.7016 73.5188 23.1245 73.3068C14.0055 69.9566 5.71705 63.5747 1.97899 54.3761C-0.295851 48.7788 -0.63629 42.6299 1.09671 36.868C2.73803 31.4097 6.08529 26.6451 10.4854 22.9784C14.7082 19.4606 19.6081 17.0437 24.9334 15.4159C24.9509 15.4104 24.9597 15.4169 24.9597 15.4354V30.5214C24.9597 30.5409 24.9697 30.5507 24.9897 30.5507L40.0456 30.55C40.0572 30.55 40.0683 30.5546 40.0765 30.5627C40.0846 30.5709 40.0892 30.582 40.0892 30.5936L40.0877 57.8932C40.0877 57.9193 40.0747 57.9323 40.0487 57.9323H25.0078C24.9767 57.9323 24.9612 57.9478 24.9612 57.9789ZM15.5446 38.3274C13.5809 41.9137 13.5035 46.1304 15.4432 49.7325C17.207 53.0083 20.2785 55.3283 23.7888 56.6585C24.134 56.7887 24.486 56.9225 24.8447 57.0598C24.8843 57.0748 24.9041 57.061 24.9041 57.0184L24.9056 30.668C24.9056 30.6319 24.889 30.6206 24.856 30.6341C21.063 32.1665 17.5369 34.6878 15.5446 38.3274Z" fill="#3E4095"/>
<path d="M40.6897 30.5379L62.7956 30.5417C62.8081 30.5417 62.8205 30.545 62.8313 30.5514C62.8421 30.5577 62.8511 30.5668 62.8572 30.5778C64.9637 34.4939 66.5224 38.7753 66.8455 43.2363C67.1076 46.8491 66.5339 50.3229 65.1245 53.6576C64.5013 55.1321 63.7465 56.5462 62.8602 57.9C62.8462 57.922 62.8262 57.933 62.8001 57.933L41.2669 57.9315C41.1867 57.9315 41.1794 57.9085 41.2451 57.8624C41.9314 57.3779 42.6276 56.8746 43.3335 56.3526C44.8882 55.2033 46.3211 53.9497 47.6322 52.592C48.4348 51.7608 49.1718 50.8442 49.8432 49.8422C50.7969 48.4173 51.5296 46.7377 51.7295 45.0325C52.2308 40.7571 49.5012 37.2926 46.4215 34.6871C44.7471 33.2707 42.8673 31.9831 40.7821 30.8243C40.6819 30.7687 40.5805 30.7135 40.4778 30.6589L40.6897 30.5379Z" fill="#3E4095"/>
<path d="M37.2447 73.491C37.2204 73.4294 37.2079 73.3636 37.2079 73.2971C37.2074 70.031 37.2069 66.7313 37.2064 63.3981C37.2064 63.2598 37.2605 63.1215 37.3499 63.0193C37.7858 62.5218 38.5486 62.4557 39.0882 62.8269C39.3507 63.0078 39.4823 63.259 39.4828 63.5807C39.4843 66.7756 39.484 70.0119 39.482 73.2896C39.482 73.6585 39.2107 73.9539 38.874 74.0583C38.2645 74.2485 37.5033 74.1418 37.2447 73.491Z" fill="#3E4095"/>
<path d="M35.1074 64.829C35.691 64.829 36.1641 64.3559 36.1641 63.7723C36.1641 63.1888 35.691 62.7157 35.1074 62.7157C34.5239 62.7157 34.0508 63.1888 34.0508 63.7723C34.0508 64.3559 34.5239 64.829 35.1074 64.829Z" fill="#3E4095"/>
<path d="M34.8977 65.5459C35.6402 65.449 36.1393 66.1449 36.14 66.837C36.143 68.576 36.1425 70.2945 36.1385 71.9924C36.1375 72.3772 36.0303 72.765 35.8169 73.1558C35.3772 73.9584 34.5047 74.1763 33.6562 74.1794C32.5941 74.1829 31.4733 74.1831 30.2939 74.1801C29.2501 74.1771 28.4167 73.7134 28.0897 72.6831C28.0251 72.4787 27.993 72.1898 27.9935 71.8166C27.9956 69.1958 27.9951 66.6061 27.992 64.0474C27.9913 63.5784 28.2423 63.0516 28.6722 62.8314C29.1148 62.6045 29.6394 62.8066 29.8693 63.2327C30.0046 63.4838 30.0722 63.752 30.0722 64.0376C30.0692 66.3673 30.0697 68.7208 30.0737 71.0981C30.0745 71.4799 30.1579 71.9797 30.6517 71.9969C31.1033 72.0127 31.555 71.9887 32.0097 72.024C32.4718 72.0601 33.0911 72.1209 33.53 71.9804C33.8291 71.8857 33.911 71.4536 33.9125 71.18C33.921 69.7602 33.9213 68.3473 33.9133 66.9415C33.9123 66.7516 33.93 66.5808 33.9666 66.4289C34.0718 65.9946 34.4483 65.6045 34.8977 65.5459Z" fill="#3E4095"/>
<path d="M50.5692 72.1593C50.8282 72.1432 51.0972 72.1447 51.3763 72.1638C51.592 72.1788 51.7851 72.2442 51.9144 72.4261C52.2247 72.8619 52.1564 73.5022 51.7054 73.8186C51.6513 73.8562 51.5479 73.8747 51.3951 73.8742C50.8174 73.8727 50.2162 73.8745 49.5914 73.8795C49.4161 73.881 49.2082 73.8447 48.9677 73.7705C48.9426 73.763 48.9226 73.7485 48.9075 73.7269C48.7628 73.514 48.6904 73.3657 48.6904 73.282C48.6934 71.9413 48.6914 70.6009 48.6843 69.2607C48.6788 68.1474 49.1495 67.3255 50.0964 66.7949C51.7205 65.8856 54.2704 66.314 55.2128 68.0417C55.4871 68.5445 55.5081 69.1848 55.5187 69.7995C55.5302 70.4734 55.5312 71.1923 55.5217 71.9564C55.5212 71.9879 55.5367 72.0037 55.5683 72.0037H56.8766C56.8892 72.0037 56.9016 72.0011 56.9132 71.9961C56.9247 71.991 56.935 71.9836 56.9435 71.9744L57.5974 71.2605C57.6169 71.2389 57.6229 71.2141 57.6154 71.1861C57.3358 70.1151 57.3884 69.1682 57.9694 68.2168C58.3383 67.6118 58.8982 67.1196 59.549 66.8242C60.5313 66.3778 61.775 66.4259 62.7227 66.9708C64.089 67.7569 64.7984 69.326 64.4452 70.8779C64.4392 70.9025 64.4444 70.9245 64.461 70.9441C64.9134 71.4754 65.9106 72.3148 66.6141 71.6836C66.9598 71.3747 67.0717 70.9644 67.0687 70.4954C67.0617 69.5039 67.06 68.5089 67.0635 67.5104C67.0642 67.1151 67.0514 66.7363 67.4182 66.4793C67.8801 66.1561 68.3829 66.1143 68.9265 66.3538C69.3857 66.556 69.4969 66.9715 69.4946 67.433C69.4881 68.6775 69.4874 69.8471 69.4924 70.9418C69.4946 71.4062 69.8441 71.6828 70.2627 71.7933C70.5538 71.8704 70.8564 71.8552 71.1705 71.7474C71.6838 71.5708 71.8281 71.2109 71.8243 70.6916C71.8168 69.5457 71.8158 68.4089 71.8213 67.2812C71.8228 66.9302 71.9626 66.6724 72.2753 66.5139C72.7567 66.2694 73.2284 66.2894 73.6904 66.574C73.9015 66.7048 73.9985 66.9302 73.9985 67.173C73.9955 68.5437 73.996 69.9097 74 71.271C74.0037 72.4892 72.9448 73.249 71.8506 73.5368C70.7459 73.8284 69.5224 73.4662 68.544 72.9213C68.5184 72.9073 68.4934 72.9083 68.4688 72.9243C67.9179 73.2903 67.3701 73.5902 66.7704 73.7202C65.5484 73.9832 64.3813 73.4699 63.511 72.6312C63.4995 72.6201 63.4843 72.6137 63.4683 72.6133C63.4523 72.6128 63.4367 72.6184 63.4246 72.629C62.5013 73.4351 61.4614 73.7322 60.3051 73.5203C59.7004 73.4095 59.1643 73.1445 58.6968 72.7252C58.6876 72.7169 58.6757 72.7122 58.6632 72.7117C58.6507 72.7113 58.6384 72.7153 58.6284 72.7229C58.1485 73.0912 57.6652 73.4594 57.1788 73.8276C57.0675 73.9126 56.9345 73.9178 56.8015 73.9193C56.0359 73.9273 55.1988 73.9291 54.2899 73.9246C53.6541 73.9216 53.4009 73.5428 53.4001 72.9506C53.3991 71.887 53.4011 70.7589 53.4061 69.5665C53.4071 69.2409 53.3671 68.9829 53.2859 68.7925C53.0296 68.1928 52.4389 67.8786 51.8046 67.959C51.0028 68.0612 50.5286 68.7181 50.5196 69.5087C50.511 70.2527 50.5095 71.1194 50.515 72.1089C50.5155 72.145 50.5336 72.1618 50.5692 72.1593ZM60.961 71.9668C61.2079 71.9686 61.4527 71.9195 61.6815 71.8224C61.9104 71.7254 62.1187 71.5823 62.2945 71.4012C62.4704 71.2201 62.6104 71.0047 62.7066 70.7672C62.8027 70.5297 62.8531 70.2748 62.8549 70.017C62.8567 69.7593 62.8099 69.5037 62.717 69.2649C62.6242 69.0261 62.4872 68.8087 62.3139 68.6252C62.1406 68.4417 61.9343 68.2957 61.7069 68.1954C61.4794 68.0952 61.2353 68.0427 60.9884 68.041C60.7415 68.0393 60.4966 68.0883 60.2678 68.1854C60.039 68.2824 59.8307 68.4256 59.6548 68.6066C59.479 68.7877 59.339 69.0031 59.2428 69.2406C59.1466 69.4781 59.0962 69.733 59.0944 69.9908C59.0926 70.2486 59.1395 70.5042 59.2323 70.743C59.3251 70.9818 59.4621 71.1991 59.6354 71.3826C59.8088 71.5661 60.015 71.7122 60.2425 71.8124C60.4699 71.9126 60.714 71.9651 60.961 71.9668Z" fill="#3E4095"/>
<path d="M44.9298 69.0224C44.7193 68.6301 44.2414 68.1687 43.7634 68.1612C43.1161 68.1502 42.4102 68.1492 41.6456 68.1582C41.4738 68.1602 41.3177 68.1371 41.1774 68.0891C40.5927 67.8891 40.3688 67.2256 40.831 66.7641C41.0569 66.5387 41.3167 66.4279 41.6103 66.4319C42.2957 66.441 43.0146 66.441 43.7672 66.4319C44.164 66.4269 44.5031 66.465 44.7847 66.5462C48.008 67.4743 48.247 72.8266 44.9771 73.875C44.6489 73.9802 44.1567 74.0321 43.5004 74.0305C42.7955 74.029 42.1982 74.0245 41.7088 74.017C41.5063 74.014 41.3047 73.9494 41.1038 73.8231C40.4026 73.3835 40.6153 72.4028 41.3631 72.1608C41.5003 72.1162 41.6972 72.0959 41.9538 72.0999C42.5379 72.1079 43.1331 72.1089 43.7394 72.1029C44.3887 72.0961 44.9531 71.5423 45.1252 70.9253C45.3135 70.2499 45.2484 69.6156 44.9298 69.0224Z" fill="#3E4095"/>
<path d="M67.3821 75.6155C67.4362 75.3084 67.6013 75.0804 67.8774 74.9316C68.5447 74.5716 69.3188 74.9827 69.424 75.7297C69.4711 76.0634 69.3814 76.3475 69.1549 76.582C68.5755 77.1817 67.6234 76.9344 67.3656 76.1694C67.3526 76.1308 67.3385 76.1305 67.3235 76.1686C67.1446 76.624 66.8252 76.8735 66.3653 76.9171C65.6431 76.9855 65.0366 76.1934 65.3162 75.4998C65.719 74.4972 67.0672 74.6137 67.3528 75.617C67.3648 75.6586 67.3746 75.6581 67.3821 75.6155Z" fill="#3E4095"/>
<path d="M70.1928 75.9316C70.2317 76.5168 70.7326 76.96 71.3115 76.9216C71.8905 76.8831 72.3283 76.3775 72.2895 75.7924C72.2506 75.2072 71.7497 74.764 71.1708 74.8024C70.5918 74.8409 70.154 75.3465 70.1928 75.9316Z" fill="#3E4095"/>
</svg>
