<svg width="150" height="90" viewBox="0 0 150 90" fill="none" xmlns="http://www.w3.org/2000/svg">
<path fill-rule="evenodd" clip-rule="evenodd" d="M121.852 52.9782L118.83 53.9035V60.1819H104.368C104.385 60.1534 104.393 60.1221 104.393 60.0936V55.3528C104.393 54.1142 103.384 53.0978 102.148 53.0978H96.5612C94.7584 53.0978 93.2843 54.5784 93.2843 56.3892V59.9712H85.798V55.0453C85.798 53.9292 84.8909 53.018 83.7797 53.018H78.0424C76.5343 53.018 75.3013 54.2566 75.3013 55.7714V63.2541C76.4918 63.3225 77.7589 62.9181 78.2635 61.3948V57.3801C78.2635 56.8989 78.6547 56.5088 79.1309 56.5088H81.7359C82.2122 56.5088 82.6033 56.9018 82.6033 57.3801V61.5144C82.6657 62.5594 83.4226 63.2114 84.1454 63.2655L85.798 63.2541V63.2285H91.9776C92.7599 62.7274 93.4204 62.1038 93.9533 61.3521C94.4692 62.5423 95.5889 63.3851 96.9467 63.3851H99.4271C100.691 63.3851 101.797 62.6533 102.344 61.5941C102.681 62.4512 103.313 63.2257 104.249 63.2257H116.908C118.258 63.2257 119.227 62.3857 119.78 61.1984C120.063 62.1978 120.741 63.2257 121.818 63.2257H130.087C131.861 63.2257 133.315 61.7678 133.315 59.9826V53.1433C133.315 53.0522 133.236 52.9554 133.151 52.9782L129.792 53.9035V60.1819H122.019V53.1433C122.019 53.0522 121.937 52.9525 121.855 52.9782H121.852ZM96.9297 56.2554H100.606C101.057 56.2554 101.423 56.6256 101.423 57.0755V59.154C101.423 59.6067 101.054 59.974 100.606 59.974H96.9297C96.479 59.974 96.1133 59.6039 96.1133 59.154V57.0755C96.1133 56.6227 96.4818 56.2554 96.9297 56.2554ZM28.3196 53.4622L25.7315 54.3876V60.1819H20.3485V48.3484C20.3485 47.6138 19.8751 47.5911 19.3422 47.779C18.9624 47.9128 17.9957 48.3968 17.6272 48.6474C17.4458 48.7698 17.3154 48.9264 17.3154 49.1685V60.8538C17.3608 61.9444 17.6074 63.2228 18.9652 63.2228H23.9514C25.0767 63.2228 25.5359 62.6363 26.3608 61.7564C26.7123 62.5451 27.3218 63.2228 28.1977 63.2228H36.4664C37.6655 63.2228 38.1105 62.5565 39.0516 61.5742C39.0743 61.5514 39.097 61.5287 39.1225 61.5059C39.4683 62.1095 39.8453 62.6647 40.2563 63.1659H69.065C69.6178 62.4199 70.0373 61.4119 70.3689 60.2417H40.9026C40.9622 60.1562 40.9962 60.0708 40.9962 59.9826V53.6273C40.9962 53.5362 40.9111 53.4337 40.8318 53.4622L38.2437 54.3876V60.1819H28.7731C28.5293 60.1648 28.4783 60.1733 28.4783 59.7491V53.6302C28.4783 53.5391 28.3961 53.4366 28.3139 53.4651L28.3196 53.4622ZM28.9375 66.5883H35.8853V69H28.9375V66.5883ZM107.809 66.5883H114.757V69H107.809V66.5883ZM123.851 66.5883H127.323V69H123.851V66.5883ZM25.5926 47.6053H29.0651V50.017H25.5926V47.6053Z" fill="#0E103E"/>
<path fill-rule="evenodd" clip-rule="evenodd" d="M101.446 21H85.9683C82.9125 21.0114 80.0013 21.9595 77.2347 23.8502C72.7474 26.9139 70.338 32.375 65.2979 33.961C64.5836 34.1859 64.1952 34.1347 63.4526 34.1347H49.1857V43.1151H64.3908C64.5666 43.1151 64.7395 43.1179 64.9152 43.1151C67.8803 43.0553 70.7065 42.1071 73.3994 40.2706C77.881 37.2126 80.2904 31.7571 85.3163 30.1655C86.1128 29.9576 86.453 29.9833 87.2439 29.9833H101.446V21Z" fill="#3BB5B5"/>
</svg>
