<svg width="90" height="90" viewBox="0 0 90 90" fill="none" xmlns="http://www.w3.org/2000/svg">
<path d="M48.6897 37.5379L48.4778 37.6589L33.1761 22.3543C33.1725 22.3504 33.1704 22.3453 33.1704 22.3402C33.1704 22.335 33.1725 22.33 33.1761 22.3265L48.4808 7.01879C48.5058 6.99374 48.5309 6.99374 48.5559 7.01879L63.8846 22.3437C63.9002 22.3593 63.9002 22.3748 63.8846 22.3903C59.0393 27.2321 54.1986 32.0752 49.3623 36.9194C49.1464 37.1354 48.9222 37.3415 48.6897 37.5379Z" fill="#EC3237"/>
<path d="M32.9612 64.9789L32.9574 80.8682C32.9574 80.9314 32.9276 80.9526 32.868 80.9321C32.2828 80.7272 31.7016 80.5188 31.1245 80.3068C22.0055 76.9566 13.717 70.5747 9.97899 61.3761C7.70415 55.7788 7.36371 49.6299 9.09671 43.868C10.738 38.4097 14.0853 33.6451 18.4854 29.9784C22.7082 26.4606 27.6081 24.0437 32.9334 22.4159C32.9509 22.4104 32.9597 22.4169 32.9597 22.4354V37.5214C32.9597 37.5409 32.9697 37.5507 32.9897 37.5507L48.0456 37.55C48.0572 37.55 48.0683 37.5546 48.0765 37.5627C48.0846 37.5709 48.0892 37.582 48.0892 37.5936L48.0877 64.8932C48.0877 64.9193 48.0747 64.9323 48.0487 64.9323H33.0078C32.9767 64.9323 32.9612 64.9478 32.9612 64.9789ZM23.5446 45.3274C21.5809 48.9137 21.5035 53.1304 23.4432 56.7325C25.207 60.0083 28.2785 62.3283 31.7888 63.6585C32.134 63.7887 32.486 63.9225 32.8447 64.0598C32.8843 64.0748 32.9041 64.061 32.9041 64.0184L32.9056 37.668C32.9056 37.6319 32.889 37.6206 32.856 37.6341C29.063 39.1665 25.5369 41.6878 23.5446 45.3274Z" fill="#3E4095"/>
<path d="M48.6897 37.5379L70.7956 37.5417C70.8081 37.5417 70.8205 37.545 70.8313 37.5514C70.8421 37.5577 70.8511 37.5668 70.8572 37.5778C72.9637 41.4939 74.5224 45.7753 74.8455 50.2363C75.1076 53.8491 74.5339 57.3229 73.1245 60.6576C72.5013 62.1321 71.7465 63.5462 70.8602 64.9C70.8462 64.922 70.8262 64.933 70.8001 64.933L49.2669 64.9315C49.1867 64.9315 49.1794 64.9085 49.2451 64.8624C49.9314 64.3779 50.6276 63.8746 51.3335 63.3526C52.8882 62.2033 54.3211 60.9497 55.6322 59.592C56.4348 58.7608 57.1718 57.8442 57.8432 56.8422C58.7969 55.4173 59.5296 53.7377 59.7295 52.0325C60.2308 47.7571 57.5012 44.2926 54.4215 41.6871C52.7471 40.2707 50.8673 38.9831 48.7821 37.8243C48.6819 37.7687 48.5805 37.7135 48.4778 37.6589L48.6897 37.5379Z" fill="#3E4095"/>
<path d="M45.2447 80.491C45.2204 80.4294 45.2079 80.3636 45.2079 80.2971C45.2074 77.031 45.2069 73.7313 45.2064 70.3981C45.2064 70.2598 45.2605 70.1215 45.3499 70.0193C45.7858 69.5218 46.5486 69.4557 47.0882 69.8269C47.3507 70.0078 47.4823 70.259 47.4828 70.5807C47.4843 73.7756 47.484 77.0119 47.482 80.2896C47.482 80.6585 47.2107 80.9539 46.874 81.0583C46.2645 81.2485 45.5033 81.1418 45.2447 80.491Z" fill="#3E4095"/>
<path d="M43.1074 71.829C43.691 71.829 44.1641 71.3559 44.1641 70.7723C44.1641 70.1888 43.691 69.7157 43.1074 69.7157C42.5239 69.7157 42.0508 70.1888 42.0508 70.7723C42.0508 71.3559 42.5239 71.829 43.1074 71.829Z" fill="#3E4095"/>
<path d="M42.8977 72.5459C43.6402 72.449 44.1393 73.1449 44.14 73.837C44.143 75.576 44.1425 77.2945 44.1385 78.9924C44.1375 79.3772 44.0303 79.765 43.8169 80.1558C43.3772 80.9584 42.5047 81.1763 41.6562 81.1794C40.5941 81.1829 39.4733 81.1831 38.2939 81.1801C37.2501 81.1771 36.4167 80.7134 36.0897 79.6831C36.0251 79.4787 35.993 79.1898 35.9935 78.8166C35.9956 76.1958 35.9951 73.6061 35.992 71.0474C35.9913 70.5784 36.2423 70.0516 36.6722 69.8314C37.1148 69.6045 37.6394 69.8066 37.8693 70.2327C38.0046 70.4838 38.0722 70.752 38.0722 71.0376C38.0692 73.3673 38.0697 75.7208 38.0737 78.0981C38.0745 78.4799 38.1579 78.9797 38.6517 78.9969C39.1033 79.0127 39.555 78.9887 40.0097 79.024C40.4718 79.0601 41.0911 79.1209 41.53 78.9804C41.8291 78.8857 41.911 78.4536 41.9125 78.18C41.921 76.7602 41.9213 75.3473 41.9133 73.9415C41.9123 73.7516 41.93 73.5808 41.9666 73.4289C42.0718 72.9946 42.4483 72.6045 42.8977 72.5459Z" fill="#3E4095"/>
<path d="M58.5692 79.1593C58.8282 79.1432 59.0972 79.1447 59.3763 79.1638C59.592 79.1788 59.7851 79.2442 59.9144 79.4261C60.2247 79.8619 60.1564 80.5022 59.7054 80.8186C59.6513 80.8562 59.5479 80.8747 59.3951 80.8742C58.8174 80.8727 58.2162 80.8745 57.5914 80.8795C57.4161 80.881 57.2082 80.8447 56.9677 80.7705C56.9426 80.763 56.9226 80.7485 56.9075 80.7269C56.7628 80.514 56.6904 80.3657 56.6904 80.282C56.6934 78.9413 56.6914 77.6009 56.6843 76.2607C56.6788 75.1474 57.1495 74.3255 58.0964 73.7949C59.7205 72.8856 62.2704 73.314 63.2128 75.0417C63.4871 75.5445 63.5081 76.1848 63.5187 76.7995C63.5302 77.4734 63.5312 78.1923 63.5217 78.9564C63.5212 78.9879 63.5367 79.0037 63.5683 79.0037H64.8766C64.8892 79.0037 64.9016 79.0011 64.9132 78.9961C64.9247 78.991 64.935 78.9836 64.9435 78.9744L65.5974 78.2605C65.6169 78.2389 65.6229 78.2141 65.6154 78.1861C65.3358 77.1151 65.3884 76.1682 65.9694 75.2168C66.3383 74.6118 66.8982 74.1196 67.549 73.8242C68.5313 73.3778 69.775 73.4259 70.7227 73.9708C72.089 74.7569 72.7984 76.326 72.4452 77.8779C72.4392 77.9025 72.4444 77.9245 72.461 77.9441C72.9134 78.4754 73.9106 79.3148 74.6141 78.6836C74.9598 78.3747 75.0717 77.9644 75.0687 77.4954C75.0617 76.5039 75.06 75.5089 75.0635 74.5104C75.0642 74.1151 75.0514 73.7363 75.4182 73.4793C75.8801 73.1561 76.3829 73.1143 76.9265 73.3538C77.3857 73.556 77.4969 73.9715 77.4946 74.433C77.4881 75.6775 77.4874 76.8471 77.4924 77.9418C77.4946 78.4062 77.8441 78.6828 78.2627 78.7933C78.5538 78.8704 78.8564 78.8552 79.1705 78.7474C79.6838 78.5708 79.8281 78.2109 79.8243 77.6916C79.8168 76.5457 79.8158 75.4089 79.8213 74.2812C79.8228 73.9302 79.9626 73.6724 80.2753 73.5139C80.7567 73.2694 81.2284 73.2894 81.6904 73.574C81.9015 73.7048 81.9985 73.9302 81.9985 74.173C81.9955 75.5437 81.996 76.9097 82 78.271C82.0037 79.4892 80.9448 80.249 79.8506 80.5368C78.7459 80.8284 77.5224 80.4662 76.544 79.9213C76.5184 79.9073 76.4934 79.9083 76.4688 79.9243C75.9179 80.2903 75.3701 80.5902 74.7704 80.7202C73.5484 80.9832 72.3813 80.4699 71.511 79.6312C71.4995 79.6201 71.4843 79.6137 71.4683 79.6133C71.4523 79.6128 71.4367 79.6184 71.4246 79.629C70.5013 80.4351 69.4614 80.7322 68.3051 80.5203C67.7004 80.4095 67.1643 80.1445 66.6968 79.7252C66.6876 79.7169 66.6757 79.7122 66.6632 79.7117C66.6507 79.7113 66.6384 79.7153 66.6284 79.7229C66.1485 80.0912 65.6652 80.4594 65.1788 80.8276C65.0675 80.9126 64.9345 80.9178 64.8015 80.9193C64.0359 80.9273 63.1988 80.9291 62.2899 80.9246C61.6541 80.9216 61.4009 80.5428 61.4001 79.9506C61.3991 78.887 61.4011 77.7589 61.4061 76.5665C61.4071 76.2409 61.3671 75.9829 61.2859 75.7925C61.0296 75.1928 60.4389 74.8786 59.8046 74.959C59.0028 75.0612 58.5286 75.7181 58.5196 76.5087C58.511 77.2527 58.5095 78.1194 58.515 79.1089C58.5155 79.145 58.5336 79.1618 58.5692 79.1593ZM68.961 78.9668C69.2079 78.9686 69.4527 78.9195 69.6815 78.8224C69.9104 78.7254 70.1187 78.5823 70.2945 78.4012C70.4704 78.2201 70.6104 78.0047 70.7066 77.7672C70.8027 77.5297 70.8531 77.2748 70.8549 77.017C70.8567 76.7593 70.8099 76.5037 70.717 76.2649C70.6242 76.0261 70.4872 75.8087 70.3139 75.6252C70.1406 75.4417 69.9343 75.2957 69.7069 75.1954C69.4794 75.0952 69.2353 75.0427 68.9884 75.041C68.7415 75.0393 68.4966 75.0883 68.2678 75.1854C68.039 75.2824 67.8307 75.4256 67.6548 75.6066C67.479 75.7877 67.339 76.0031 67.2428 76.2406C67.1466 76.4781 67.0962 76.733 67.0944 76.9908C67.0926 77.2486 67.1395 77.5042 67.2323 77.743C67.3251 77.9818 67.4621 78.1991 67.6354 78.3826C67.8088 78.5661 68.015 78.7122 68.2425 78.8124C68.4699 78.9126 68.714 78.9651 68.961 78.9668Z" fill="#3E4095"/>
<path d="M52.9298 76.0224C52.7193 75.6301 52.2414 75.1687 51.7634 75.1612C51.1161 75.1502 50.4102 75.1492 49.6456 75.1582C49.4738 75.1602 49.3177 75.1371 49.1774 75.0891C48.5927 74.8891 48.3688 74.2256 48.831 73.7641C49.0569 73.5387 49.3167 73.4279 49.6103 73.4319C50.2957 73.441 51.0146 73.441 51.7672 73.4319C52.164 73.4269 52.5031 73.465 52.7847 73.5462C56.008 74.4743 56.247 79.8266 52.9771 80.875C52.6489 80.9802 52.1567 81.0321 51.5004 81.0305C50.7955 81.029 50.1982 81.0245 49.7088 81.017C49.5063 81.014 49.3047 80.9494 49.1038 80.8231C48.4026 80.3835 48.6153 79.4028 49.3631 79.1608C49.5003 79.1162 49.6972 79.0959 49.9538 79.0999C50.5379 79.1079 51.1331 79.1089 51.7394 79.1029C52.3887 79.0961 52.9531 78.5423 53.1252 77.9253C53.3135 77.2499 53.2484 76.6156 52.9298 76.0224Z" fill="#3E4095"/>
<path d="M75.3821 82.6155C75.4362 82.3084 75.6013 82.0804 75.8774 81.9316C76.5447 81.5716 77.3188 81.9827 77.424 82.7297C77.4711 83.0634 77.3814 83.3475 77.1549 83.582C76.5755 84.1817 75.6234 83.9344 75.3656 83.1694C75.3526 83.1308 75.3385 83.1305 75.3235 83.1686C75.1446 83.624 74.8252 83.8735 74.3653 83.9171C73.6431 83.9855 73.0366 83.1934 73.3162 82.4998C73.719 81.4972 75.0672 81.6137 75.3528 82.617C75.3648 82.6586 75.3746 82.6581 75.3821 82.6155Z" fill="#3E4095"/>
<path d="M78.1928 82.9316C78.2317 83.5168 78.7326 83.96 79.3115 83.9216C79.8905 83.8831 80.3283 83.3775 80.2895 82.7924C80.2506 82.2072 79.7497 81.764 79.1708 81.8024C78.5918 81.8409 78.154 82.3465 78.1928 82.9316Z" fill="#3E4095"/>
</svg>
