<svg width="120" height="121" viewBox="0 0 120 121" fill="none" xmlns="http://www.w3.org/2000/svg">
<rect y="0.0556641" width="120" height="120" rx="15.7895" fill="white"/>
<path d="M99.7557 39.0247C99.2128 37.6953 98.306 36.8502 96.9766 36.4245C97.0969 36.1839 97.1586 35.9403 97.2789 35.6997C97.8217 34.3086 98.124 32.7972 98.2474 31.289C98.3677 30.1415 98.488 28.9324 98.6113 27.782C98.673 26.5143 98.491 25.2435 98.1271 24.0344C97.7045 22.5847 96.8594 21.4342 95.6503 20.5274C94.2006 19.4386 92.5073 18.834 90.6936 18.5318C88.3957 18.0475 86.0392 17.9889 83.7444 17.9889C81.6902 17.9889 79.6945 17.9889 77.6989 18.1092C74.4942 18.2295 71.4745 19.016 68.6924 20.7094C67.181 21.6162 66.4562 22.8839 66.4562 24.5772C66.4562 25.9066 66.5765 27.236 66.6968 28.5654C66.9373 30.9219 67.6653 33.1581 68.6924 35.274C68.6924 35.3357 68.7541 35.3943 68.7541 35.456C67.4864 35.456 66.3976 35.82 65.4291 36.6034C65.3674 36.4831 65.3088 36.3628 65.3088 36.3012C64.0411 33.3987 62.7703 30.4993 61.5612 27.5969C61.4409 27.3563 61.3206 27.1126 61.1972 26.8721C60.7747 26.1472 60.1701 25.7246 59.2633 25.7246C58.2948 25.7246 57.5699 26.0269 57.2091 26.9337C56.6662 28.0811 56.1203 29.2316 55.5774 30.4407C54.7323 32.4364 53.884 34.4289 53.0389 36.3628C52.9772 36.4831 52.9772 36.5448 52.9186 36.6651C51.9501 35.8786 50.8644 35.456 49.5936 35.5177C49.8342 34.9132 50.1365 34.3086 50.3801 33.6455C51.1667 31.7115 51.5892 29.7776 51.7712 27.7234C51.8329 26.6962 51.9532 25.6691 51.8915 24.5803C51.8915 23.9758 51.7712 23.4329 51.5892 22.8284C51.3486 22.1035 50.8644 21.499 50.1981 21.0764C47.9619 19.6267 45.4851 18.7199 42.885 18.3559C40.1059 17.992 37.2651 17.992 34.4244 17.992C32.4904 17.992 30.5565 18.0537 28.6226 18.3559C26.8706 18.5965 25.1156 19.0808 23.5456 19.9876C21.3711 21.1967 20.162 23.0103 19.8597 25.4871C19.6191 27.1805 19.7394 28.8122 19.98 30.4438C20.1003 31.1101 20.162 31.7732 20.2206 32.3778C20.2206 32.4394 20.2206 32.5597 20.1589 32.6183C18.8912 33.7071 18.2866 35.2185 17.9227 36.8502V36.9705L17.861 37.0322C17.861 36.9119 17.7993 36.8502 17.7407 36.7299C16.8956 33.3463 15.9271 29.9596 14.9616 26.6376C14.8999 26.3354 14.7797 26.0948 14.6594 25.7925C14.4188 24.9474 13.9345 24.3428 13.2097 23.8586C13.0894 23.7969 13.0277 23.618 13.0277 23.5563V17.8717C13.0277 17.5694 13.148 17.3288 13.512 17.2671C14.1782 17.1468 14.8413 16.9649 15.5076 16.9032C18.4686 16.5392 21.4297 16.1166 24.3907 15.7558C27.833 15.3332 31.3369 14.9723 34.8439 15.0309C36.5372 15.0926 38.2892 15.0309 40.0411 15.0926C43.2458 15.2129 46.3858 15.6972 49.5288 16.422C51.5831 16.9063 53.6373 17.3905 55.6329 17.8131C57.3263 18.177 59.0165 18.1154 60.7099 18.0537C62.6438 17.992 64.5778 17.4491 66.4531 17.0266C68.9916 16.422 71.5301 15.8175 74.0685 15.5152C75.9408 15.2746 77.8747 15.1512 79.7501 15.0926C81.6223 15.0309 83.4976 15.0309 85.3699 15.0926C87.4241 15.1543 89.54 15.3332 91.5943 15.5152C93.8922 15.7558 96.187 16.058 98.4849 16.3603C100.48 16.6009 102.473 16.9649 104.469 17.2054C104.953 17.2671 105.255 17.446 105.437 17.9303C105.557 18.1709 105.557 18.4145 105.557 18.6551V23.7938C104.833 24.1578 104.166 24.7006 103.864 25.4871C103.442 26.6345 103.078 27.8436 102.775 28.9941C101.868 32.2575 100.962 35.5825 99.8143 38.7841C99.876 38.7224 99.876 38.8458 99.7526 39.0247H99.7557Z" fill="url(#paint0_linear_52_18214)"/>
<path d="M32.8483 42.4701H27.7714V37.4548C27.7714 37.0323 27.5308 36.8503 26.9848 36.8503C26.4389 36.8503 26.1983 37.0909 26.1983 37.4548V55.0422C26.1983 55.4648 26.4389 55.6468 26.9848 55.6468C27.4691 55.6468 27.7714 55.4062 27.7714 55.0422V48.8179H32.8483V55.2242C32.8483 56.4333 32.2438 57.3987 31.0964 58.1267C29.949 58.8546 28.5579 59.2155 27.1082 59.2155C22.8178 59.2155 20.7019 57.7041 20.7019 54.6228V38.303C20.7019 35.0397 22.8764 33.3464 27.1082 33.3464C30.9761 33.3464 32.91 34.8577 32.91 37.8188L32.8483 42.4732V42.4701Z" fill="url(#paint1_linear_52_18214)"/>
<path d="M39.0727 58.9718H33.9958V33.5869H39.0727V58.9718Z" fill="url(#paint2_linear_52_18214)"/>
<path d="M47.6567 58.9718V58.1853C47.2927 58.9101 46.207 59.2741 44.3934 59.2741C41.6143 59.2741 40.2849 58.1853 40.2849 56.0694V51.9609C40.2849 51.0541 40.6489 50.2675 41.2534 49.5427C41.9196 48.8765 43.249 47.9727 45.2416 47.0042C46.389 46.3997 46.9935 45.9154 46.9935 45.5545V42.5318C46.9935 41.8656 46.6913 41.5047 46.1484 41.5047C45.4822 41.5047 45.1799 42.3498 45.1799 43.9815C45.1799 44.2837 45.1799 44.7063 45.2416 45.3109C45.3033 45.9154 45.3033 46.338 45.3033 46.6402H40.4669V42.5318C40.4669 39.7527 42.4625 38.3616 46.4507 38.3616C50.1983 38.3616 52.0705 39.8113 52.0705 42.7138L52.1322 58.9718H47.6567ZM47.1138 55.1625V49.845C45.9664 50.1472 45.3619 50.6315 45.3619 51.4149V55.1625C45.3619 55.7671 45.6641 56.131 46.2687 56.131C46.8116 56.0694 47.1138 55.7671 47.1138 55.1625Z" fill="url(#paint3_linear_52_18214)"/>
<path d="M53.2765 50.7518H58.3535V55.1039C58.3535 55.8288 58.6558 56.131 59.1986 56.131C59.7415 56.131 60.0438 55.4648 60.0438 54.1354C60.0438 52.3835 59.6798 51.2947 59.0166 50.7518C56.3579 49.3607 54.7848 48.3953 54.2419 47.8493C53.6991 47.3034 53.3968 46.4583 53.3968 45.3725V42.6521C53.3968 39.7496 55.3307 38.3 59.2603 38.3C63.1899 38.3 64.9418 39.691 64.9418 42.4701V46.52H60.0468L60.1671 44.0432C60.1671 42.3498 59.8649 41.5047 59.1986 41.5047C58.5941 41.5047 58.2301 42.0475 58.2301 43.1363C58.2301 44.2251 58.3504 45.0703 58.6527 45.6748C58.8933 46.2177 60.4663 47.2448 63.2454 48.5773C64.3928 49.4224 64.9973 50.5112 64.9973 51.9023V54.9836C64.9973 57.8861 62.9924 59.3358 59.0136 59.3358C55.0347 59.3358 53.1501 57.9447 53.1501 55.1656L53.2703 50.7549L53.2765 50.7518Z" fill="url(#paint4_linear_52_18214)"/>
<path d="M66.0892 50.7518H71.1662V55.1039C71.1662 55.8288 71.4685 56.131 72.0113 56.131C72.5542 56.131 72.8565 55.4648 72.8565 54.1354C72.8565 52.3835 72.4925 51.2947 71.8294 50.7518C69.1706 49.3607 67.5975 48.3953 67.0547 47.8493C66.5118 47.3034 66.2095 46.4583 66.2095 45.3725V42.6521C66.2095 39.7496 68.1435 38.3 72.073 38.3C76.0026 38.3 77.7545 39.691 77.7545 42.4701V46.52H72.7979L72.9182 44.0432C72.9182 42.3498 72.6159 41.5047 71.9496 41.5047C71.3451 41.5047 70.9811 42.0475 70.9811 43.1363C70.9811 44.2251 71.1014 45.0703 71.4037 45.6748C71.6443 46.2177 73.2174 47.2448 75.9964 48.5773C77.1438 49.4224 77.7484 50.5112 77.7484 51.9023V54.9836C77.7484 57.8861 75.7928 59.3358 71.7646 59.3358C67.7764 59.3358 65.9011 57.9447 65.9011 55.1656V50.7549H66.0831L66.0892 50.7518Z" fill="url(#paint5_linear_52_18214)"/>
<path d="M83.8586 37.3345H78.7817V33.6486H83.8586V37.3345ZM83.8586 58.9718H78.7817V38.4233H83.8586V58.9718Z" fill="url(#paint6_linear_52_18214)"/>
<path d="M96.733 47.5471H91.6561V42.4701C91.6561 41.8039 91.3538 41.443 90.8109 41.443C90.2064 41.443 89.9658 41.8069 89.9658 42.4701V55.0422C89.9658 55.7671 90.2681 56.0694 90.8109 56.0694C91.3538 56.0694 91.6561 55.7054 91.6561 55.0422V50.0856H96.733V55.1008C96.733 57.8799 94.7991 59.271 90.9312 59.271C87.0634 59.271 84.9474 57.8213 84.9474 54.9189V42.649C84.9474 39.7002 86.9431 38.2969 90.9312 38.2969C94.9194 38.2969 96.733 39.6879 96.733 42.467V47.5471Z" fill="url(#paint7_linear_52_18214)"/>
<path d="M21.3064 82.2993V65.9796C21.3064 62.7163 23.4223 61.0229 27.7128 61.0229C32.0032 61.0229 33.9988 62.6546 33.9988 65.9179V82.2376C33.9988 83.6873 33.3943 84.8378 32.2469 85.6213C31.0995 86.4047 29.5264 86.8304 27.6542 86.8304C23.4223 86.8921 21.3095 85.3807 21.3095 82.2963L21.3064 82.2993ZM28.6196 82.6016V65.3165C28.6196 64.8322 28.3173 64.5916 27.7128 64.5916C27.1082 64.5916 26.7443 64.8322 26.7443 65.3165V82.6016C26.7443 83.0859 27.0465 83.3264 27.7128 83.3264C28.3173 83.3264 28.6196 83.0859 28.6196 82.6016Z" fill="url(#paint8_linear_52_18214)"/>
<path d="M40.1615 86.2289V91.0653H35.0846V66.2233H38.8907L39.3133 67.0684C40.1584 66.4022 41.127 66.0999 42.2744 66.0999C43.4218 66.0999 44.4489 66.4022 45.4791 66.945C46.4476 67.5496 46.9288 68.3361 46.9288 69.4218V84.1685C46.9288 85.0136 46.5648 85.7385 45.84 86.2227C45.1151 86.707 44.27 87.0093 43.2398 87.0093C41.8487 87.0093 40.8216 86.7687 40.1584 86.2227L40.1615 86.2289ZM41.9135 82.9039V70.2115C41.9135 69.6069 41.6112 69.2429 41.0683 69.2429C40.4638 69.2429 40.1615 69.5452 40.1615 70.2115V82.9656C40.1615 83.5701 40.4638 83.8724 41.0683 83.8724C41.6112 83.8107 41.9135 83.5084 41.9135 82.9039Z" fill="url(#paint9_linear_52_18214)"/>
<path d="M57.9926 86.6515H54.7879C52.49 86.6515 51.1606 86.2875 50.6794 85.6244C50.1952 84.9581 50.0132 83.6287 50.0132 81.6948V69.1843H47.777V66.1616H50.0132V61.9915H55.0902V66.0999H57.8106V69.1227H55.0902V81.6331C55.0902 82.2376 55.2721 82.6602 55.633 82.8422C55.997 83.0828 56.7804 83.1445 57.9895 83.1445V86.6515H57.9926Z" fill="url(#paint10_linear_52_18214)"/>
<path d="M63.9147 65.0142H58.8377V61.3283H63.9147V65.0142ZM63.9147 86.6515H58.8377V66.103H63.9147V86.6515Z" fill="url(#paint11_linear_52_18214)"/>
<path d="M76.7274 75.2298H71.6505V70.1529C71.6505 69.4866 71.3482 69.1257 70.8053 69.1257C70.2008 69.1257 69.9602 69.4897 69.9602 70.1529V82.725C69.9602 83.4498 70.2625 83.7521 70.8053 83.7521C71.3482 83.7521 71.6505 83.3881 71.6505 82.725V77.7683H76.7274V82.7836C76.7274 85.5627 74.7935 86.9537 70.9256 86.9537C67.0577 86.9537 64.9418 85.5041 64.9418 82.6016V70.3317C64.9418 67.4293 67.0022 65.9796 70.9256 65.9796C74.9138 65.9796 76.7274 67.3707 76.7274 70.1498V75.2298Z" fill="url(#paint12_linear_52_18214)"/>
<path d="M85.2497 86.6515V85.8649C84.8857 86.5898 83.8 86.9537 81.9864 86.9537C79.2073 86.9537 77.8779 85.8649 77.8779 83.749V79.6406C77.8779 78.7337 78.2419 77.9472 78.8464 77.2224C79.5127 76.5561 80.8421 75.6524 82.8346 74.6839C83.982 74.0793 84.5865 73.5951 84.5865 73.2342V70.2115C84.5865 69.5452 84.2843 69.1843 83.7414 69.1843C83.0752 69.1843 82.7729 70.0295 82.7729 71.6611C82.7729 71.9634 82.7729 72.386 82.8346 72.9905C82.8963 73.5951 82.8963 74.0176 82.8963 74.3199H78.0599V70.2115C78.0599 67.4324 80.0555 66.0413 84.0437 66.0413C87.7913 66.0413 89.6635 67.491 89.6635 70.3934V86.6515H89.7252H85.2497ZM84.7068 82.7836V77.466C83.5594 77.7683 82.9549 78.2526 82.9549 79.036V82.7836C82.9549 83.3881 83.2572 83.7521 83.8617 83.7521C84.4046 83.7521 84.7068 83.4498 84.7068 82.7836Z" fill="url(#paint13_linear_52_18214)"/>
<path d="M95.9465 86.6515H90.8695V61.3283H95.9465V86.6515Z" fill="url(#paint14_linear_52_18214)"/>
<path d="M107.036 95.3808C103.974 96.9876 99.2541 98.7637 95.6225 98.7637C93.7419 98.7637 92.1315 97.8703 90.0672 96.8183C87.2643 95.3916 86.7419 97.9892 83.6796 96.3319C82.0259 95.4349 80.3002 96.458 78.5097 96.5337C76.2256 96.6274 76.0094 94.9449 74.5143 95.4997C70.6666 96.9264 66.9847 96.8831 66.8225 94.9233C66.8009 94.6459 66.9955 94.3252 66.3902 94.3901C64.7906 94.5594 62.7803 97.2038 61.6383 96.9552C60.5755 96.721 62.6254 94.9485 63.2667 94.3901C66.5163 91.5547 70.2991 88.4925 74.0279 86.8208C75.1484 86.32 74.0748 87.4729 73.5416 87.7251C70.8035 89.0076 67.0135 91.6124 64.6537 94.3216C64.7222 94.4621 64.8627 94.3216 64.9311 94.3216C69.6543 92.5167 66.8586 95.1502 68.7176 95.7231C69.2832 95.896 69.4994 95.6906 69.9101 95.4168C70.8143 94.808 72.9579 93.4714 74.1648 94.3901C75.2132 95.1863 75.9086 94.563 76.6147 95.1971C76.9569 95.5069 77.2524 95.7123 78.4016 95.7771C80.2858 95.8816 82.4439 95.0025 83.957 95.8456C85.3584 96.6273 85.589 96.2166 87.43 95.6366C88.8891 95.1791 91.4002 96.984 93.1943 97.5821C96.725 98.7565 99.3549 97.8919 103.887 96.123C105.613 95.4493 108.675 93.5543 109.007 93.9289C109.338 94.3036 108.124 94.8116 107.036 95.3808ZM72.8499 95.0133C72.7958 94.7359 72.3203 94.8044 71.8087 94.9593C71.2971 95.1142 70.854 95.3448 70.9729 95.6366C71.0917 95.9284 72.9111 95.3196 72.8499 95.0133Z" fill="#E34B55"/>
<path d="M60.489 94.4081C56.9728 97.9712 55.2291 99.6428 53.4709 105.915C53.1431 107.09 53.1575 108.931 53.5394 109.943C55.1246 108.801 55.3191 111.031 53.9177 111.777C52.5162 112.522 52.1487 111.042 52.0118 110.011C51.6912 107.644 52.5018 104.402 53.6078 102.233C55.8235 97.8955 58.2013 95.3988 63.3279 91.3998C63.4936 91.2701 63.6918 91.1657 63.8143 91.2593C63.9368 91.353 61.9913 92.8769 60.4854 94.4045L60.489 94.4081Z" fill="#E34B55"/>
<path d="M50.4122 95.6366C51.9434 95.1863 52.0191 93.7416 53.6943 93.5867C53.9357 93.5651 54.0762 93.6479 53.9573 93.8353C53.6763 94.2712 52.6531 94.4801 52.7756 94.9449C52.8621 95.2691 53.3124 94.9845 53.6078 94.8044C54.2743 94.4081 54.5337 93.5507 55.4128 93.6227C55.8055 93.6551 55.7803 93.8857 55.6902 94.0406C55.3515 94.6098 55.0669 95.1502 55.6902 95.0133C57.0088 94.5954 57.578 93.5434 58.3274 91.9583C58.4355 91.7277 58.6048 91.353 59.1596 91.6808C60.0999 92.2357 57.769 94.3108 57.2141 94.8044C56.8034 95.1719 56.5945 95.5033 54.8544 95.3592C52.8477 95.1935 52.455 96.0509 50.686 96.0797C49.9403 96.0906 49.2089 95.7627 48.546 96.3139C48.0056 96.7643 48.719 97.5532 47.1446 96.9588C46.4529 96.6994 44.8461 97.3695 43.65 96.721C42.5944 96.1482 43.7184 94.8512 44.6623 94.282C46.8131 92.9814 49.1225 92.9382 50.0628 93.7668C50.7689 94.3865 49.7818 95.2547 49.7854 95.4349C49.7854 95.6618 50.0087 95.7591 50.405 95.6402L50.4122 95.6366ZM45.3468 96.2923C46.7591 96.1806 47.6922 95.9789 48.8919 95.1322C49.4251 94.7576 49.3963 94.1199 48.7874 94.0658C46.4349 93.8569 45.264 94.6026 44.5362 95.2403C43.9922 95.7159 44.1832 96.386 45.3468 96.2923Z" fill="#E34B55"/>
<path d="M35.5583 97.9279C34.9495 97.9784 34.2866 98.2269 33.1769 98.7025C30.6406 99.7833 25.2834 102.168 21.4609 102.997C18.1248 103.717 12.1227 104.305 11.2833 102.352C10.5556 100.659 12.937 99.5888 16.0461 98.9007C20.5314 97.9063 23.3416 97.9063 32.0853 97.5821C35.461 97.456 40.3067 94.6747 42.0143 90.6397C42.1837 90.2362 42.9979 88.424 40.8399 86.8244C39.4132 85.7652 37.5182 85.5887 34.9314 86.1291C31.3071 86.882 28.0971 88.6185 26.9443 89.739C26.6308 90.0416 25.9679 90.3046 25.7626 90.0164C25.5572 89.7282 26.0724 89.5264 26.5263 89.2526C27.5855 88.6186 38.0622 82.7642 41.8738 86.6154C45.8152 90.5964 39.3808 95.1358 37.6839 96.1086C36.7976 96.6165 36.2212 96.7066 36.3185 97.2074C36.4734 97.9892 44.0247 97.1894 44.0247 97.8631C44.0247 98.5368 38.2387 97.7046 35.5547 97.9315L35.5583 97.9279ZM33.058 98.1369C33.058 98.1369 25.8923 97.9748 16.5324 99.3186C15.0698 99.5275 12.9622 100.302 12.3245 101.055C11.6868 101.808 12.3389 102.457 13.2 102.792C15.2463 103.588 20.7476 102.705 24.2747 101.531C29.1959 99.8914 33.058 98.1369 33.058 98.1369Z" fill="#E34B55"/>
<path d="M83.6117 96.4573L83.6116 96.4573C82.8273 96.0318 82.0217 96.0573 81.1709 96.2084C80.8904 96.2583 80.6106 96.3205 80.3257 96.384C80.1754 96.4174 80.0238 96.4512 79.8697 96.4836C79.4279 96.5767 78.9752 96.6567 78.5157 96.6761L78.5155 96.6761C77.3287 96.7248 76.6727 96.3079 76.1389 95.9636L76.1372 95.9625C75.8704 95.7904 75.6501 95.6484 75.4079 95.5772C75.1736 95.5083 74.9113 95.5045 74.5639 95.6334L74.5639 95.6334C72.6285 96.351 70.7259 96.7027 69.2786 96.6238C68.5557 96.5844 67.9341 96.437 67.4782 96.163C67.0167 95.8855 66.7253 95.4771 66.6805 94.935L66.6804 94.9344C66.6747 94.8612 66.6814 94.7859 66.6867 94.7269C66.6875 94.7182 66.6882 94.7098 66.6889 94.7018C66.6949 94.6307 66.6949 94.5916 66.6879 94.5666L66.6878 94.5663C66.6848 94.5556 66.6831 94.5492 66.6599 94.5405C66.6241 94.527 66.5496 94.5164 66.4054 94.5318L66.4052 94.5319C66.0376 94.5708 65.6342 94.7541 65.2087 95.0184C64.7966 95.2744 64.3778 95.597 63.965 95.9151L63.9297 95.9423C63.509 96.2664 63.0927 96.5853 62.7088 96.8066C62.3307 97.0245 61.9495 97.1689 61.6079 97.0945L61.6076 97.0944C61.4537 97.0605 61.3276 96.9925 61.2554 96.8755C61.1833 96.7585 61.1843 96.6238 61.216 96.4991C61.2775 96.2565 61.4743 95.9737 61.7047 95.702C62.1621 95.1626 62.8234 94.5869 63.1507 94.302L63.1729 94.2826C66.4224 91.4475 70.2194 88.372 73.9696 86.6907L73.9698 86.6906C74.1135 86.6264 74.2301 86.5849 74.3217 86.5659C74.3674 86.5564 74.4129 86.5513 74.4555 86.5545C74.4974 86.5576 74.5489 86.5699 74.5924 86.6071C74.6916 86.692 74.6611 86.8149 74.6408 86.8698C74.6159 86.9369 74.5702 87.0085 74.5185 87.0767C74.413 87.2158 74.256 87.3752 74.0929 87.5152C73.9309 87.6543 73.7526 87.783 73.6025 87.854L73.6021 87.8542C70.9713 89.0865 67.3612 91.5487 65.0053 94.141C66.1129 93.7244 66.8105 93.5539 67.2546 93.556C67.4881 93.5571 67.6684 93.6058 67.8013 93.7077C67.9356 93.8106 68.0014 93.9523 68.0369 94.0967C68.0696 94.2302 68.0795 94.3797 68.0887 94.5194L68.0902 94.5426C68.1003 94.6944 68.1112 94.8389 68.1444 94.9748C68.1771 95.1085 68.2301 95.2279 68.321 95.3291C68.4115 95.4299 68.5473 95.5214 68.7594 95.5868C69.0192 95.6662 69.1822 95.6547 69.3232 95.6035C69.4478 95.5582 69.5597 95.4821 69.7117 95.3787C69.7488 95.3535 69.7882 95.3267 69.8308 95.2983C70.2845 94.9929 71.0581 94.4985 71.8746 94.1969C72.6821 93.8986 73.585 93.7696 74.2511 94.2765C74.742 94.6494 75.1442 94.6897 75.5264 94.712C75.5492 94.7134 75.572 94.7146 75.5949 94.7159C75.9597 94.736 76.3377 94.7568 76.7099 95.091L76.7104 95.0914C76.8763 95.2416 77.0201 95.3566 77.2558 95.4456C77.4964 95.5363 77.8409 95.6027 78.4097 95.6348C79.086 95.6722 79.7936 95.581 80.5081 95.4888C80.7727 95.4547 81.0383 95.4205 81.3036 95.3926C82.2695 95.2911 83.2276 95.276 84.0264 95.721L84.0264 95.721C84.7136 96.1044 85.0875 96.181 85.5051 96.1111C85.7226 96.0748 85.9568 95.9977 86.2598 95.8896C86.3162 95.8695 86.3748 95.8484 86.4358 95.8264C86.7001 95.7311 87.0106 95.6193 87.3871 95.5006L87.3873 95.5006C87.7876 95.3751 88.2475 95.4079 88.7277 95.5249C89.2092 95.6423 89.7255 95.848 90.2454 96.0836C90.6017 96.2451 90.9642 96.4228 91.3205 96.5974C91.4833 96.6772 91.6449 96.7563 91.8038 96.833C92.3139 97.079 92.8002 97.3004 93.2394 97.4468C96.716 98.6033 99.3009 97.7599 103.835 95.9902C104.485 95.7364 105.327 95.3076 106.146 94.8903C106.404 94.7589 106.659 94.6286 106.906 94.5053C107.417 94.2498 107.891 94.0239 108.259 93.8855C108.443 93.8166 108.608 93.7664 108.742 93.7469C108.809 93.7372 108.875 93.734 108.936 93.7436C108.997 93.7533 109.063 93.778 109.113 93.8345C109.176 93.9055 109.211 93.991 109.204 94.0856C109.198 94.1748 109.156 94.254 109.104 94.3209C109.003 94.4522 108.829 94.58 108.628 94.7034C108.354 94.8722 107.994 95.0538 107.624 95.2407C107.45 95.3286 107.273 95.4176 107.102 95.5071C107.102 95.5071 107.102 95.5071 107.102 95.5072L107.036 95.3808C103.974 96.9876 99.2541 98.7637 95.6225 98.7637C93.8676 98.7637 92.3479 97.9857 90.4751 97.0268L90.4725 97.0255L90.4693 97.0239L90.4645 97.0214C90.3338 96.9545 90.2015 96.8867 90.0672 96.8183L83.6117 96.4573ZM83.6117 96.4573C84.3932 96.8803 85.0221 97.0366 85.5722 97.049C86.1204 97.0614 86.5794 96.9302 87.0123 96.7979C87.0387 96.7899 87.065 96.7818 87.0911 96.7738C87.498 96.649 87.882 96.5312 88.3222 96.516C88.786 96.4999 89.3204 96.5982 90.0025 96.9454L83.6117 96.4573ZM66.3902 94.3901C65.6024 94.4735 64.7148 95.1573 63.8805 95.8002C63.0209 96.4625 62.2178 97.0813 61.6383 96.9552C60.5865 96.7234 62.5831 94.9852 63.2462 94.4079L63.2463 94.4078L63.2463 94.4078L63.2667 94.3901C66.5163 91.5547 70.2991 88.4925 74.0279 86.8208C75.1484 86.32 74.0748 87.4729 73.5416 87.7251C70.8035 89.0076 67.0135 91.6124 64.6537 94.3216M66.3902 94.3901L64.8973 94.1819C64.8809 94.1847 64.8669 94.1888 64.8566 94.1924C64.8387 94.1984 64.8218 94.2059 64.8089 94.2118C64.8011 94.2154 64.7944 94.2186 64.7883 94.2214C64.7707 94.2297 64.7593 94.235 64.747 94.2392C64.7309 94.2446 64.7375 94.2388 64.7542 94.2435C64.7698 94.2477 64.7782 94.256 64.7814 94.2594L64.6537 94.3216M66.3902 94.3901C66.8641 94.3393 66.8477 94.5248 66.8286 94.7409C66.8233 94.8008 66.8179 94.8631 66.8225 94.9233C66.9847 96.8831 70.6666 96.9264 74.5143 95.4997L66.3902 94.3901ZM64.6537 94.3216C64.6726 94.3603 64.6969 94.3777 64.7237 94.3826L64.6537 94.3216ZM64.9047 94.2526C64.8692 94.2924 64.834 94.3322 64.7991 94.372C64.8176 94.3653 64.836 94.3566 64.8535 94.3484C64.8833 94.3344 64.9105 94.3216 64.9311 94.3216M64.9047 94.2526L83.957 95.8456C82.9984 95.3115 81.7811 95.4685 80.5385 95.6288C79.8196 95.7216 79.0922 95.8154 78.4016 95.7771C77.2524 95.7123 76.9569 95.5069 76.6147 95.1971C76.2806 94.8971 75.949 94.8785 75.5812 94.858C75.1716 94.835 74.7172 94.8096 74.1648 94.3901C72.9579 93.4714 70.8143 94.808 69.9101 95.4168C69.8714 95.4426 69.8344 95.4678 69.7987 95.4921C69.4555 95.726 69.2299 95.8797 68.7176 95.7231C68.0109 95.5053 67.9768 94.9898 67.9467 94.5335C67.8976 93.7894 67.8588 93.2028 64.9311 94.3216M64.9047 94.2526L64.9311 94.3216M64.9047 94.2526L64.9311 94.2232V94.3216M60.6899 94.4075L60.5905 94.5082C60.5197 94.58 60.4496 94.651 60.3802 94.7212C58.725 96.3976 57.4818 97.6567 56.4394 99.2246C55.3551 100.855 54.4848 102.826 53.6082 105.954C53.4489 106.524 53.3714 107.264 53.3816 107.988C53.3907 108.631 53.469 109.251 53.6142 109.721C53.957 109.508 54.2574 109.438 54.502 109.505C54.7948 109.586 54.9491 109.844 54.9897 110.132C55.07 110.701 54.7365 111.503 53.9846 111.903C53.6158 112.099 53.2952 112.159 53.018 112.1C52.7394 112.04 52.53 111.865 52.3738 111.642C52.0675 111.205 51.9389 110.545 51.8705 110.03C51.5449 107.626 52.3662 104.354 53.4808 102.168L53.4809 102.168C55.7097 97.8049 58.1051 95.293 63.2402 91.2874M60.6899 94.4075L63.3279 91.3998M60.6899 94.4075L60.6865 94.4042M60.6899 94.4075L60.6865 94.4042M63.2402 91.2874L63.3279 91.3998M63.2402 91.2874C63.2402 91.2875 63.2401 91.2875 63.24 91.2876L63.3279 91.3998M63.2402 91.2874C63.328 91.2188 63.4329 91.1497 63.5393 91.1116C63.6434 91.0743 63.783 91.0559 63.9009 91.1461L63.8143 91.2593M63.3279 91.3998C63.4936 91.2701 63.6918 91.1657 63.8143 91.2593M63.8143 91.2593L63.9009 91.1461C63.9484 91.1824 63.9633 91.2347 63.9623 91.2756C63.9615 91.3102 63.9501 91.3383 63.9425 91.3543C63.9267 91.3877 63.9019 91.4208 63.878 91.4497C63.8279 91.5102 63.7508 91.5882 63.656 91.6787C63.4649 91.8608 63.1838 92.1099 62.855 92.401L62.8372 92.4167C62.2089 92.9729 61.4044 93.685 60.6865 94.4042M63.8143 91.2593L60.6865 94.4042M50.3598 95.5034L50.372 95.4998C51.0373 95.3041 51.4089 94.9139 51.7955 94.5077C51.829 94.4726 51.8625 94.4373 51.8964 94.4021C52.3233 93.9577 52.7915 93.527 53.6812 93.4447L53.6816 93.4447C53.7504 93.4385 53.8172 93.4392 53.8777 93.4495C53.9367 93.4594 54 93.4802 54.0514 93.5224C54.1076 93.5686 54.1424 93.6351 54.1429 93.7134C54.1434 93.7849 54.1153 93.8523 54.0777 93.9117L54.0771 93.9125C53.9903 94.0472 53.853 94.1554 53.7154 94.2462C53.623 94.3072 53.5196 94.367 53.4221 94.4234C53.3756 94.4503 53.3304 94.4765 53.2883 94.5016C53.1505 94.584 53.0421 94.658 52.9748 94.7324C52.9119 94.8019 52.8993 94.854 52.9134 94.9082C52.9232 94.945 52.9338 94.9468 52.9374 94.9474C52.9377 94.9474 52.9379 94.9475 52.9381 94.9475C52.9561 94.9524 52.9968 94.9522 53.0685 94.9284C53.2048 94.8833 53.3682 94.7836 53.5174 94.6925L53.5336 94.6827L53.535 94.6818C53.6861 94.592 53.8172 94.4742 53.9454 94.3428C54.0022 94.2847 54.0572 94.2252 54.1133 94.1645L54.1354 94.1405C54.1986 94.0722 54.2634 94.0027 54.3304 93.9365C54.6014 93.6688 54.9248 93.4396 55.4244 93.4806L55.4245 93.4806C55.6422 93.4986 55.8044 93.5773 55.8654 93.7341C55.9208 93.8764 55.8658 94.0223 55.8135 94.1123L55.8127 94.1135C55.7283 94.2555 55.6492 94.3923 55.5871 94.516C55.5239 94.6419 55.4836 94.7439 55.4696 94.8181C55.462 94.8586 55.4641 94.8776 55.4663 94.8851C55.4713 94.8871 55.4829 94.8906 55.5051 94.8918C55.538 94.8936 55.5861 94.8898 55.6534 94.8754C56.9005 94.4774 57.4468 93.4873 58.1983 91.8977C58.2005 91.8929 58.2029 91.8879 58.2053 91.8827C58.2558 91.7745 58.3401 91.5936 58.4982 91.4907C58.6858 91.3685 58.9286 91.3787 59.2321 91.5581M50.3598 95.5034L54.8426 95.5013C55.7182 95.5738 56.2296 95.5291 56.5793 95.4084C56.8831 95.3036 57.0583 95.1417 57.2253 94.9873C57.2532 94.9615 57.2809 94.936 57.3089 94.9109M50.3598 95.5034L50.3525 95.5071C50.1731 95.5593 50.057 95.5554 49.9948 95.533C49.9657 95.5226 49.9514 95.5094 49.9437 95.4982C49.9367 95.4882 49.9298 95.4721 49.9283 95.4458C49.9317 95.4382 49.9377 95.4266 49.9475 95.4101C49.9698 95.373 50.0021 95.3264 50.0435 95.2668L50.0472 95.2615C50.127 95.1469 50.232 94.996 50.3151 94.8293C50.3992 94.6607 50.4675 94.4633 50.4593 94.2579C50.4509 94.0459 50.3615 93.8392 50.1568 93.6596C49.6457 93.2094 48.7879 93.0126 47.8062 93.0837C46.8187 93.1553 45.6821 93.4987 44.5887 94.1599C44.1026 94.453 43.565 94.9354 43.2826 95.4294C43.1414 95.6762 43.0546 95.9424 43.0888 96.1973C43.1242 96.4614 43.2857 96.6856 43.582 96.8463L43.582 96.8464C44.2199 97.1922 44.9582 97.1821 45.5985 97.1279C45.7379 97.1161 45.87 97.1025 45.9962 97.0895C46.1684 97.0717 46.3297 97.0551 46.4836 97.0457C46.7485 97.0296 46.9519 97.0389 47.0942 97.0922M50.3598 95.5034L54.8426 95.5013C53.8659 95.4206 53.2869 95.5878 52.7277 95.7813C52.6734 95.8001 52.6191 95.8191 52.5646 95.8383C52.0501 96.0195 51.512 96.2089 50.6884 96.2223L50.6881 96.2223C50.4918 96.2252 50.2984 96.2057 50.1144 96.1851C50.0914 96.1825 50.0686 96.1799 50.0459 96.1773C49.8846 96.159 49.7315 96.1416 49.5803 96.1367C49.2417 96.1256 48.9325 96.1781 48.6373 96.4235C48.5333 96.5102 48.4878 96.6127 48.4584 96.7246C48.4473 96.7664 48.4394 96.8055 48.431 96.8472C48.4274 96.8649 48.4238 96.8831 48.4197 96.9022C48.4072 96.961 48.3911 97.0285 48.3616 97.0898C48.3305 97.1546 48.283 97.2163 48.2074 97.2589C48.1339 97.3004 48.047 97.3163 47.9495 97.3147C47.7597 97.3117 47.489 97.2412 47.0942 97.0922M59.2321 91.5581L59.1596 91.6808M59.2321 91.5581C59.2321 91.5581 59.2321 91.5581 59.2321 91.5581L59.1596 91.6808M59.2321 91.5581C59.3808 91.6459 59.4733 91.7706 59.5078 91.9225C59.5409 92.0686 59.5175 92.2256 59.4654 92.3793C59.3618 92.6851 59.1272 93.0284 58.8577 93.3562C58.3151 94.0158 57.5855 94.6648 57.3089 94.9109M59.1596 91.6808C58.6096 91.3559 58.4384 91.7212 58.3302 91.9522L58.3274 91.9583L57.2141 94.8044M59.1596 91.6808C60.0999 92.2357 57.769 94.3108 57.2141 94.8044M57.3089 94.9109L57.2141 94.8044M57.3089 94.9109C57.309 94.9108 57.3091 94.9107 57.3092 94.9106L57.2141 94.8044M47.0942 97.0922L47.1446 96.9588M47.0942 97.0922C47.0943 97.0922 47.0944 97.0923 47.0945 97.0923L47.1446 96.9588M47.1446 96.9588C46.8709 96.8562 46.4541 96.899 45.9761 96.9482C45.2458 97.0232 44.3729 97.113 43.65 96.721L50.686 96.0797C50.4766 96.0828 50.2683 96.0591 50.0623 96.0357C49.5349 95.9757 49.0228 95.9175 48.546 96.3139C48.3623 96.467 48.3235 96.6592 48.2904 96.823C48.2262 97.1408 48.1838 97.3512 47.1446 96.9588ZM32.08 97.4396C31.1406 97.4744 30.2695 97.5055 29.4573 97.5345C22.7152 97.7751 20.0324 97.8709 16.0152 98.7615C14.4576 99.1062 13.0646 99.5499 12.1496 100.129C11.6917 100.419 11.3407 100.75 11.155 101.133C10.9661 101.522 10.9553 101.95 11.1523 102.408L11.1523 102.408C11.3883 102.957 11.9745 103.303 12.7196 103.515C13.4704 103.728 14.4184 103.816 15.4354 103.82C17.4708 103.827 19.816 103.498 21.491 103.136L21.4911 103.136C24.9712 102.382 29.7115 100.346 32.4518 99.1684C32.7346 99.0469 32.9962 98.9345 33.2328 98.8337L33.2331 98.8336C34.2576 98.3945 34.8828 98.1577 35.4295 98.0852L35.5667 98.0736C36.7057 97.9773 38.4128 98.0737 40.0041 98.1636C40.2699 98.1786 40.5324 98.1935 40.7886 98.2072C41.6787 98.2549 42.492 98.2891 43.0836 98.2686C43.3779 98.2584 43.6273 98.2344 43.8064 98.1882C43.8951 98.1653 43.9783 98.1341 44.0423 98.0881C44.1093 98.0399 44.1672 97.9653 44.1672 97.8631C44.1672 97.7432 44.0811 97.6694 44.0101 97.6292C43.9358 97.5872 43.8378 97.5572 43.7296 97.5341C43.5107 97.4874 43.2053 97.46 42.8488 97.4439C42.1878 97.4142 41.3232 97.4226 40.4448 97.4311C40.3727 97.4318 40.3005 97.4325 40.2283 97.4332C39.2734 97.4422 38.3204 97.4477 37.5968 97.4026C37.234 97.38 36.9366 97.3451 36.728 97.2939C36.6231 97.2682 36.5492 97.2403 36.5024 97.213C36.4691 97.1936 36.4598 97.1807 36.4579 97.1775C36.4403 97.084 36.4549 97.0229 36.4871 96.9714C36.5237 96.9128 36.5916 96.8528 36.7068 96.7823C36.8165 96.7151 36.9543 96.6469 37.1235 96.5632L37.1462 96.5519C37.3236 96.4641 37.5292 96.3616 37.7548 96.2323L37.6839 96.1086L37.7548 96.2323C38.6111 95.7414 40.6624 94.3519 42.0069 92.5762C42.6795 91.6878 43.1844 90.6908 43.2627 89.6522C43.3416 88.6064 42.9866 87.5368 41.9752 86.5151C40.9843 85.514 39.5698 85.1536 38.0151 85.171C36.4597 85.1884 34.744 85.5837 33.1234 86.1166C29.8816 87.1826 26.9875 88.8104 26.4531 89.1303L26.4527 89.1305C26.3738 89.1781 26.2941 89.2229 26.2145 89.2675C26.1817 89.286 26.1489 89.3044 26.1162 89.323C26.0071 89.385 25.8994 89.4488 25.8113 89.5153C25.7261 89.5796 25.6413 89.6594 25.5998 89.7592C25.5523 89.8734 25.5699 89.9917 25.6464 90.0991C25.7277 90.2131 25.85 90.2645 25.9733 90.2788C26.0947 90.2929 26.2269 90.273 26.353 90.2361C26.6045 90.1624 26.8691 90.0097 27.0433 89.8416L27.0436 89.8412C27.6041 89.2965 28.6791 88.5902 30.0725 87.9249C31.4631 87.2609 33.1608 86.6426 34.9604 86.2687L34.9606 86.2686C37.5314 85.7316 39.3764 85.9155 40.7549 86.9389L40.755 86.939C41.8023 87.7153 42.1154 88.5306 42.1576 89.1897C42.1989 89.8348 41.9823 90.3485 41.8917 90.5635C41.8886 90.5708 41.8857 90.5777 41.883 90.5843C41.0428 92.5692 39.427 94.2532 37.597 95.4576C35.766 96.6626 33.7356 97.3777 32.08 97.4396ZM32.08 97.4396L32.0853 97.5821L32.08 97.4396C32.08 97.4396 32.08 97.4396 32.08 97.4396ZM49.9279 95.432C49.9279 95.433 49.928 95.4339 49.928 95.4349L49.9279 95.432ZM55.4682 94.8892C55.4681 94.8893 55.4675 94.8887 55.4669 94.8869C55.4679 94.8882 55.4683 94.8891 55.4682 94.8892ZM45.3356 96.1502L45.3354 96.1502C44.7672 96.1959 44.506 96.0484 44.4244 95.9081C44.3496 95.7795 44.3809 95.5655 44.6301 95.3477L44.6302 95.3475C44.9853 95.0364 45.4446 94.7021 46.1001 94.47C46.756 94.2377 47.616 94.1049 48.7748 94.2078C48.9026 94.2192 48.987 94.2598 49.0393 94.3077C49.0909 94.355 49.1201 94.417 49.1258 94.4899C49.1375 94.6392 49.0477 94.8485 48.8099 95.0156L48.8097 95.0157C47.6384 95.8423 46.7334 96.0396 45.3356 96.1502ZM16.5526 99.4597L16.5527 99.4597C21.2269 98.7886 25.3535 98.4935 28.3113 98.3662C29.7901 98.3026 30.9766 98.2809 31.7931 98.2751C32.0242 98.2735 32.2256 98.2731 32.3956 98.2734C32.3714 98.2839 32.3466 98.2947 32.321 98.3058C31.8829 98.4955 31.2473 98.7657 30.4581 99.087C28.8794 99.7297 26.6866 100.577 24.2296 101.395C22.4753 101.98 20.2273 102.492 18.1637 102.759C17.1322 102.892 16.1494 102.964 15.2995 102.953C14.4465 102.942 13.7393 102.848 13.2517 102.659C12.8328 102.496 12.4875 102.264 12.3203 102.003C12.2387 101.876 12.2013 101.745 12.2132 101.609C12.2251 101.473 12.2881 101.319 12.4333 101.147C12.5777 100.977 12.8132 100.797 13.1174 100.618C13.4198 100.441 13.7818 100.27 14.1718 100.115C14.9523 99.805 15.834 99.5624 16.5526 99.4597ZM71.85 95.0958C72.1033 95.0191 72.3339 94.9684 72.5022 94.9668C72.5868 94.966 72.6413 94.9779 72.6724 94.9935C72.6895 95.0021 72.699 95.0109 72.7047 95.0233C72.7013 95.0277 72.6965 95.0334 72.6894 95.0406C72.6583 95.0726 72.6044 95.1128 72.5273 95.1578C72.3747 95.2468 72.1592 95.3389 71.9338 95.414C71.7084 95.4891 71.482 95.5444 71.3091 95.5637C71.2215 95.5735 71.1563 95.573 71.1147 95.5657C71.1079 95.5645 71.1025 95.5633 71.0983 95.5622C71.093 95.5384 71.0967 95.5173 71.1087 95.4937C71.1269 95.4576 71.1665 95.4128 71.2369 95.3629C71.3776 95.263 71.5984 95.172 71.85 95.0958ZM72.7112 95.0132C72.7113 95.0132 72.7111 95.0137 72.7107 95.0145L72.7112 95.0132ZM71.0853 95.5576C71.0854 95.5576 71.0861 95.5579 71.0871 95.5586C71.0858 95.558 71.0853 95.5576 71.0853 95.5576Z" stroke="#E34B55" stroke-width="0.285161"/>
<rect x="41.8832" y="101.26" width="34.8554" height="7.00983" rx="1.75246" fill="white"/>
<path d="M46.0144 106.363C46.0144 106.289 45.9959 106.222 45.959 106.163C45.922 106.101 45.8512 106.046 45.7464 105.996C45.6437 105.947 45.4918 105.902 45.2905 105.861C45.1139 105.822 44.9516 105.775 44.8038 105.722C44.658 105.667 44.5327 105.6 44.428 105.522C44.3232 105.444 44.2421 105.351 44.1846 105.245C44.1271 105.138 44.0984 105.015 44.0984 104.875C44.0984 104.739 44.1281 104.611 44.1877 104.49C44.2472 104.369 44.3325 104.262 44.4434 104.169C44.5543 104.077 44.6888 104.004 44.8469 103.951C45.0071 103.897 45.1858 103.871 45.3829 103.871C45.6622 103.871 45.9015 103.918 46.1007 104.012C46.3019 104.105 46.456 104.231 46.5627 104.391C46.6695 104.549 46.7229 104.728 46.7229 104.927H45.9805C45.9805 104.839 45.9579 104.757 45.9128 104.681C45.8696 104.603 45.8039 104.54 45.7156 104.493C45.6273 104.444 45.5164 104.419 45.3829 104.419C45.2556 104.419 45.1498 104.44 45.0656 104.481C44.9835 104.52 44.9219 104.571 44.8808 104.635C44.8418 104.698 44.8223 104.768 44.8223 104.844C44.8223 104.9 44.8325 104.95 44.8531 104.995C44.8757 105.038 44.9126 105.078 44.964 105.115C45.0153 105.15 45.0851 105.183 45.1734 105.214C45.2638 105.245 45.3768 105.274 45.5123 105.303C45.767 105.357 45.9857 105.425 46.1684 105.51C46.3533 105.592 46.495 105.698 46.5936 105.83C46.6921 105.959 46.7414 106.124 46.7414 106.323C46.7414 106.471 46.7096 106.606 46.6459 106.729C46.5843 106.851 46.4939 106.956 46.3748 107.047C46.2557 107.135 46.113 107.204 45.9466 107.253C45.7824 107.302 45.5975 107.327 45.3922 107.327C45.0903 107.327 44.8346 107.274 44.6251 107.167C44.4156 107.058 44.2565 106.919 44.1476 106.751C44.0408 106.58 43.9875 106.404 43.9875 106.221H44.7052C44.7134 106.359 44.7514 106.469 44.8192 106.551C44.889 106.631 44.9753 106.689 45.0779 106.726C45.1827 106.761 45.2905 106.779 45.4014 106.779C45.5349 106.779 45.6468 106.761 45.7372 106.726C45.8275 106.689 45.8963 106.64 45.9436 106.578C45.9908 106.515 46.0144 106.443 46.0144 106.363ZM48.1862 103.932V107.265H47.4407V103.932H48.1862ZM47.3914 103.057C47.3914 102.944 47.4284 102.851 47.5023 102.777C47.5783 102.701 47.683 102.663 47.8165 102.663C47.9479 102.663 48.0517 102.701 48.1276 102.777C48.2036 102.851 48.2416 102.944 48.2416 103.057C48.2416 103.168 48.2036 103.261 48.1276 103.335C48.0517 103.409 47.9479 103.446 47.8165 103.446C47.683 103.446 47.5783 103.409 47.5023 103.335C47.4284 103.261 47.3914 103.168 47.3914 103.057ZM49.7357 104.644V107.265H48.9933V103.932H49.6925L49.7357 104.644ZM49.6032 105.476L49.3629 105.473C49.365 105.236 49.3978 105.02 49.4615 104.823C49.5272 104.625 49.6176 104.456 49.7326 104.314C49.8496 104.173 49.9893 104.064 50.1515 103.988C50.3138 103.91 50.4945 103.871 50.6937 103.871C50.8539 103.871 50.9987 103.893 51.128 103.938C51.2595 103.982 51.3714 104.052 51.4638 104.151C51.5583 104.25 51.6302 104.378 51.6794 104.536C51.7287 104.692 51.7534 104.884 51.7534 105.112V107.265H51.0079V105.109C51.0079 104.949 50.9843 104.823 50.937 104.73C50.8919 104.636 50.8251 104.569 50.7368 104.53C50.6506 104.489 50.5427 104.468 50.4134 104.468C50.286 104.468 50.1721 104.495 50.0714 104.548C49.9708 104.602 49.8856 104.675 49.8157 104.767C49.748 104.86 49.6956 104.966 49.6586 105.087C49.6217 105.209 49.6032 105.338 49.6032 105.476ZM53.8728 106.736C53.9939 106.736 54.1028 106.712 54.1993 106.665C54.2979 106.615 54.3769 106.548 54.4365 106.461C54.4981 106.375 54.532 106.276 54.5381 106.163H55.2374C55.2333 106.378 55.1696 106.574 55.0464 106.751C54.9232 106.928 54.7599 107.068 54.5566 107.173C54.3533 107.276 54.1284 107.327 53.882 107.327C53.6273 107.327 53.4055 107.284 53.2166 107.198C53.0277 107.109 52.8706 106.988 52.7453 106.834C52.62 106.68 52.5256 106.502 52.4619 106.301C52.4003 106.1 52.3695 105.884 52.3695 105.654V105.546C52.3695 105.316 52.4003 105.101 52.4619 104.9C52.5256 104.696 52.62 104.518 52.7453 104.364C52.8706 104.21 53.0277 104.089 53.2166 104.003C53.4055 103.915 53.6263 103.871 53.8789 103.871C54.1459 103.871 54.38 103.924 54.5813 104.031C54.7825 104.136 54.9407 104.282 55.0557 104.471C55.1727 104.658 55.2333 104.876 55.2374 105.124H54.5381C54.532 105.001 54.5012 104.89 54.4457 104.792C54.3923 104.691 54.3163 104.611 54.2178 104.551C54.1212 104.492 54.0052 104.462 53.8697 104.462C53.7198 104.462 53.5955 104.493 53.4969 104.555C53.3984 104.614 53.3213 104.696 53.2659 104.801C53.2104 104.904 53.1704 105.02 53.1458 105.149C53.1232 105.276 53.1119 105.409 53.1119 105.546V105.654C53.1119 105.792 53.1232 105.925 53.1458 106.055C53.1683 106.184 53.2074 106.3 53.2628 106.403C53.3203 106.503 53.3984 106.585 53.4969 106.646C53.5955 106.706 53.7208 106.736 53.8728 106.736ZM57.2767 107.327C57.0303 107.327 56.8074 107.287 56.6082 107.207C56.4111 107.125 56.2427 107.011 56.103 106.865C55.9654 106.719 55.8597 106.548 55.7857 106.35C55.7118 106.153 55.6748 105.941 55.6748 105.713V105.59C55.6748 105.329 55.7128 105.093 55.7888 104.881C55.8648 104.67 55.9706 104.489 56.1061 104.339C56.2417 104.187 56.4018 104.071 56.5867 103.991C56.7715 103.911 56.9717 103.871 57.1874 103.871C57.4256 103.871 57.634 103.911 57.8127 103.991C57.9914 104.071 58.1392 104.184 58.2563 104.33C58.3754 104.473 58.4637 104.645 58.5212 104.844C58.5808 105.043 58.6106 105.263 58.6106 105.503V105.821H56.0353V105.288H57.8774V105.229C57.8733 105.096 57.8466 104.97 57.7973 104.853C57.7501 104.736 57.6772 104.642 57.5786 104.57C57.48 104.498 57.3486 104.462 57.1843 104.462C57.0611 104.462 56.9512 104.489 56.8547 104.542C56.7602 104.594 56.6811 104.669 56.6175 104.767C56.5538 104.866 56.5045 104.985 56.4696 105.124C56.4368 105.262 56.4203 105.417 56.4203 105.59V105.713C56.4203 105.859 56.4398 105.994 56.4789 106.119C56.5199 106.243 56.5795 106.35 56.6575 106.443C56.7356 106.535 56.83 106.608 56.9409 106.662C57.0518 106.713 57.1781 106.739 57.3198 106.739C57.4985 106.739 57.6577 106.703 57.7973 106.631C57.937 106.559 58.0581 106.457 58.1608 106.326L58.552 106.705C58.4801 106.809 58.3867 106.91 58.2717 107.007C58.1567 107.101 58.016 107.178 57.8497 107.238C57.6854 107.297 57.4944 107.327 57.2767 107.327Z" fill="black"/>
<path d="M63.0311 102.765V107.265H62.2887V103.646L61.1889 104.019V103.406L62.9417 102.765H63.0311ZM65.1874 106.68H65.249C65.5324 106.68 65.7686 106.643 65.9575 106.569C66.1485 106.493 66.3005 106.388 66.4134 106.255C66.5264 106.121 66.6075 105.964 66.6568 105.784C66.7061 105.603 66.7307 105.407 66.7307 105.195V104.422C66.7307 104.239 66.7112 104.079 66.6722 103.942C66.6352 103.802 66.5818 103.686 66.512 103.593C66.4442 103.499 66.3652 103.428 66.2748 103.381C66.1865 103.334 66.091 103.31 65.9883 103.31C65.8754 103.31 65.7737 103.336 65.6834 103.387C65.5951 103.436 65.5201 103.505 65.4585 103.593C65.3989 103.68 65.3527 103.781 65.3199 103.898C65.2891 104.013 65.2737 104.137 65.2737 104.268C65.2737 104.391 65.288 104.51 65.3168 104.625C65.3476 104.738 65.3928 104.839 65.4523 104.927C65.5119 105.016 65.5868 105.085 65.6772 105.137C65.7676 105.188 65.8733 105.214 65.9945 105.214C66.1095 105.214 66.2153 105.192 66.3118 105.149C66.4083 105.104 66.4925 105.043 66.5644 104.967C66.6363 104.891 66.6927 104.806 66.7338 104.712C66.7749 104.617 66.7975 104.521 66.8016 104.422L67.085 104.508C67.085 104.664 67.0521 104.818 66.9864 104.97C66.9227 105.12 66.8334 105.258 66.7184 105.383C66.6055 105.506 66.473 105.605 66.321 105.679C66.1711 105.753 66.0078 105.79 65.8312 105.79C65.6176 105.79 65.4287 105.75 65.2644 105.67C65.1022 105.588 64.9666 105.477 64.8578 105.337C64.751 105.197 64.6709 105.037 64.6175 104.856C64.5641 104.676 64.5374 104.486 64.5374 104.287C64.5374 104.071 64.5703 103.869 64.636 103.68C64.7017 103.491 64.7972 103.324 64.9225 103.181C65.0478 103.035 65.1997 102.922 65.3784 102.842C65.5591 102.76 65.7635 102.719 65.9914 102.719C66.2337 102.719 66.4463 102.766 66.6291 102.86C66.8118 102.955 66.9659 103.085 67.0911 103.251C67.2164 103.418 67.3109 103.611 67.3746 103.831C67.4382 104.05 67.47 104.287 67.47 104.539V104.801C67.47 105.066 67.4464 105.322 67.3992 105.568C67.352 105.812 67.2749 106.039 67.1682 106.249C67.0634 106.456 66.9248 106.639 66.7523 106.797C66.5818 106.953 66.3724 107.075 66.1239 107.164C65.8774 107.25 65.5879 107.293 65.2552 107.293H65.1874V106.68ZM68.7731 106.68H68.8347C69.1181 106.68 69.3543 106.643 69.5432 106.569C69.7342 106.493 69.8862 106.388 69.9991 106.255C70.1121 106.121 70.1932 105.964 70.2425 105.784C70.2918 105.603 70.3164 105.407 70.3164 105.195V104.422C70.3164 104.239 70.2969 104.079 70.2579 103.942C70.2209 103.802 70.1675 103.686 70.0977 103.593C70.0299 103.499 69.9509 103.428 69.8605 103.381C69.7722 103.334 69.6767 103.31 69.574 103.31C69.4611 103.31 69.3594 103.336 69.2691 103.387C69.1807 103.436 69.1058 103.505 69.0442 103.593C68.9846 103.68 68.9384 103.781 68.9056 103.898C68.8748 104.013 68.8593 104.137 68.8593 104.268C68.8593 104.391 68.8737 104.51 68.9025 104.625C68.9333 104.738 68.9785 104.839 69.038 104.927C69.0976 105.016 69.1725 105.085 69.2629 105.137C69.3533 105.188 69.459 105.214 69.5802 105.214C69.6952 105.214 69.801 105.192 69.8975 105.149C69.994 105.104 70.0782 105.043 70.1501 104.967C70.222 104.891 70.2784 104.806 70.3195 104.712C70.3606 104.617 70.3832 104.521 70.3873 104.422L70.6707 104.508C70.6707 104.664 70.6378 104.818 70.5721 104.97C70.5084 105.12 70.4191 105.258 70.3041 105.383C70.1911 105.506 70.0587 105.605 69.9067 105.679C69.7568 105.753 69.5935 105.79 69.4169 105.79C69.2033 105.79 69.0144 105.75 68.8501 105.67C68.6879 105.588 68.5523 105.477 68.4435 105.337C68.3367 105.197 68.2566 105.037 68.2032 104.856C68.1498 104.676 68.1231 104.486 68.1231 104.287C68.1231 104.071 68.156 103.869 68.2217 103.68C68.2874 103.491 68.3829 103.324 68.5082 103.181C68.6334 103.035 68.7854 102.922 68.9641 102.842C69.1448 102.76 69.3491 102.719 69.5771 102.719C69.8194 102.719 70.032 102.766 70.2148 102.86C70.3975 102.955 70.5516 103.085 70.6768 103.251C70.8021 103.418 70.8966 103.611 70.9602 103.831C71.0239 104.05 71.0557 104.287 71.0557 104.539V104.801C71.0557 105.066 71.0321 105.322 70.9849 105.568C70.9377 105.812 70.8606 106.039 70.7539 106.249C70.6491 106.456 70.5105 106.639 70.338 106.797C70.1675 106.953 69.9581 107.075 69.7096 107.164C69.4631 107.25 69.1736 107.293 68.8409 107.293H68.7731V106.68ZM74.7677 106.674V107.265H71.7612V106.757L73.2213 105.164C73.3815 104.984 73.5078 104.828 73.6002 104.696C73.6926 104.565 73.7573 104.447 73.7943 104.342C73.8333 104.235 73.8528 104.131 73.8528 104.031C73.8528 103.889 73.8261 103.765 73.7727 103.658C73.7214 103.549 73.6454 103.464 73.5448 103.402C73.4441 103.339 73.322 103.307 73.1782 103.307C73.0119 103.307 72.8722 103.343 72.7593 103.415C72.6463 103.487 72.5611 103.586 72.5036 103.714C72.4461 103.839 72.4173 103.983 72.4173 104.145H71.6749C71.6749 103.884 71.7345 103.646 71.8536 103.43C71.9727 103.212 72.1452 103.04 72.3711 102.913C72.597 102.783 72.8691 102.719 73.1874 102.719C73.4873 102.719 73.7419 102.769 73.9514 102.87C74.1609 102.97 74.32 103.113 74.4289 103.298C74.5398 103.483 74.5952 103.701 74.5952 103.954C74.5952 104.094 74.5726 104.232 74.5275 104.37C74.4823 104.507 74.4176 104.645 74.3334 104.783C74.2512 104.918 74.1537 105.055 74.0407 105.192C73.9278 105.328 73.8035 105.465 73.668 105.605L72.6976 106.674H74.7677Z" fill="black"/>
<defs>
<linearGradient id="paint0_linear_52_18214" x1="59.2926" y1="15.0247" x2="59.2926" y2="91.0653" gradientUnits="userSpaceOnUse">
<stop offset="0.28213" stop-color="#3F664B"/>
<stop offset="1" stop-color="#2D3B2C"/>
</linearGradient>
<linearGradient id="paint1_linear_52_18214" x1="59.2926" y1="15.0247" x2="59.2926" y2="91.0653" gradientUnits="userSpaceOnUse">
<stop offset="0.28213" stop-color="#3F664B"/>
<stop offset="1" stop-color="#2D3B2C"/>
</linearGradient>
<linearGradient id="paint2_linear_52_18214" x1="59.2926" y1="15.0247" x2="59.2926" y2="91.0653" gradientUnits="userSpaceOnUse">
<stop offset="0.28213" stop-color="#3F664B"/>
<stop offset="1" stop-color="#2D3B2C"/>
</linearGradient>
<linearGradient id="paint3_linear_52_18214" x1="59.2926" y1="15.0247" x2="59.2926" y2="91.0653" gradientUnits="userSpaceOnUse">
<stop offset="0.28213" stop-color="#3F664B"/>
<stop offset="1" stop-color="#2D3B2C"/>
</linearGradient>
<linearGradient id="paint4_linear_52_18214" x1="59.2926" y1="15.0247" x2="59.2926" y2="91.0653" gradientUnits="userSpaceOnUse">
<stop offset="0.28213" stop-color="#3F664B"/>
<stop offset="1" stop-color="#2D3B2C"/>
</linearGradient>
<linearGradient id="paint5_linear_52_18214" x1="59.2926" y1="15.0247" x2="59.2926" y2="91.0653" gradientUnits="userSpaceOnUse">
<stop offset="0.28213" stop-color="#3F664B"/>
<stop offset="1" stop-color="#2D3B2C"/>
</linearGradient>
<linearGradient id="paint6_linear_52_18214" x1="59.2926" y1="15.0247" x2="59.2926" y2="91.0653" gradientUnits="userSpaceOnUse">
<stop offset="0.28213" stop-color="#3F664B"/>
<stop offset="1" stop-color="#2D3B2C"/>
</linearGradient>
<linearGradient id="paint7_linear_52_18214" x1="59.2926" y1="15.0247" x2="59.2926" y2="91.0653" gradientUnits="userSpaceOnUse">
<stop offset="0.28213" stop-color="#3F664B"/>
<stop offset="1" stop-color="#2D3B2C"/>
</linearGradient>
<linearGradient id="paint8_linear_52_18214" x1="59.2926" y1="15.0247" x2="59.2926" y2="91.0653" gradientUnits="userSpaceOnUse">
<stop offset="0.28213" stop-color="#3F664B"/>
<stop offset="1" stop-color="#2D3B2C"/>
</linearGradient>
<linearGradient id="paint9_linear_52_18214" x1="59.2926" y1="15.0247" x2="59.2926" y2="91.0653" gradientUnits="userSpaceOnUse">
<stop offset="0.28213" stop-color="#3F664B"/>
<stop offset="1" stop-color="#2D3B2C"/>
</linearGradient>
<linearGradient id="paint10_linear_52_18214" x1="59.2926" y1="15.0247" x2="59.2926" y2="91.0653" gradientUnits="userSpaceOnUse">
<stop offset="0.28213" stop-color="#3F664B"/>
<stop offset="1" stop-color="#2D3B2C"/>
</linearGradient>
<linearGradient id="paint11_linear_52_18214" x1="59.2926" y1="15.0247" x2="59.2926" y2="91.0653" gradientUnits="userSpaceOnUse">
<stop offset="0.28213" stop-color="#3F664B"/>
<stop offset="1" stop-color="#2D3B2C"/>
</linearGradient>
<linearGradient id="paint12_linear_52_18214" x1="59.2926" y1="15.0247" x2="59.2926" y2="91.0653" gradientUnits="userSpaceOnUse">
<stop offset="0.28213" stop-color="#3F664B"/>
<stop offset="1" stop-color="#2D3B2C"/>
</linearGradient>
<linearGradient id="paint13_linear_52_18214" x1="59.2926" y1="15.0247" x2="59.2926" y2="91.0653" gradientUnits="userSpaceOnUse">
<stop offset="0.28213" stop-color="#3F664B"/>
<stop offset="1" stop-color="#2D3B2C"/>
</linearGradient>
<linearGradient id="paint14_linear_52_18214" x1="59.2926" y1="15.0247" x2="59.2926" y2="91.0653" gradientUnits="userSpaceOnUse">
<stop offset="0.28213" stop-color="#3F664B"/>
<stop offset="1" stop-color="#2D3B2C"/>
</linearGradient>
</defs>
</svg>
