<svg width="27" height="28" viewBox="0 0 27 28" fill="none" xmlns="http://www.w3.org/2000/svg">
<path d="M24.1532 1.05566H2.84684C1.82698 1.05566 1 1.85825 1 2.84708V24.2665C1 25.2553 1.82698 26.0557 2.84684 26.0557H24.1532C25.173 26.0557 26 25.2531 26 24.2642V2.84708C26 1.85825 25.173 1.05566 24.1532 1.05566ZM4.85553 21.9784V10.7222H8.59578V21.9784H4.85553ZM6.72676 9.18576H6.70238C5.4475 9.18576 4.63604 8.32109 4.63604 7.24137C4.63604 6.16164 5.47189 5.29697 6.75337 5.29697C8.03485 5.29697 8.81971 6.13725 8.84409 7.24137C8.84409 8.32109 8.03264 9.18576 6.72676 9.18576ZM22.0868 21.9784H18.3466V15.9568C18.3466 14.4425 17.8056 13.4116 16.451 13.4116C15.4178 13.4116 14.8014 14.1077 14.5309 14.7795C14.4312 15.0189 14.4068 15.3559 14.4068 15.6929V21.9784H10.6665C10.6665 21.9784 10.7153 11.7798 10.6665 10.7244H14.4068V12.3185C14.9034 11.5514 15.7925 10.4606 17.779 10.4606C20.24 10.4606 22.0846 12.0702 22.0846 15.5267V21.9806L22.0868 21.9784Z" fill="white"/>
</svg>
