<svg width="27" height="28" viewBox="0 0 27 28" fill="none" xmlns="http://www.w3.org/2000/svg">
<path d="M17.2825 26.0557H9.74715C9.59371 26.0415 9.44026 26.0203 9.28682 26.0179C8.29296 25.992 7.2991 25.9519 6.32649 25.7162C4.25144 25.2165 2.71226 24.0426 1.79631 22.1049C1.22738 20.9051 1.05741 19.6133 1.04324 18.3027C1.01491 15.6083 0.991308 12.914 1.00311 10.2197C1.01019 8.92789 1.01728 7.62905 1.33125 6.36085C1.87893 4.1521 3.17024 2.56803 5.29959 1.70528C6.44453 1.24326 7.65085 1.11125 8.86897 1.09947C11.4138 1.07118 13.9563 1.04996 16.5011 1.05703C17.8373 1.06175 19.1782 1.05468 20.4954 1.3399C22.9246 1.86793 24.6243 3.25635 25.4789 5.61595C25.8896 6.74979 25.9864 7.93313 25.9911 9.12354C26.0006 12.0065 26.0077 14.887 25.9841 17.7699C25.977 18.5879 25.9132 19.4153 25.7858 20.2238C25.5261 21.881 24.7801 23.2906 23.4699 24.3702C22.1928 25.4239 20.6819 25.8459 19.0625 25.9543C18.4699 25.9944 17.8774 26.0203 17.2825 26.0533V26.0557ZM13.5007 23.8446C13.5007 23.8328 13.5007 23.8186 13.5007 23.8068C14.1617 23.8068 14.8227 23.8257 15.4813 23.8021C16.9048 23.7503 18.3401 23.7691 19.7518 23.5923C21.6781 23.3519 22.9836 22.2463 23.4581 20.3323C23.647 19.5756 23.7131 18.7718 23.7272 17.9892C23.7697 15.4504 23.7792 12.9093 23.765 10.3705C23.7579 9.36398 23.7107 8.35036 23.5832 7.35089C23.3259 5.34487 22.07 3.98474 20.087 3.58872C19.2301 3.419 18.3401 3.36714 17.4643 3.353C15.2712 3.31764 13.0781 3.32235 10.885 3.32942C9.63148 3.33414 8.37322 3.31764 7.12913 3.53686C5.23113 3.86923 3.93038 5.07379 3.54087 6.9643C3.37326 7.77991 3.31896 8.62616 3.30007 9.46063C3.25758 11.4619 3.24106 13.4656 3.26466 15.4669C3.28119 16.8812 3.31896 18.3003 3.45352 19.7076C3.58572 21.0819 4.23491 22.2157 5.44359 22.9653C6.2604 23.4721 7.17871 23.6725 8.12299 23.7078C9.91476 23.7715 11.7089 23.8021 13.5007 23.8469V23.8446Z" fill="white"/>
<path d="M7.0772 13.5457C7.08428 9.99572 9.98322 7.11517 13.5266 7.13167C17.0913 7.14817 19.9714 10.0358 19.9454 13.574C19.9218 17.1264 17.0512 19.9857 13.5101 19.981C9.9549 19.9763 7.06776 17.0887 7.07484 13.5481L7.0772 13.5457ZM9.34347 13.5528C9.34347 15.8582 11.199 17.711 13.5078 17.7134C15.8189 17.7134 17.6744 15.8676 17.6815 13.5622C17.6886 11.2474 15.8236 9.3852 13.5054 9.38991C11.1966 9.39227 9.34347 11.2474 9.34347 13.5552V13.5528Z" fill="white"/>
<path d="M21.6994 6.86294C21.7041 7.69033 21.0478 8.36215 20.2263 8.37158C19.3906 8.38101 18.706 7.71391 18.7037 6.88415C18.6989 6.05676 19.3552 5.38966 20.1815 5.38023C21.0242 5.3708 21.6947 6.02376 21.7018 6.86294H21.6994Z" fill="white"/>
</svg>
