<svg width="90" height="90" viewBox="0 0 90 90" fill="none" xmlns="http://www.w3.org/2000/svg">
<path fill-rule="evenodd" clip-rule="evenodd" d="M10.4909 59.306H8.25049V59.7415H20.6565V51.9017H20.2887C20.2887 51.9017 20.2887 56.4247 18.7839 57.8988C17.5132 59.1719 16.1756 59.2725 14.0021 59.2725V44.8325C14.0021 44.8325 15.5069 44.732 16.2425 45.4691C17.3795 46.6082 17.5132 48.0823 17.5132 50.126H17.9145V39.0699H17.5132C17.5132 41.1136 17.4129 42.5878 16.2425 43.7269C15.5069 44.464 14.0021 44.3634 14.0021 44.3634V30.6606C16.1756 30.6606 17.2123 30.7946 18.483 32.0342C19.9543 33.5083 19.9877 38.0313 19.9877 38.0313H20.3556V30.225H8.25049V30.6606H10.4909V59.306Z" fill="black"/>
<path fill-rule="evenodd" clip-rule="evenodd" d="M34.7346 30.6606V59.306C36.9081 59.306 38.2457 59.1719 39.5164 57.9323C40.9877 56.4582 41.0212 51.9352 41.0212 51.9352H41.389V59.775H28.983V59.3395H31.2234V30.627H28.983V30.225H36.7744V30.6606H34.7346Z" fill="black"/>
<path fill-rule="evenodd" clip-rule="evenodd" d="M54.6645 30.6606V59.306C56.8381 59.306 58.1757 59.1719 59.4464 57.9323C60.9177 56.4582 60.9511 51.9352 60.9511 51.9352H61.319V59.775H48.9129V59.3395H51.1534V30.627H48.9129V30.225H56.7043V30.6606H54.6645Z" fill="black"/>
<path fill-rule="evenodd" clip-rule="evenodd" d="M71.5849 59.306H69.3444V59.7415H81.7505V51.9017H81.3827C81.3827 51.9017 81.3827 56.4247 79.8779 57.8988C78.6072 59.1719 77.2696 59.2725 75.096 59.2725V44.8325C75.096 44.8325 76.6008 44.732 77.3365 45.4691C78.4734 46.6082 78.6072 48.0823 78.6072 50.126H79.0084V39.0699H78.6072C78.6072 41.1136 78.5069 42.5878 77.3365 43.7269C76.6008 44.464 75.096 44.3634 75.096 44.3634V30.6606C77.2696 30.6606 78.3062 30.7946 79.5769 32.0342C81.0483 33.5083 81.0817 38.0313 81.0817 38.0313H81.4495V30.225H69.3444V30.6606H71.5849V59.306Z" fill="black"/>
</svg>
