<svg width="120" height="90" viewBox="0 0 120 90" fill="none" xmlns="http://www.w3.org/2000/svg">
<path d="M85.1828 33.9893H87.7413V55.741H85.1828V33.9893ZM13.95 43.3372H29.4334V45.9213H13.95V43.3372ZM13.95 53.1344H29.4334V55.7185L13.95 55.7103V53.1344ZM13.95 33.9669H29.4334V36.551H13.95V33.9669ZM49.0104 33.9669H51.5909V55.7185H49.0104V33.9669ZM58.8653 34.0118C62.2691 33.9443 64.8274 36.6409 64.8274 39.944C64.8274 43.2473 62.0911 45.9888 58.8655 45.9213H53.8155V43.3372H58.8653C60.5562 43.3146 62.2468 41.8316 62.2468 39.9665C62.2468 38.1014 60.8454 36.6409 58.8655 36.6184C57.1747 36.5959 53.8155 36.5959 53.8155 36.5959V34.0118H58.8653ZM66.3625 33.9669H68.9208V55.7185H66.3623V33.9669H66.3625ZM77.1741 33.9669C80.5779 33.8995 83.114 36.6409 83.114 39.944C83.114 43.2473 80.3777 45.9888 77.152 45.9213H71.1676V43.3372C71.1676 43.3372 75.3944 43.3372 77.1519 43.3146C78.8426 43.2922 80.5333 41.8091 80.5333 39.944C80.5333 38.079 79.1319 36.6409 77.1519 36.596C75.439 36.5735 71.1676 36.5735 71.1676 36.5735V33.9893H77.1519L77.1741 33.9669ZM81.134 55.7185L76.1285 47.6066H79.1541L84.1596 55.7185H81.134ZM96.3506 38.7306H98.8867V55.7185H96.3506V38.7306ZM46.6299 37.9441C45.5398 34.9782 42.4476 33.45 38.7769 33.45C35.1062 33.45 30.657 35.0229 30.657 39.6745C30.657 44.3258 34.2831 45.764 37.9761 45.8763V43.2698C35.6847 43.0676 33.4156 42.326 33.4156 39.6969C33.4156 36.8432 36.2185 35.9667 38.7324 35.9667C41.2462 35.9667 43.3819 36.933 44.0716 39.0004C44.1982 39.3944 44.2803 39.8014 44.3162 40.2138H47.097C47.0655 39.4389 46.9155 38.6734 46.6521 37.9442L46.6299 37.9441ZM106.05 36.5735V33.9893H89.1427V36.5735H106.05ZM30.3901 48.5953H33.1931C33.1931 48.9549 33.2153 49.9211 33.5268 50.7076C34.4389 53.112 36.2186 53.876 39.2885 53.876C42.0472 53.876 45.1394 52.7974 45.1394 49.9211C45.1394 47.0448 42.67 46.3258 40.223 46.0786V43.4945C44.0716 43.854 47.7644 45.4269 47.7644 49.9661C47.7644 54.5053 43.8491 56.55 39.2886 56.55C34.995 56.55 31.9917 55.0445 30.7683 51.3143C30.4345 50.3031 30.39 49.1571 30.39 48.6403L30.3901 48.5953Z" fill="black"/>
</svg>
