<svg width="90" height="90" viewBox="0 0 90 90" fill="none" xmlns="http://www.w3.org/2000/svg">
<path d="M31.8775 46.4378L31.8057 28.6594C31.8057 26.8734 33.1958 25.425 34.9853 25.425H35.33C36.188 25.425 37.0109 25.7658 37.6176 26.3723C38.2243 26.9789 38.5651 27.8016 38.5651 28.6594L38.6369 46.4358C38.6369 47.2936 38.2961 48.1163 37.6894 48.7229C37.0827 49.3295 36.2598 49.6702 35.4018 49.6702H35.0338C33.2474 49.6743 31.8775 48.2248 31.8775 46.4378Z" fill="black"/>
<path d="M72.7242 27.5274L79.9123 39.228C81.4672 41.7549 81.825 42.4129 81.825 44.2727C81.825 47.2131 79.1631 49.463 76.8035 49.463H67.09C65.3218 49.463 63.8892 48.2329 63.8892 46.4671V46.265C63.8894 45.8449 63.9722 45.4289 64.1332 45.0408C64.2941 44.6527 64.5299 44.3001 64.8271 44.0032C65.1243 43.7062 65.4772 43.4707 65.8654 43.31C66.2537 43.1494 66.6698 43.0668 67.09 43.0669H73.0457C73.4197 43.0669 73.6523 43.0153 73.7534 42.7819C73.8666 42.5251 73.8332 42.3776 73.6523 42.0915L69.4061 35.2891C69.3394 35.1748 69.2575 35.0172 69.1261 35.0172C68.9947 35.0172 68.8966 35.1748 68.839 35.2971L62.3636 46.4095C61.3527 48.1733 60.1668 49.461 58.3996 49.461H45.9483C43.5887 49.461 41.2139 47.1362 41.2139 44.7296V28.6503C41.2139 27.8021 41.5509 26.9885 42.1507 26.3886C42.7506 25.7887 43.5642 25.4515 44.4127 25.4513H44.8171C45.6655 25.4515 46.4791 25.7887 47.079 26.3886C47.6788 26.9885 48.0158 27.8021 48.0158 28.6503V41.7903C48.0123 41.9057 48.0325 42.0206 48.0752 42.1279C48.1179 42.2352 48.1822 42.3325 48.2641 42.4139C48.346 42.4953 48.4437 42.5591 48.5513 42.6011C48.6588 42.6432 48.7739 42.6628 48.8893 42.6585H55.0765C56.1613 42.6585 56.8164 42.2664 57.3846 41.3193L65.713 27.5274C66.5046 26.2134 67.7785 25.5058 69.2757 25.5058C70.7285 25.5099 71.878 26.1669 72.7242 27.5274Z" fill="black"/>
<path d="M15.8585 41.1373C15.7439 41.1371 15.6304 41.1595 15.5245 41.2032C15.4185 41.247 15.3223 41.3112 15.2413 41.3923C15.1603 41.4734 15.0962 41.5696 15.0525 41.6756C15.0089 41.7815 14.9866 41.8951 14.987 42.0096V46.4823C14.9873 46.903 14.9046 47.3196 14.7436 47.7083C14.5826 48.097 14.3465 48.4501 14.0488 48.7475C13.7511 49.0448 13.3977 49.2805 13.0087 49.4411C12.6198 49.6017 12.203 49.684 11.7822 49.6834H11.3778C10.9572 49.6838 10.5406 49.6012 10.1519 49.4405C9.76325 49.2798 9.41007 49.0441 9.11259 48.7467C8.81512 48.4494 8.5792 48.0964 8.41833 47.7078C8.25745 47.3193 8.17478 46.9028 8.17505 46.4823V38.3456C8.17505 36.2766 9.75926 34.535 11.9864 34.535H24.9867C25.4073 34.5342 25.8239 34.6163 26.2128 34.7767C26.6016 34.937 26.955 35.1725 27.2528 35.4695C27.5505 35.7665 27.7868 36.1194 27.948 36.5078C28.1093 36.8962 28.1923 37.3126 28.1925 37.7331V37.9352C28.1925 38.3554 28.1097 38.7715 27.9488 39.1597C27.788 39.5479 27.5522 39.9006 27.2549 40.1977C26.9577 40.4948 26.6048 40.7304 26.2165 40.8911C25.8282 41.0518 25.412 41.1344 24.9917 41.1343L15.8585 41.1373Z" fill="black"/>
<path d="M11.4102 25.8859H26.5567C28.3441 25.8859 29.7919 27.2777 29.7919 29.0648V29.2669C29.7919 30.1247 29.451 30.9474 28.8443 31.554C28.2376 32.1606 27.4147 32.5014 26.5567 32.5014H11.4102C10.9853 32.5014 10.5645 32.4177 10.1719 32.2551C9.77935 32.0924 9.42267 31.8541 9.12224 31.5537C8.82182 31.2532 8.58354 30.8965 8.42102 30.504C8.2585 30.1114 8.17492 29.6907 8.17505 29.2659V29.0395C8.17505 27.2535 9.62277 25.8859 11.4102 25.8859Z" fill="black"/>
<path d="M9.21029 59.2998C9.26994 60.5825 10.469 61.6731 11.7519 61.6731C12.9509 61.6498 13.8032 60.9423 14.1024 60.1266H14.9901C14.7261 60.891 14.1993 61.5369 13.5035 61.9493C12.8077 62.3617 11.9881 62.5138 11.1907 62.3785C10.3932 62.2432 9.66966 61.8293 9.14889 61.2105C8.62812 60.5918 8.34392 59.8083 8.34692 58.9996C8.3502 58.0931 8.70845 57.224 9.34491 56.5785C9.98136 55.9329 10.8454 55.5622 11.7519 55.5458C12.3435 55.5477 12.9245 55.7035 13.4376 55.9978C13.9508 56.2922 14.3785 56.715 14.6787 57.2247C15.0191 57.7755 15.1978 58.4108 15.1943 59.0582C15.1943 59.1421 15.1822 59.2149 15.1822 59.2988L9.21029 59.2998ZM14.3309 58.5437C14.067 56.9973 12.8074 56.3019 11.764 56.3019C11.1393 56.3041 10.5365 56.5324 10.0671 56.9445C9.59768 57.3566 9.29333 57.9247 9.21029 58.5437H14.3309Z" fill="black"/>
<path d="M22.1377 62.0572L19.583 55.7146H20.4706L22.5573 60.9423L24.7875 55.7146H25.6751L21.8738 64.575H20.9983L22.1377 62.0572Z" fill="black"/>
<path d="M30.8675 59.2998C30.9272 60.5825 32.1272 61.6731 33.4102 61.6731C34.6092 61.6498 35.4604 60.9423 35.7607 60.1266H36.6473C36.3631 60.8947 35.8007 61.528 35.0715 61.901C34.3422 62.2741 33.4994 62.3595 32.7101 62.1405C31.9208 61.9215 31.2426 61.414 30.81 60.7186C30.3774 60.0232 30.2218 59.1906 30.3743 58.386C30.5267 57.5813 30.9759 56.8633 31.633 56.3742C32.29 55.8851 33.1068 55.6607 33.9216 55.7454C34.7363 55.8301 35.4895 56.2178 36.0318 56.8316C36.5741 57.4454 36.866 58.2404 36.8495 59.0592C36.8495 59.1431 36.8374 59.2159 36.8374 59.2998H30.8675ZM35.9882 58.5437C35.7243 56.9973 34.4656 56.3019 33.4223 56.3019C32.7974 56.3039 32.1944 56.5321 31.7247 56.9442C31.2551 57.3563 30.9506 57.9245 30.8675 58.5437H35.9882Z" fill="black"/>
<path d="M41.2169 55.7146H42.0925L44.1549 61.2061H44.1781L45.6825 56.506H46.4144L47.9198 61.2061H47.944L50.0297 55.7146H50.8931L48.3868 62.2725H47.4395L46.0484 57.909H46.0242L44.6573 62.2725H43.711L41.2169 55.7146Z" fill="black"/>
<path d="M56.0632 59.2998C56.1229 60.5825 57.3219 61.6731 58.6048 61.6731C59.8038 61.6498 60.6561 60.9423 60.9554 60.1266H61.843C61.5588 60.8947 60.9964 61.528 60.2671 61.901C59.5379 62.2741 58.6951 62.3595 57.9058 62.1405C57.1165 61.9215 56.4383 61.414 56.0057 60.7186C55.573 60.0232 55.4175 59.1906 55.5699 58.386C55.7224 57.5813 56.1716 56.8633 56.8287 56.3742C57.4857 55.8851 58.3025 55.6607 59.1173 55.7454C59.932 55.8301 60.6852 56.2178 61.2275 56.8316C61.7698 57.4454 62.0616 58.2404 62.0452 59.0592C62.0452 59.1431 62.0331 59.2159 62.0331 59.2998H56.0632ZM61.1838 58.5437C60.919 56.9973 59.6603 56.3019 58.617 56.3019C57.9922 56.3041 57.3895 56.5324 56.92 56.9445C56.4506 57.3566 56.1462 57.9247 56.0632 58.5437H61.1838Z" fill="black"/>
<path d="M73.7028 62.2725H72.8637V61.1222H72.8394C72.1196 62.2007 70.9691 62.4291 70.2857 62.4291C68.2223 62.4291 66.7594 60.8584 66.7594 58.9753C66.7594 57.2257 68.1384 55.5468 70.2857 55.5468C70.9934 55.5468 72.1439 55.7742 72.8394 56.8659H72.8637V55.7146H73.7028V62.2725ZM70.2857 61.6731C70.6345 61.6722 70.9796 61.6021 71.3011 61.4668C71.6226 61.3316 71.914 61.1339 72.1585 60.8852C72.403 60.6366 72.5957 60.3418 72.7254 60.0182C72.8552 59.6945 72.9193 59.3483 72.9142 58.9996C72.9142 57.5613 71.8022 56.3019 70.2857 56.3019C68.8461 56.3019 67.5995 57.345 67.5995 59.0117C67.5995 60.4743 68.6782 61.6731 70.2857 61.6731Z" fill="black"/>
<path d="M78.9437 55.7146H79.7829V56.6577H79.8071C80.2034 55.7348 80.9465 55.5903 81.6542 55.5458V56.4333C81.0658 56.4808 80.5623 56.6971 80.2388 57.0802C79.9364 57.4666 79.7754 57.945 79.7829 58.4356V62.2715H78.9437V55.7146Z" fill="black"/>
</svg>
