<svg width="120" height="90" viewBox="0 0 120 90" fill="none" xmlns="http://www.w3.org/2000/svg">
<path d="M22.9948 56.3999V33.6H19.9388V43.2848H16.1807V33.6H13.1248V56.3999H16.1807V46.0472H19.9388V56.3999H22.9948Z" fill="black"/>
<path d="M32.8583 56.3999V53.6375H28.3394V46.0472H32.3512V43.2848H28.3394V36.3625H32.8583V33.6H25.2835V56.3999H32.8583Z" fill="black"/>
<path d="M38.2029 36.3625H40.2088C41.1234 36.3625 41.5796 36.9126 41.5775 38.0128V42.9346C41.5775 44.037 41.1213 44.5882 40.2088 44.5882H38.2029V36.3625ZM35.147 56.3999H38.2029V47.1918H40.0495L42.0586 56.3999H44.952L42.8194 46.8935C44.0287 46.3639 44.6334 45.1037 44.6334 43.1129V37.507C44.6334 34.9131 43.4663 33.6162 41.1321 33.6162H35.147V56.3999Z" fill="black"/>
<path d="M50.3064 33.6H46.9319V56.3999H49.9878L49.6692 41.4756L51.9612 52.2725H54.3181L56.6101 41.4756L56.2915 56.3999H59.3474V33.6H55.9729L53.138 47.0005L50.3064 33.6Z" fill="black"/>
<path d="M64.6921 52.3049V37.695C64.6921 36.8067 65.1375 36.3625 66.0282 36.3625H67.4619C68.3722 36.3625 68.8306 36.8067 68.8306 37.695V52.3049C68.8306 53.1933 68.4275 53.6375 67.6212 53.6375H66.0607C65.1461 53.6375 64.6899 53.1933 64.6921 52.3049ZM68.1934 56.3999C70.6555 56.3999 71.8865 55.1084 71.8865 52.5254V37.507C71.8865 34.9131 70.6663 33.6162 68.2259 33.6162H65.3C62.8596 33.6162 61.6383 34.9185 61.6361 37.5232V52.5254C61.6361 55.1192 62.8683 56.4107 65.3325 56.3999H68.1934Z" fill="black"/>
<path d="M83.4081 39.728V37.507C83.4081 34.9131 82.1868 33.6162 79.7442 33.6162H77.8359C75.3933 33.6162 74.172 34.9185 74.172 37.5232V42.1727C74.1577 42.6618 74.2225 43.1501 74.3638 43.6187C74.4805 43.9729 74.6959 44.2867 74.9847 44.5234C75.4193 44.8501 75.8829 45.1366 76.3697 45.3793L79.2663 47.0005C79.5567 47.1694 79.8339 47.3602 80.0953 47.5711C80.1941 47.6895 80.2676 47.8268 80.3112 47.9746C80.3548 48.1223 80.3677 48.2774 80.3489 48.4303V52.3049C80.3489 53.1933 79.9458 53.6375 79.1395 53.6375H78.5998C77.6852 53.6375 77.229 53.1933 77.2312 52.3049V51.0663H74.172V52.2076C74.172 55.0025 75.3933 56.3999 77.8359 56.3999H79.7149C82.1749 56.3999 83.4059 55.1192 83.4081 52.5578V47.6943C83.4484 47.1389 83.372 46.5812 83.1837 46.057C83.0343 45.7704 82.822 45.5211 82.5628 45.3274C82.1292 45.0198 81.6776 44.7383 81.2104 44.4844L78.3138 42.9281C78.0251 42.76 77.7511 42.568 77.4945 42.3542C77.3956 42.2366 77.322 42.0998 77.2784 41.9526C77.2348 41.8053 77.222 41.6507 77.2409 41.4983V37.7275C77.2409 36.8196 77.6733 36.3625 78.5413 36.3625H79.0192C79.91 36.3625 80.3554 36.8196 80.3554 37.7275V39.728H83.4081Z" fill="black"/>
<path d="M94.9263 39.728V37.507C94.9263 34.9131 93.7061 33.6162 91.2657 33.6162H89.3541C86.9137 33.6162 85.6935 34.9185 85.6935 37.5232V42.1727C85.6793 42.6618 85.744 43.1501 85.8853 43.6187C86.0021 43.9729 86.2174 44.2867 86.5063 44.5234C86.9429 44.8504 87.4087 45.137 87.8977 45.3793L90.7943 47.0005C91.0837 47.1711 91.3608 47.3618 91.6233 47.5711C91.7222 47.6895 91.7957 47.8268 91.8393 47.9746C91.8829 48.1223 91.8957 48.2774 91.8769 48.4303V52.3049C91.8769 53.1933 91.4738 53.6375 90.6675 53.6375H90.1246C89.21 53.6375 88.7538 53.1933 88.756 52.3049V51.0663H85.7V52.2076C85.7 55.0025 86.9202 56.3999 89.3606 56.3999H91.2397C93.7018 56.3999 94.9329 55.1192 94.9329 52.5578V47.6943C94.972 47.1392 94.8968 46.582 94.7118 46.057C94.5558 45.7718 94.3382 45.5248 94.0746 45.3339C93.6398 45.0265 93.1871 44.745 92.7189 44.4909L89.8483 42.9346C89.5515 42.7639 89.2688 42.5699 89.003 42.3542C88.9041 42.2366 88.8306 42.0998 88.7869 41.9526C88.7433 41.8053 88.7306 41.6507 88.7495 41.4983V37.7275C88.7495 36.8196 89.1851 36.3625 90.0499 36.3625H90.5277C91.4185 36.3625 91.8639 36.8196 91.8639 37.7275V39.728H94.9263Z" fill="black"/>
<path d="M100.256 45.2644V37.6817C100.256 36.7927 100.706 36.3482 101.605 36.3482H102.442C103.341 36.3482 103.79 36.7927 103.79 37.6817V45.2644H100.256ZM100.256 48.0289H103.79V56.4H106.875V37.4936C106.875 34.8979 105.643 33.6 103.18 33.6H100.867C98.4035 33.6 97.172 34.9033 97.172 37.5098V56.4H100.256V48.0289Z" fill="black"/>
</svg>
