<svg width="90" height="90" viewBox="0 0 90 90" fill="none" xmlns="http://www.w3.org/2000/svg">
<path d="M64.5591 35.5829V36.0314L64.731 36.0659L65.0404 36.3073C65.4873 36.8592 65.4873 38.239 65.4873 38.239V51.761C65.4873 53.1408 65.0404 53.6927 65.0404 53.6927L64.731 53.9342L64.5591 53.9686V54.3826H70.0935V53.9686L69.6466 53.6927C69.1654 53.1408 69.1654 51.761 69.1654 51.761V46.5523H70.8498C74.2185 46.5523 76.2123 45.1725 76.2123 45.1725C78.3435 43.6892 78.3435 40.9641 78.3435 40.9641C78.3435 38.1355 76.2123 36.7902 76.2123 36.7902C74.3216 35.5829 70.8498 35.5829 70.8498 35.5829H64.5591ZM69.1654 36.9972H70.5748C72.6029 36.9972 73.6685 38.17 73.6685 38.17C74.5966 39.2049 74.5966 40.9641 74.5966 40.9641C74.5966 42.6889 73.6685 43.8272 73.6685 43.8272C72.6029 45.138 70.5748 45.138 70.5748 45.138H69.1654V36.9972Z" fill="black"/>
<path d="M82.6748 35.7209C82.6748 35.7209 83.2248 35.1 84.2216 35.1C84.2216 35.1 85.1841 35.1 85.7341 35.7209C85.7341 35.7209 86.2498 36.3073 86.2498 37.2732L85.5623 42.4819C85.5623 42.4819 84.8404 47.2077 84.7373 49.0704L84.2216 49.0359L83.6716 49.0704C83.6716 49.0704 83.6029 47.2077 82.8466 42.4819L82.1591 37.2732C82.1591 37.2732 82.1591 36.3073 82.6748 35.7209Z" fill="black"/>
<path d="M85.5966 51.554C85.5966 51.554 86.1466 52.1059 86.1466 52.9338C86.1466 52.9338 86.1466 53.7272 85.5966 54.3136C85.5966 54.3136 85.0123 54.9 84.2216 54.9C84.2216 54.9 83.3966 54.9 82.8123 54.3136C82.8123 54.3136 82.2623 53.7272 82.2623 52.9338C82.2623 52.9338 82.2623 52.1059 82.8123 51.554C82.8123 51.554 83.3966 50.9676 84.2216 50.9676C84.2216 50.9676 85.0123 50.9676 85.5966 51.554Z" fill="black"/>
<path d="M51.531 35.1C47.3029 35.1 44.4841 37.8941 44.4841 37.8941C41.6998 40.7227 41.6998 45 41.6998 45C41.6998 49.2429 44.4841 52.0714 44.4841 52.0714C47.2685 54.9 51.531 54.9 51.531 54.9C55.6904 54.9 58.5091 52.1059 58.5091 52.1059C61.3623 49.2774 61.3623 45 61.3623 45C61.3623 40.6882 58.5435 37.8941 58.5435 37.8941C55.7591 35.1 51.531 35.1 51.531 35.1ZM51.531 36.4798C54.1779 36.4798 55.7248 38.7909 55.7248 38.7909C57.306 41.0676 57.306 45 57.306 45C57.306 48.9669 55.7591 51.2091 55.7591 51.2091C54.2466 53.4857 51.531 53.4857 51.531 53.4857C48.8498 53.4857 47.3029 51.2091 47.3029 51.2091C45.7216 48.8979 45.7216 45 45.7216 45C45.7216 41.0676 47.2685 38.7909 47.2685 38.7909C48.8498 36.4798 51.531 36.4798 51.531 36.4798Z" fill="black"/>
<path d="M28.6029 35.1C24.3748 35.1 21.5904 37.8941 21.5904 37.8941C18.7716 40.7227 18.7716 45 18.7716 45C18.7716 49.2429 21.5904 52.0714 21.5904 52.0714C24.3748 54.9 28.6029 54.9 28.6029 54.9C32.7966 54.9 35.6154 52.1059 35.6154 52.1059C38.4341 49.2774 38.4341 45 38.4341 45C38.4341 40.6882 35.6498 37.8941 35.6498 37.8941C32.8654 35.1 28.6029 35.1 28.6029 35.1ZM28.6029 36.4798C31.2498 36.4798 32.831 38.7909 32.831 38.7909C34.4123 41.0676 34.4123 45 34.4123 45C34.4123 48.9669 32.8654 51.2091 32.8654 51.2091C31.3185 53.4857 28.6029 53.4857 28.6029 53.4857C25.956 53.4857 24.4091 51.2091 24.4091 51.2091C22.8279 48.8979 22.8279 45 22.8279 45C22.8279 41.0676 24.3748 38.7909 24.3748 38.7909C25.9216 36.4798 28.6029 36.4798 28.6029 36.4798Z" fill="black"/>
<path d="M15.0935 36.3073C15.0935 36.3073 14.6466 36.8592 14.6466 38.239V49.5533C14.6466 49.5533 14.6466 52.2784 12.8248 53.6237C12.8248 53.6237 11.1748 54.9 8.25288 54.9L5.88101 54.5206C5.88101 54.5206 4.60913 54.1411 3.74976 53.4512L4.78101 51.347C4.78101 51.347 5.98413 53.3822 8.25288 53.3822C8.25288 53.3822 9.35288 53.3822 10.0404 52.7268C10.0404 52.7268 10.8654 51.9679 10.8654 50.5192V38.239C10.8654 38.239 10.8654 36.8592 10.4185 36.3073L10.0748 36.0659L9.93726 36.0314V35.5829H15.5748V36.0314L15.4373 36.0659C15.4373 36.0659 15.231 36.1348 15.0935 36.3073Z" fill="black"/>
</svg>
