<svg width="27" height="29" viewBox="0 0 27 29" fill="none" xmlns="http://www.w3.org/2000/svg">
<g clip-path="url(#clip0_21_14016)">
<path d="M0.961666 10.2202C5.09043 9.37611 8.49968 7.2626 11.4744 4.30835C14.4591 7.24672 17.8848 9.40871 22.0119 10.2168C22.064 13.8973 21.5022 17.4173 19.8303 20.695C18.0294 24.2251 15.2661 26.7063 11.6925 28.29C11.5397 28.3577 11.2927 28.305 11.125 28.229C6.0363 25.909 2.93105 21.931 1.58949 16.4964C1.10706 14.5458 0.829492 11.6125 0.961666 10.2202ZM11.4001 6.65503C11.4447 6.6308 11.4315 6.63498 11.4207 6.64417C8.88216 8.83541 6.08504 10.5528 2.84349 11.4679C2.73857 11.4972 2.6064 11.6969 2.61053 11.8139C2.66257 13.4452 2.87735 15.0539 3.31601 16.6276C4.54026 21.0176 7.07386 24.3387 11.1308 26.4171C11.3728 26.5408 11.5785 26.5759 11.8131 26.4171C12.8416 25.7268 13.9601 25.146 14.8894 24.3404C18.682 21.0527 20.1516 16.6961 20.3424 11.7863C20.3523 11.5381 20.2235 11.4913 20.0351 11.4387C18.2756 10.9473 16.611 10.2185 15.0745 9.22986C13.8362 8.43343 12.6574 7.54256 11.3976 6.65503H11.4001Z" fill="white"/>
<path d="M23.8987 3.90155C23.8706 3.56643 23.8417 3.2263 23.8128 2.88783C25.0874 2.70147 26.2786 3.58649 26.4521 4.84256C26.4827 5.06236 26.495 5.28633 26.4959 5.50779C26.4984 11.6202 26.4959 17.7334 26.5 23.8458C26.5 24.5529 26.3687 25.259 25.8738 25.7897C25.436 26.2594 24.8767 26.4683 24.2522 26.4725C21.6525 26.4917 16.435 26.4416 16.435 26.4416C16.435 26.4416 16.6696 26.2502 17.0587 25.8967C17.4816 25.5131 17.6179 25.3635 17.6179 25.3635C17.6179 25.3635 22.04 25.3936 23.9119 25.3919C24.9329 25.3919 25.4121 24.9172 25.4129 23.896C25.4145 17.7418 25.4145 11.5868 25.4129 5.43258C25.4129 4.42805 25.0502 4.06368 23.8995 3.90155H23.8987Z" fill="white"/>
<path d="M11.5975 2.98486C11.8139 2.9414 12.0295 2.86368 12.2459 2.8595C13.0547 2.84446 13.8642 2.85365 14.6647 2.85365C14.9423 1.32597 15.7882 0.473539 17.0397 0.427575C18.2755 0.382446 19.1148 1.18891 19.5188 2.85281C20.2697 2.85281 21.0355 2.85281 21.8004 2.85281C22.5786 2.85281 22.7199 2.99405 22.7199 3.76792C22.7199 4.29693 22.7265 4.82593 22.7174 5.35494C22.7099 5.80623 22.5026 6.01515 22.054 6.01599C19.7146 6.01933 17.3759 6.01933 15.0365 6.01265C14.9084 6.01265 14.749 5.98089 14.6565 5.9015C13.6082 5.00812 12.5689 4.10221 11.5281 3.19964C11.5504 3.12776 11.5735 3.05589 11.5958 2.98402L11.5975 2.98486ZM17.1033 4.16238C17.7997 4.15486 18.3829 3.55816 18.3879 2.84864C18.3928 2.12491 17.7824 1.50815 17.0752 1.52152C16.3557 1.53489 15.7733 2.14998 15.7915 2.87705C15.8088 3.58406 16.4069 4.1699 17.1033 4.16238Z" fill="white"/>
<path d="M7.66284 6.36593C7.69175 5.745 7.65541 5.23605 7.75041 4.75301C7.99906 3.49024 9.08453 2.73977 10.3641 2.88602C10.346 3.22449 10.3286 3.56295 10.3104 3.90309C10.0659 3.94487 9.82718 3.95156 9.61323 4.02844C9.11758 4.20729 8.79045 4.58252 8.78962 5.11236C8.78962 5.49428 8.63184 5.69569 8.35345 5.87621C8.14941 6.00825 7.9561 6.157 7.66284 6.36593Z" fill="white"/>
<path d="M19.5535 8.52227C20.9397 8.52227 22.3259 8.51475 23.712 8.53314C23.8483 8.53481 23.9822 8.6936 24.1177 8.77967C23.9888 8.86826 23.8616 9.02955 23.7302 9.0329C22.838 9.05546 21.9426 9.0914 21.0545 9.02705C20.5382 8.98944 20.0351 8.77466 19.5255 8.64011C19.5354 8.60083 19.5445 8.56155 19.5544 8.52227H19.5535Z" fill="white"/>
<path d="M20.8074 20.8162C20.8529 20.4444 20.9966 20.2789 21.3708 20.2923C22.1374 20.3198 22.9065 20.2872 23.6731 20.3123C23.8235 20.3173 24.0829 20.4527 24.0961 20.5547C24.1316 20.8221 23.8846 20.8162 23.6896 20.8162C22.733 20.8162 21.7756 20.8162 20.8074 20.8162Z" fill="white"/>
<path d="M21.617 18.8715C21.6311 18.4228 21.8359 18.2957 22.2259 18.3225C22.7182 18.3559 23.2147 18.3124 23.707 18.3425C23.8483 18.3509 23.9813 18.4996 24.1184 18.5849C23.978 18.681 23.84 18.8532 23.6955 18.859C23.0106 18.8883 22.3242 18.8724 21.6162 18.8724L21.617 18.8715Z" fill="white"/>
<path d="M22.2284 16.8899C22.1854 16.4712 22.3399 16.3375 22.6992 16.3676C23.0536 16.3977 23.4146 16.3517 23.7682 16.3868C23.8921 16.3993 24.002 16.5523 24.1185 16.6417C24.0119 16.7244 23.9078 16.8724 23.7971 16.8782C23.2792 16.9033 22.7587 16.8891 22.2284 16.8891V16.8899Z" fill="white"/>
<path d="M22.5637 14.9496C22.6025 14.7532 22.6348 14.5928 22.6711 14.4064C23.0519 14.4064 23.4228 14.3863 23.7888 14.4181C23.9045 14.4281 24.0085 14.5752 24.1184 14.6596C24.0061 14.7566 23.9003 14.9254 23.7805 14.9362C23.3873 14.9713 22.9892 14.9496 22.5637 14.9496Z" fill="white"/>
<path d="M22.8033 12.9641C22.8173 12.7652 22.8264 12.6306 22.8388 12.4509C23.1792 12.4509 23.5055 12.4275 23.826 12.4643C23.9325 12.476 24.0218 12.6398 24.1192 12.7342C24.0218 12.8111 23.9292 12.9448 23.826 12.954C23.5038 12.9825 23.1775 12.9649 22.8041 12.9649L22.8033 12.9641Z" fill="white"/>
<path d="M22.9057 11.0193V10.497C23.2296 10.497 23.5402 10.4769 23.845 10.5087C23.9433 10.5187 24.0267 10.6683 24.1168 10.7535C24.0259 10.8421 23.9425 10.9951 23.8425 11.0068C23.5459 11.041 23.2436 11.0193 22.9049 11.0193H22.9057Z" fill="white"/>
<path d="M13.1456 18.1418C13.1456 19.1096 13.1464 20.0255 13.1456 20.9406C13.1447 21.4805 13.1282 21.4964 12.5813 21.498C11.8519 21.4997 11.1225 21.4997 10.3931 21.498C9.83379 21.4972 9.82884 21.4914 9.82884 20.9055C9.82884 20.0038 9.82884 19.1021 9.82884 18.1418H7.69919C6.89734 18.1418 6.49642 17.7393 6.49642 16.9342C6.49642 16.391 6.51376 15.8478 6.49063 15.3054C6.47329 14.8993 6.6352 14.7706 7.02511 14.7814C7.80906 14.804 8.59384 14.7881 9.3778 14.7881C9.51162 14.7881 9.64545 14.7881 9.82884 14.7881C9.82884 13.8571 9.82884 12.9704 9.82884 12.0837C9.82884 11.6542 10.0403 11.4394 10.4633 11.4394C11.2067 11.4394 11.9494 11.4503 12.6929 11.4344C13.0332 11.4269 13.1563 11.5597 13.1505 11.9007C13.1365 12.8451 13.1456 13.7886 13.1456 14.7881C13.9973 14.7881 14.8176 14.7889 15.6379 14.7881C16.5391 14.7864 16.4557 14.7371 16.4573 15.628C16.4582 16.2824 16.459 16.9367 16.4573 17.5911C16.4565 18.1351 16.4507 18.141 15.8948 18.1418C15.0018 18.1427 14.108 18.1418 13.1456 18.1418Z" fill="white"/>
</g>
<defs>
<clipPath id="clip0_21_14016">
<rect width="25.5714" height="27.8961" fill="white" transform="translate(0.928589 0.425781)"/>
</clipPath>
</defs>
</svg>
