<svg width="27" height="27" viewBox="0 0 27 27" fill="none" xmlns="http://www.w3.org/2000/svg">
<path d="M19.3627 3V4.63106C20.5735 4.63106 21.7052 5.00009 22.6352 5.69737C24.2495 6.90639 24.9251 8.51503 24.7057 10.6109C24.561 11.9912 23.9359 13.3328 22.6791 14.9618C21.306 16.7396 19.683 18.2728 18.2748 19.5369C16.9259 20.748 15.5397 21.9713 14.1974 23.1518C13.9693 23.3536 13.7412 23.5534 13.5131 23.7553C13.0064 23.3087 12.5019 22.8684 12.004 22.4341C9.61109 20.3463 7.34974 18.3727 5.31651 16.126C4.07068 14.7477 3.29643 13.606 2.80731 12.4255C2.02867 10.5416 2.07473 8.8657 2.94988 7.306C3.87547 5.65659 5.67841 4.6331 7.6612 4.6331C8.40913 4.6331 9.14391 4.77582 9.84797 5.05921C10.7538 5.42416 11.5061 5.94406 12.1466 6.6495L13.3398 7.96454L14.6887 6.7861C14.8181 6.67396 14.9431 6.55979 15.0682 6.44765C15.3028 6.23562 15.5244 6.03581 15.7371 5.87067C16.7724 5.07145 18.0599 4.6331 19.3627 4.6331V3ZM19.3627 3C17.6936 3 16.0069 3.54233 14.6163 4.61475C14.2237 4.9165 13.8684 5.2631 13.4846 5.59746C12.6664 4.6963 11.6838 4.02145 10.5411 3.56272C9.60012 3.18146 8.62189 3 7.6612 3C5.09498 3 2.66036 4.29262 1.39479 6.55164C0.214768 8.65774 0.269602 10.8311 1.17107 13.0106C1.81811 14.5744 2.83582 15.918 3.97417 17.176C6.87159 20.381 10.2669 23.0865 13.4977 26.002C13.5789 25.9368 13.6337 25.896 13.6863 25.8512C15.6253 24.1385 17.573 22.4382 19.4965 20.7092C21.1525 19.2209 22.7471 17.6714 24.1048 15.9139C25.2936 14.3746 26.2477 12.7232 26.4538 10.77C26.7236 8.19697 25.877 6.0297 23.7385 4.42718C22.4619 3.47097 20.92 3 19.3627 3Z" fill="#0E0E0E"/>
</svg>
