<svg width="188" height="48" viewBox="0 0 188 48" fill="none" xmlns="http://www.w3.org/2000/svg">
<path d="M15.7406 11.3476H9.71064V5.42077C9.71064 4.92076 9.42262 4.70735 8.77919 4.70735C8.13575 4.70735 7.84773 4.99393 7.84773 5.42077V26.1953C7.84773 26.6953 8.13575 26.9087 8.77919 26.9087C9.35522 26.9087 9.71064 26.6222 9.71064 26.1953V18.8416H15.7406V26.4087C15.7406 27.8356 15.0236 28.9819 13.6571 29.8356C12.2905 30.6893 10.6421 31.1222 8.92013 31.1222C3.82778 31.1222 1.31531 29.3356 1.31531 25.6953V6.41468C1.31531 2.56099 3.90132 0.560975 8.92013 0.560975C13.51 0.560975 15.808 2.34758 15.808 5.84151L15.7344 11.3415L15.7406 11.3476Z" fill="url(#paint0_linear_5_24301)"/>
<path d="M23.1309 30.8417H17.101V0.853661H23.1309V30.8417Z" fill="url(#paint1_linear_5_24301)"/>
<path d="M38.6286 30.8417H33.3217V29.9149C32.8928 30.7746 31.5998 31.2015 29.4489 31.2015C26.1459 31.2015 24.571 29.9149 24.571 27.4148V22.5611C24.571 21.488 24.9999 20.5611 25.7169 19.7075C26.5074 18.9209 28.0823 17.8538 30.4539 16.7074C31.8143 15.994 32.5374 15.4209 32.5374 14.994V11.4269C32.5374 10.6403 32.1758 10.2135 31.5324 10.2135C30.7419 10.2135 30.3864 11.2135 30.3864 13.1403C30.3864 13.5001 30.3864 14.0001 30.46 14.7135C30.5335 15.4269 30.5335 15.927 30.5335 16.2867H24.7916V11.433C24.7916 8.1464 27.157 6.50615 31.8939 6.50615C36.3428 6.50615 38.5673 8.21957 38.5673 11.6464L38.6408 30.8539L38.6286 30.8417ZM32.6722 26.3417V20.0611C31.3118 20.4209 30.5887 20.988 30.5887 21.9148V26.3417C30.5887 27.0551 30.9502 27.4819 31.6672 27.4819C32.3106 27.4087 32.6722 27.0551 32.6722 26.3417Z" fill="url(#paint2_linear_5_24301)"/>
<path d="M39.989 21.1282H46.0189V26.2685C46.0189 27.1283 46.3805 27.4819 47.0239 27.4819C47.6673 27.4819 48.0289 26.6953 48.0289 25.1282C48.0289 23.0551 47.5999 21.7746 46.8094 21.1282C43.6535 19.488 41.7845 18.3416 41.141 17.7014C40.4976 17.0611 40.1361 16.0611 40.1361 14.7745V11.5611C40.1361 8.1342 42.4341 6.42078 47.0974 6.42078C51.7608 6.42078 53.8444 8.06103 53.8444 11.3476V16.1343H48.035L48.176 13.2074C48.176 11.2074 47.8144 10.2074 47.03 10.2074C46.3131 10.2074 45.8841 10.8476 45.8841 12.1342C45.8841 13.4208 46.0251 14.4208 46.3866 15.1343C46.6746 15.7745 48.5375 16.9879 51.8405 18.5611C53.2009 19.5611 53.924 20.8477 53.924 22.488V26.1282C53.924 29.6405 51.5586 31.2685 46.8217 31.2685C42.0848 31.2685 39.8603 29.6283 39.8603 26.3417L40.0012 21.1282H39.989Z" fill="url(#paint3_linear_5_24301)"/>
<path d="M55.2048 21.1282H61.2347V26.2685C61.2347 27.1283 61.5962 27.4819 62.2397 27.4819C62.8831 27.4819 63.2447 26.6953 63.2447 25.1282C63.2447 23.0551 62.8157 21.7746 62.0252 21.1282C58.8693 19.488 57.0003 18.3416 56.3568 17.7014C55.7134 17.0611 55.3518 16.0611 55.3518 14.7745V11.5611C55.3518 8.1342 57.6498 6.42078 62.3132 6.42078C66.9766 6.42078 69.0601 8.06103 69.0601 11.3476V16.1343H63.1773L63.3182 13.2074C63.3182 11.2074 62.9567 10.2074 62.1723 10.2074C61.4553 10.2074 61.0263 10.8476 61.0263 12.1342C61.0263 13.4208 61.1673 14.4208 61.5288 15.1343C61.8169 15.7745 63.6798 16.9879 66.9827 18.5611C68.3432 19.5611 69.0663 20.8477 69.0663 22.488V26.1282C69.0601 29.6405 66.7009 31.2685 61.9639 31.2685C57.227 31.2685 55.0025 29.6283 55.0025 26.3417V21.1282H55.217H55.2048Z" fill="url(#paint4_linear_5_24301)"/>
<path d="M76.2973 5.28052H70.2673V0.926832H76.2973V5.28052ZM76.2973 30.8417H70.2673V6.56712H76.2973V30.8417Z" fill="url(#paint5_linear_5_24301)"/>
<path d="M91.5805 17.3477H85.5505V11.3476C85.5505 10.5611 85.189 10.1342 84.5455 10.1342C83.8286 10.1342 83.5405 10.5611 83.5405 11.3476V26.2014C83.5405 27.0612 83.9021 27.4148 84.5455 27.4148C85.189 27.4148 85.5505 26.988 85.5505 26.2014V20.3477H91.5805V26.2746C91.5805 29.6405 89.2825 31.2015 84.6926 31.2015C80.1027 31.2015 77.5903 29.488 77.5903 26.0612V11.5672C77.5903 7.994 79.9557 6.42688 84.6926 6.42688C89.4295 6.42688 91.5805 8.06713 91.5805 11.3537V17.3538V17.3477Z" fill="url(#paint6_linear_5_24301)"/>
<path d="M96.538 25.6343V6.35371C96.538 2.50002 99.0505 0.5 104.143 0.5C109.235 0.5 111.607 2.42684 111.607 6.28053V25.5612C111.607 27.2746 110.89 28.6283 109.523 29.5612C108.157 30.4941 106.294 30.988 104.069 30.988C99.0443 31.0612 96.538 29.3356 96.538 25.6343ZM105.221 25.988V5.56711C105.221 4.99394 104.86 4.70735 104.143 4.70735C103.426 4.70735 102.997 4.99394 102.997 5.56711V25.988C102.997 26.5612 103.358 26.8478 104.143 26.8478C104.86 26.8478 105.221 26.5612 105.221 25.988Z" fill="url(#paint7_linear_5_24301)"/>
<path d="M118.923 30.2746V35.9881H112.894V6.64029H117.416L117.919 7.6403C118.923 6.85371 120.069 6.50005 121.436 6.50005C122.803 6.50005 124.022 6.8598 125.241 7.50005C126.387 8.21347 126.963 9.14031 126.963 10.4269V27.8478C126.963 28.8478 126.534 29.7014 125.67 30.2746C124.806 30.8478 123.807 31.2015 122.588 31.2015C120.94 31.2015 119.72 30.9149 118.93 30.2746H118.923ZM121.007 11.3537C121.007 10.6403 120.645 10.2135 120.002 10.2135C119.285 10.2135 118.923 10.5733 118.923 11.3537V26.4209C118.923 27.1344 119.285 27.4941 120.002 27.4941C120.645 27.4209 121.007 27.0673 121.007 26.3539V11.3537Z" fill="url(#paint8_linear_5_24301)"/>
<path d="M140.096 30.7746H136.29C133.563 30.7746 131.982 30.3478 131.412 29.5612C130.836 28.7746 130.622 29.0308 130.622 24.9209V10.1403H127.968V6.57322H130.622V1.64635H136.652V6.50005H139.881V10.0671H136.652V24.8477C136.652 25.5612 136.866 26.0612 137.295 26.2746C137.724 26.5612 138.656 26.6343 140.096 26.6343V30.7746Z" fill="url(#paint9_linear_5_24301)"/>
<path d="M147.124 5.21345H141.095V0.859758H147.124V5.21345ZM147.124 30.7746H141.095V6.50005H147.124V30.7746Z" fill="url(#paint10_linear_5_24301)"/>
<path d="M162.334 17.2806H156.304V11.2806C156.304 10.494 155.943 10.0671 155.299 10.0671C154.582 10.0671 154.294 10.494 154.294 11.2806V26.1343C154.294 26.9941 154.656 27.3478 155.299 27.3478C155.943 27.3478 156.304 26.9209 156.304 26.1343V20.2806H162.334V26.2075C162.334 29.6404 160.036 31.1344 155.446 31.1344C150.856 31.1344 148.344 29.421 148.344 25.9941V11.5001C148.344 7.99392 150.709 6.3598 155.446 6.3598C160.183 6.3598 162.334 8.00006 162.334 11.2867V17.2867V17.2806Z" fill="url(#paint11_linear_5_24301)"/>
<path d="M177.764 30.7746H172.458V29.8478C172.029 30.7076 170.736 31.1344 168.585 31.1344C165.282 31.1344 163.707 29.8478 163.707 27.3478V22.4941C163.707 21.4209 164.136 20.4941 164.853 19.6404C165.643 18.8538 167.218 17.7867 169.59 16.6404C170.95 15.927 171.673 15.3538 171.673 14.9269V11.3598C171.673 10.5732 171.312 10.1464 170.668 10.1464C169.878 10.1464 169.522 11.1464 169.522 13.0733C169.522 13.433 169.522 13.933 169.596 14.6465C169.669 15.3599 169.669 15.8599 169.669 16.2196H163.927V11.3659C163.927 8.07933 166.293 6.43907 171.03 6.43907C175.479 6.43907 177.703 8.15249 177.703 11.5793V30.7868H177.777L177.764 30.7746ZM171.808 26.2075V19.927C170.448 20.2867 169.724 20.8538 169.724 21.7807V26.2075C169.724 26.9209 170.086 27.3478 170.803 27.3478C171.446 27.3478 171.808 26.988 171.808 26.2075Z" fill="url(#paint12_linear_5_24301)"/>
<path d="M185.155 30.7746H179.125V0.859758H185.155V30.7746Z" fill="url(#paint13_linear_5_24301)"/>
<path d="M5.4641 38.0224C5.40231 37.8285 5.31921 37.6548 5.21481 37.5014C5.11254 37.3459 4.99002 37.2138 4.84727 37.1051C4.70451 36.9943 4.54152 36.9102 4.35828 36.8526C4.17717 36.7951 3.97795 36.7663 3.76062 36.7663C3.39201 36.7663 3.05963 36.8612 2.76346 37.0508C2.4673 37.2404 2.23292 37.5185 2.06034 37.8849C1.88988 38.2493 1.80465 38.6957 1.80465 39.2241C1.80465 39.7546 1.89095 40.2031 2.06353 40.5696C2.23612 40.9361 2.47262 41.2141 2.77305 41.4038C3.07348 41.5934 3.41545 41.6882 3.79897 41.6882C4.1548 41.6882 4.46481 41.6158 4.72902 41.4709C4.99535 41.326 5.20096 41.1214 5.34585 40.8572C5.49286 40.5909 5.56637 40.2777 5.56637 39.9176L5.82205 39.9656H3.94919V39.1506H6.52198V39.8952C6.52198 40.445 6.4048 40.9222 6.17042 41.3271C5.93818 41.7298 5.61644 42.0408 5.20522 42.2603C4.79613 42.4798 4.32738 42.5895 3.79897 42.5895C3.20664 42.5895 2.68676 42.4531 2.23931 42.1804C1.794 41.9077 1.4467 41.521 1.19741 41.0202C0.94812 40.5174 0.823475 39.9208 0.823475 39.2305C0.823475 38.7085 0.895918 38.2397 1.0408 37.8242C1.18569 37.4087 1.38917 37.0561 1.65125 36.7663C1.91545 36.4744 2.22546 36.2518 2.58129 36.0984C2.93924 35.9428 3.33022 35.8651 3.75423 35.8651C4.10792 35.8651 4.43711 35.9173 4.7418 36.0217C5.04862 36.1261 5.32134 36.2741 5.55998 36.4659C5.80075 36.6577 5.99997 36.8857 6.15764 37.1499C6.31531 37.4119 6.42184 37.7028 6.47724 38.0224H5.4641ZM9.57562 42.5V35.9545H13.6793V36.8047H10.5632V38.799H13.4652V39.646H10.5632V41.6499H13.7177V42.5H9.57562ZM16.4757 36.8047V35.9545H21.5414V36.8047H19.4991V42.5H18.5147V36.8047H16.4757ZM28.6426 42.5V35.9545H30.9757C31.4828 35.9545 31.9036 36.0419 32.2381 36.2166C32.5748 36.3913 32.8262 36.6332 32.9924 36.9421C33.1586 37.2489 33.2417 37.6037 33.2417 38.0064C33.2417 38.407 33.1575 38.7596 32.9892 39.0643C32.823 39.3668 32.5716 39.6023 32.2349 39.7706C31.9004 39.9389 31.4796 40.0231 30.9725 40.0231H29.2051V39.1729H30.883C31.2026 39.1729 31.4626 39.1271 31.6629 39.0355C31.8653 38.9439 32.0134 38.8107 32.1071 38.636C32.2009 38.4613 32.2477 38.2514 32.2477 38.0064C32.2477 37.7592 32.1998 37.5451 32.1039 37.364C32.0102 37.1829 31.8621 37.0444 31.6597 36.9485C31.4594 36.8505 31.1962 36.8015 30.8702 36.8015H29.6302V42.5H28.6426ZM31.8738 39.5469L33.491 42.5H32.366L30.7808 39.5469H31.8738ZM36.2434 42.5V35.9545H40.3471V36.8047H37.231V38.799H40.133V39.646H37.231V41.6499H40.3854V42.5H36.2434ZM44.0192 42.5H42.9709L45.3263 35.9545H46.4673L48.8228 42.5H47.7745L45.924 37.1435H45.8729L44.0192 42.5ZM44.1949 39.9368H47.5955V40.7678H44.1949V39.9368ZM53.687 42.5H51.568V35.9545H53.7541C54.3954 35.9545 54.9462 36.0856 55.4064 36.3477C55.8667 36.6076 56.2193 36.9815 56.4643 37.4695C56.7115 37.9553 56.8351 38.538 56.8351 39.2177C56.8351 39.8995 56.7104 40.4854 56.4611 40.9755C56.214 41.4656 55.856 41.8427 55.3873 42.1069C54.9185 42.369 54.3517 42.5 53.687 42.5ZM52.5556 41.6371H53.6326C54.1312 41.6371 54.5456 41.5433 54.8759 41.3558C55.2061 41.1662 55.4533 40.8924 55.6174 40.5344C55.7814 40.1744 55.8635 39.7354 55.8635 39.2177C55.8635 38.7042 55.7814 38.2685 55.6174 37.9105C55.4554 37.5526 55.2136 37.2809 54.8919 37.0955C54.5701 36.9102 54.1706 36.8175 53.6934 36.8175H52.5556V41.6371ZM59.0242 35.9545H60.146L61.8558 38.93H61.9262L63.636 35.9545H64.7578L62.3832 39.9304V42.5H61.3988V39.9304L59.0242 35.9545ZM71.3493 36.8047V35.9545H76.415V36.8047H74.3727V42.5H73.3884V36.8047H71.3493ZM84.7389 39.2273C84.7389 39.9261 84.611 40.527 84.3554 41.0298C84.0997 41.5305 83.7492 41.9162 83.3039 42.1868C82.8607 42.4553 82.3568 42.5895 81.7922 42.5895C81.2254 42.5895 80.7194 42.4553 80.274 42.1868C79.8309 41.9162 79.4814 41.5295 79.2258 41.0266C78.9701 40.5238 78.8422 39.924 78.8422 39.2273C78.8422 38.5284 78.9701 37.9286 79.2258 37.4279C79.4814 36.9251 79.8309 36.5394 80.274 36.271C80.7194 36.0004 81.2254 35.8651 81.7922 35.8651C82.3568 35.8651 82.8607 36.0004 83.3039 36.271C83.7492 36.5394 84.0997 36.9251 84.3554 37.4279C84.611 37.9286 84.7389 38.5284 84.7389 39.2273ZM83.7609 39.2273C83.7609 38.6946 83.6746 38.2461 83.502 37.8817C83.3316 37.5153 83.0972 37.2383 82.7989 37.0508C82.5027 36.8612 82.1672 36.7663 81.7922 36.7663C81.415 36.7663 81.0784 36.8612 80.7822 37.0508C80.486 37.2383 80.2517 37.5153 80.0791 37.8817C79.9086 38.2461 79.8234 38.6946 79.8234 39.2273C79.8234 39.7599 79.9086 40.2095 80.0791 40.576C80.2517 40.9403 80.486 41.2173 80.7822 41.407C81.0784 41.5945 81.415 41.6882 81.7922 41.6882C82.1672 41.6882 82.5027 41.5945 82.7989 41.407C83.0972 41.2173 83.3316 40.9403 83.502 40.576C83.6746 40.2095 83.7609 39.7599 83.7609 39.2273ZM95.5219 37.674C95.4879 37.3714 95.3472 37.1371 95.1001 36.9709C94.8529 36.8026 94.5418 36.7184 94.1668 36.7184C93.8984 36.7184 93.6661 36.761 93.4701 36.8462C93.2741 36.9293 93.1217 37.0444 93.0131 37.1914C92.9065 37.3363 92.8533 37.5014 92.8533 37.6868C92.8533 37.8423 92.8895 37.9766 92.9619 38.0895C93.0365 38.2024 93.1335 38.2972 93.2528 38.3739C93.3742 38.4485 93.5042 38.5114 93.6427 38.5625C93.7812 38.6115 93.9144 38.652 94.0422 38.6839L94.6814 38.8501C94.8902 38.9013 95.1043 38.9705 95.3238 39.0579C95.5433 39.1452 95.7467 39.2603 95.9342 39.4031C96.1217 39.5458 96.273 39.7227 96.3881 39.9336C96.5053 40.1445 96.5639 40.397 96.5639 40.6911C96.5639 41.0618 96.468 41.391 96.2762 41.6786C96.0866 41.9663 95.8107 42.1932 95.4484 42.3594C95.0884 42.5256 94.6526 42.6087 94.1413 42.6087C93.6512 42.6087 93.2272 42.5309 92.8693 42.3754C92.5113 42.2198 92.2311 41.9993 92.0287 41.7138C91.8263 41.4261 91.7144 41.0852 91.6931 40.6911H92.6839C92.7031 40.9276 92.7798 41.1246 92.914 41.2823C93.0504 41.4379 93.224 41.554 93.4349 41.6307C93.648 41.7053 93.8813 41.7425 94.1349 41.7425C94.414 41.7425 94.6622 41.6989 94.8795 41.6115C95.099 41.522 95.2716 41.3984 95.3973 41.2408C95.523 41.081 95.5859 40.8945 95.5859 40.6815C95.5859 40.4876 95.5305 40.3288 95.4197 40.2053C95.311 40.0817 95.1629 39.9794 94.9754 39.8984C94.7901 39.8175 94.5802 39.7461 94.3458 39.6843L93.5724 39.4734C93.0482 39.3306 92.6327 39.1207 92.3259 38.8438C92.0212 38.5668 91.8689 38.2003 91.8689 37.7443C91.8689 37.3672 91.9712 37.038 92.1757 36.7567C92.3803 36.4755 92.6572 36.2571 93.0067 36.1016C93.3561 35.9439 93.7503 35.8651 94.1892 35.8651C94.6324 35.8651 95.0234 35.9428 95.3621 36.0984C95.7031 36.2539 95.9715 36.468 96.1675 36.7408C96.3636 37.0114 96.4658 37.3224 96.4744 37.674H95.5219ZM99.544 42.5V35.9545H103.648V36.8047H100.532V38.799H103.434V39.646H100.532V41.6499H103.686V42.5H99.544ZM106.767 42.5V35.9545H110.871V36.8047H107.754V38.799H110.656V39.646H107.754V41.6499H110.909V42.5H106.767ZM117.849 36.8047V35.9545H122.914V36.8047H120.872V42.5H119.888V36.8047H117.849ZM125.834 42.5V35.9545H126.821V38.799H130.085V35.9545H131.075V42.5H130.085V39.646H126.821V42.5H125.834ZM134.314 42.5V35.9545H138.417V36.8047H135.301V38.799H138.203V39.646H135.301V41.6499H138.456V42.5H134.314ZM147 42.5L145.184 35.9545H146.223L147.498 41.0234H147.559L148.885 35.9545H149.915L151.241 41.0266H151.302L152.574 35.9545H153.616L151.797 42.5H150.803L149.426 37.5973H149.374L147.997 42.5H147ZM161.677 39.2273C161.677 39.9261 161.549 40.527 161.293 41.0298C161.037 41.5305 160.687 41.9162 160.242 42.1868C159.798 42.4553 159.294 42.5895 158.73 42.5895C158.163 42.5895 157.657 42.4553 157.212 42.1868C156.769 41.9162 156.419 41.5295 156.163 41.0266C155.908 40.5238 155.78 39.924 155.78 39.2273C155.78 38.5284 155.908 37.9286 156.163 37.4279C156.419 36.9251 156.769 36.5394 157.212 36.271C157.657 36.0004 158.163 35.8651 158.73 35.8651C159.294 35.8651 159.798 36.0004 160.242 36.271C160.687 36.5394 161.037 36.9251 161.293 37.4279C161.549 37.9286 161.677 38.5284 161.677 39.2273ZM160.699 39.2273C160.699 38.6946 160.612 38.2461 160.44 37.8817C160.269 37.5153 160.035 37.2383 159.737 37.0508C159.44 36.8612 159.105 36.7663 158.73 36.7663C158.353 36.7663 158.016 36.8612 157.72 37.0508C157.424 37.2383 157.189 37.5153 157.017 37.8817C156.846 38.2461 156.761 38.6946 156.761 39.2273C156.761 39.7599 156.846 40.2095 157.017 40.576C157.189 40.9403 157.424 41.2173 157.72 41.407C158.016 41.5945 158.353 41.6882 158.73 41.6882C159.105 41.6882 159.44 41.5945 159.737 41.407C160.035 41.2173 160.269 40.9403 160.44 40.576C160.612 40.2095 160.699 39.7599 160.699 39.2273ZM164.708 42.5V35.9545H167.041C167.548 35.9545 167.969 36.0419 168.303 36.2166C168.64 36.3913 168.891 36.6332 169.058 36.9421C169.224 37.2489 169.307 37.6037 169.307 38.0064C169.307 38.407 169.223 38.7596 169.054 39.0643C168.888 39.3668 168.637 39.6023 168.3 39.7706C167.966 39.9389 167.545 40.0231 167.038 40.0231H165.27V39.1729H166.948C167.268 39.1729 167.528 39.1271 167.728 39.0355C167.931 38.9439 168.079 38.8107 168.172 38.636C168.266 38.4613 168.313 38.2514 168.313 38.0064C168.313 37.7592 168.265 37.5451 168.169 37.364C168.075 37.1829 167.927 37.0444 167.725 36.9485C167.525 36.8505 167.261 36.8015 166.935 36.8015H165.695V42.5H164.708ZM167.939 39.5469L169.556 42.5H168.431L166.846 39.5469H167.939ZM172.309 42.5V35.9545H173.296V41.6499H176.262V42.5H172.309ZM181.308 42.5H179.189V35.9545H181.375C182.016 35.9545 182.567 36.0856 183.027 36.3477C183.487 36.6076 183.84 36.9815 184.085 37.4695C184.332 37.9553 184.456 38.538 184.456 39.2177C184.456 39.8995 184.331 40.4854 184.082 40.9755C183.835 41.4656 183.477 41.8427 183.008 42.1069C182.539 42.369 181.972 42.5 181.308 42.5ZM180.176 41.6371H181.253C181.752 41.6371 182.166 41.5433 182.497 41.3558C182.827 41.1662 183.074 40.8924 183.238 40.5344C183.402 40.1744 183.484 39.7354 183.484 39.2177C183.484 38.7042 183.402 38.2685 183.238 37.9105C183.076 37.5526 182.834 37.2809 182.513 37.0955C182.191 36.9102 181.791 36.8175 181.314 36.8175H180.176V41.6371Z" fill="#3F664B"/>
<path d="M171.952 19.7622C166.809 22.4446 158.901 25.4041 152.804 25.4041C149.65 25.4041 146.945 23.9095 143.483 22.1575C138.778 19.782 137.912 24.1174 132.77 21.3459C129.994 19.8513 127.1 21.5538 124.095 21.6824C120.266 21.8408 119.908 19.0298 117.391 19.9602C110.935 22.3357 104.758 22.2763 104.489 19.0001C104.449 18.5348 104.778 18.0003 103.763 18.1092C101.077 18.3864 97.705 22.8108 95.7951 22.3852C94.0146 21.9992 97.4564 19.0396 98.5207 18.1092C103.972 13.3779 110.318 8.26065 116.575 5.47929C118.455 4.64785 116.655 6.56807 115.76 6.98379C111.164 9.12178 104.807 13.4769 100.848 17.9904C100.968 18.2181 101.197 17.9904 101.316 17.9904C109.234 14.9814 104.549 19.3762 107.672 20.3264C108.617 20.6134 108.985 20.2769 109.672 19.8117C111.184 18.7922 114.785 16.5651 116.814 18.0993C118.575 19.4356 119.738 18.3864 120.922 19.4455C121.499 19.9602 121.997 20.3066 123.916 20.4155C127.08 20.5936 130.691 19.1188 133.237 20.5343C135.585 21.8408 135.973 21.1578 139.056 20.1878C141.503 19.4257 145.721 22.4347 148.725 23.4344C154.654 25.3942 159.06 23.9491 166.66 20.9995C169.555 19.8711 174.688 16.7136 175.255 17.3372C175.822 17.9608 173.773 18.812 171.952 19.7622ZM114.606 19.1485C114.516 18.6833 113.72 18.8021 112.855 19.0594C111.989 19.3168 111.253 19.7028 111.452 20.1878C111.651 20.6728 114.705 19.6632 114.596 19.1485H114.606Z" fill="#E34B55"/>
<path d="M93.8753 18.1389C87.9765 24.0877 85.052 26.869 82.1076 37.3412C81.5605 39.301 81.5803 42.3694 82.2269 44.062C84.8829 42.1517 85.2111 45.8733 82.8636 47.1205C80.516 48.3676 79.8992 45.8931 79.6605 44.1709C79.1234 40.2215 80.4861 34.8073 82.3363 31.1945C86.0567 23.959 90.0456 19.7919 98.6401 13.1107C98.9186 12.8929 99.2469 12.7148 99.4558 12.8831C99.6647 13.0513 96.4019 15.5852 93.8753 18.129V18.1389Z" fill="#E34B55"/>
<path d="M76.9747 20.1878C79.5411 19.4356 79.6705 17.0303 82.4856 16.7631C82.8835 16.7235 83.1321 16.8621 82.9232 17.1788C82.4557 17.9014 80.7348 18.2478 80.9437 19.0298C81.083 19.5741 81.839 19.0891 82.3463 18.8021C83.4604 18.1389 83.8981 16.7136 85.3703 16.8324C86.0268 16.8918 85.987 17.2679 85.8378 17.5252C85.2708 18.4755 84.7934 19.3762 85.8378 19.1485C88.0461 18.4557 89.0011 16.6938 90.2644 14.051C90.4534 13.665 90.7319 13.0414 91.667 13.5858C93.2387 14.5063 89.3294 17.9805 88.4043 18.8021C87.7079 19.4158 87.3697 19.9701 84.4452 19.7325C81.083 19.4554 80.4165 20.8807 77.4522 20.9302C76.1988 20.95 74.9753 20.3957 73.8612 21.3162C72.956 22.0685 74.1497 23.3849 71.5136 22.3951C70.3498 21.9596 67.654 23.0781 65.6546 21.9992C63.884 21.0391 65.764 18.8813 67.3556 17.9212C70.9665 15.7535 74.836 15.6743 76.4177 17.06C77.6014 18.0993 75.9501 19.5444 75.9501 19.8414C75.9501 20.2175 76.3182 20.3759 76.9946 20.1878H76.9747ZM68.4796 21.2865C70.8471 21.0984 72.4089 20.7619 74.4282 19.3465C75.3234 18.7229 75.2737 17.6539 74.2591 17.5648C70.31 17.2085 68.3503 18.4656 67.1268 19.5247C66.2116 20.3165 66.53 21.435 68.4896 21.2865H68.4796Z" fill="#E34B55"/>
<path d="M52.0565 24.0085C51.0319 24.0976 49.9278 24.5133 48.0577 25.3051C43.8002 27.1066 34.8177 31.0955 28.4116 32.4713C22.8112 33.6789 12.7445 34.6489 11.3419 31.3925C10.1184 28.5616 14.1172 26.7799 19.3297 25.6318C26.8499 23.9689 31.5649 23.9689 46.2373 23.4344C51.8974 23.2265 60.0244 18.5843 62.8892 11.8438C63.1777 11.1707 64.5405 8.14187 60.9196 5.46939C58.5223 3.69763 55.3491 3.41059 51.0021 4.31132C44.9243 5.56837 39.5427 8.46851 37.603 10.3393C37.0758 10.8441 35.9617 11.2796 35.6235 10.8044C35.2852 10.3293 36.1407 9.98291 36.9067 9.5276C38.6872 8.46851 56.2543 -1.3009 62.6505 5.12296C69.2655 11.7646 58.4626 19.3465 55.6177 20.9698C54.1256 21.821 53.1607 21.9695 53.3298 22.8108C53.5884 24.1174 66.2614 22.7811 66.2614 23.9095C66.2614 25.0379 56.5527 23.6423 52.0466 24.0283L52.0565 24.0085ZM47.8587 24.3648C47.8587 24.3648 35.8423 24.0976 20.1354 26.3345C17.6784 26.681 14.1471 27.9776 13.0728 29.2347C11.9984 30.4917 13.1026 31.5706 14.545 32.1348C17.9768 33.4612 27.208 31.9863 33.1267 30.0265C41.383 27.2847 47.8587 24.3648 47.8587 24.3648Z" fill="#E34B55"/>
<defs>
<linearGradient id="paint0_linear_5_24301" x1="93.2739" y1="0.599129" x2="93.2739" y2="35.981" gradientUnits="userSpaceOnUse">
<stop stop-color="#3F664B"/>
<stop offset="1" stop-color="#2D3B2C"/>
</linearGradient>
<linearGradient id="paint1_linear_5_24301" x1="93.235" y1="0.557728" x2="93.235" y2="36.0097" gradientUnits="userSpaceOnUse">
<stop stop-color="#3F664B"/>
<stop offset="1" stop-color="#2D3B2C"/>
</linearGradient>
<linearGradient id="paint2_linear_5_24301" x1="93.0749" y1="0.403613" x2="93.0749" y2="35.9881" gradientUnits="userSpaceOnUse">
<stop stop-color="#3F664B"/>
<stop offset="1" stop-color="#2D3B2C"/>
</linearGradient>
<linearGradient id="paint3_linear_5_24301" x1="93.0348" y1="0.5" x2="93.0348" y2="35.8662" gradientUnits="userSpaceOnUse">
<stop stop-color="#3F664B"/>
<stop offset="1" stop-color="#2D3B2C"/>
</linearGradient>
<linearGradient id="paint4_linear_5_24301" x1="93.0348" y1="0.5" x2="93.0348" y2="35.8662" gradientUnits="userSpaceOnUse">
<stop stop-color="#3F664B"/>
<stop offset="1" stop-color="#2D3B2C"/>
</linearGradient>
<linearGradient id="paint5_linear_5_24301" x1="93.235" y1="0.492766" x2="93.235" y2="36.0315" gradientUnits="userSpaceOnUse">
<stop stop-color="#3F664B"/>
<stop offset="1" stop-color="#2D3B2C"/>
</linearGradient>
<linearGradient id="paint6_linear_5_24301" x1="93.2753" y1="0.491266" x2="93.2753" y2="35.9182" gradientUnits="userSpaceOnUse">
<stop stop-color="#3F664B"/>
<stop offset="1" stop-color="#2D3B2C"/>
</linearGradient>
<linearGradient id="paint7_linear_5_24301" x1="93.2724" y1="0.592262" x2="93.2724" y2="36.0778" gradientUnits="userSpaceOnUse">
<stop stop-color="#3F664B"/>
<stop offset="1" stop-color="#2D3B2C"/>
</linearGradient>
<linearGradient id="paint8_linear_5_24301" x1="93.235" y1="0.441293" x2="93.235" y2="36.0174" gradientUnits="userSpaceOnUse">
<stop stop-color="#3F664B"/>
<stop offset="1" stop-color="#2D3B2C"/>
</linearGradient>
<linearGradient id="paint9_linear_5_24301" x1="93.1886" y1="0.492571" x2="93.1886" y2="35.9509" gradientUnits="userSpaceOnUse">
<stop stop-color="#3F664B"/>
<stop offset="1" stop-color="#2D3B2C"/>
</linearGradient>
<linearGradient id="paint10_linear_5_24301" x1="182.14" y1="0.853715" x2="182.14" y2="30.7747" gradientUnits="userSpaceOnUse">
<stop stop-color="#3F664B"/>
<stop offset="1" stop-color="#2D3B2C"/>
</linearGradient>
<linearGradient id="paint11_linear_5_24301" x1="93.2753" y1="0.491266" x2="93.2753" y2="35.9269" gradientUnits="userSpaceOnUse">
<stop stop-color="#3F664B"/>
<stop offset="1" stop-color="#2D3B2C"/>
</linearGradient>
<linearGradient id="paint12_linear_5_24301" x1="93.0749" y1="0.3598" x2="93.0749" y2="35.9443" gradientUnits="userSpaceOnUse">
<stop stop-color="#3F664B"/>
<stop offset="1" stop-color="#2D3B2C"/>
</linearGradient>
<linearGradient id="paint13_linear_5_24301" x1="182.14" y1="0.853715" x2="182.14" y2="30.7747" gradientUnits="userSpaceOnUse">
<stop stop-color="#3F664B"/>
<stop offset="1" stop-color="#2D3B2C"/>
</linearGradient>
</defs>
</svg>
