<svg width="406" height="134" viewBox="0 0 406 134" fill="none" xmlns="http://www.w3.org/2000/svg">
<path d="M2.79713 38.6308C12.1263 28.2112 21.3343 18.0339 30.5423 7.73544C27.7557 4.9488 26.0595 3.73722 22.9094 0.950579C16.9726 7.49312 7.15882 18.6397 1.70671 24.6976C-0.5953 27.3631 -1.07993 31.119 0.495123 34.2691C1.34323 35.8441 2.19134 37.5403 2.79713 38.7519V38.6308Z" fill="black"/>
<path d="M96.8159 49.535C83.6096 49.535 76.4613 55.3506 74.6439 66.6183C74.6439 67.3453 74.6439 69.6473 74.4016 71.9493C74.4016 75.8263 71.2515 78.8553 67.3744 78.9764H66.5263C62.6493 78.9764 59.4991 75.8263 59.4991 71.9493V67.7087C59.4991 54.7448 48.9584 44.3252 36.1156 44.3252H23.5152C23.5152 44.3252 38.6599 28.2112 45.9294 20.2147C42.1735 17.0646 34.1771 10.6432 34.1771 10.6432C34.1771 10.6432 17.0938 29.6651 8.97618 38.8731C7.15881 41.0539 6.18955 43.5983 6.18955 46.3849V62.1355H37.3272C41.2043 62.1355 44.3544 65.2856 44.3544 69.1626V71.9493C44.3544 75.8263 41.2043 78.9764 37.3272 78.9764H6.18955V96.9078H37.6907C47.7468 96.9078 52.8354 92.6673 52.8354 92.6673C52.8354 92.6673 58.0452 96.9078 66.7686 96.9078C75.492 96.9078 81.3076 92.425 81.3076 92.425C81.3076 92.425 85.0635 96.9078 96.4524 96.9078H96.937C107.235 96.9078 115.474 88.5479 115.474 78.3707V68.0722C115.474 57.7738 107.114 49.535 96.937 49.535H96.8159ZM95.1196 81.8842C89.5464 81.6419 87.3655 78.4918 87.3655 73.282C87.3655 68.0722 90.6368 63.9528 95.9678 64.1951C101.056 64.4375 103.843 67.8299 103.722 73.6455C103.722 79.3399 100.693 82.0054 95.1196 81.8842Z" fill="black"/>
<path d="M169.39 92.4253C169.39 94.485 168.905 96.1812 168.057 97.6351C167.209 99.089 165.876 100.301 164.18 101.028C162.484 101.754 160.424 102.118 158.001 102.118H154.124C150.368 102.118 147.702 101.149 146.006 99.3313C144.31 97.5139 143.462 94.7273 143.462 90.9714V70.9803H126.863V91.456C126.863 100.179 129.286 107.085 134.011 112.053C138.737 117.02 145.4 119.444 153.881 119.444H158.122C163.695 119.444 168.663 118.232 172.903 115.93C177.144 113.507 180.415 110.236 182.717 105.874C184.898 101.512 186.109 96.5447 186.109 90.9714V34.2694H169.511V92.3041H169.39V92.4253Z" fill="url(#paint0_linear_21_14207)"/>
<path d="M273.101 103.935V117.142H301.937V103.935H273.101Z" fill="url(#paint1_linear_21_14207)"/>
<path d="M346.644 54.018V40.8118H317.808V54.018H346.644Z" fill="url(#paint2_linear_21_14207)"/>
<path d="M343.494 104.056V117.263H372.33V104.056H343.494Z" fill="url(#paint3_linear_21_14207)"/>
<path d="M364.818 120.655H351.248V133.619H364.818V120.655Z" fill="url(#paint4_linear_21_14207)"/>
<path d="M361.789 76.917C361.789 77.7651 361.546 78.3709 361.062 78.8555C360.577 79.219 359.85 79.4613 358.76 79.4613H347.613C346.523 79.4613 345.796 79.219 345.311 78.7344C344.827 78.2497 344.584 77.6439 344.584 76.7958V61.2876H327.986V76.917C327.986 77.7651 327.743 78.3709 327.259 78.8555C326.774 79.219 326.047 79.4613 325.078 79.4613H313.204C312.114 79.4613 311.387 79.219 310.902 78.7344C310.418 78.2497 310.175 77.6439 310.175 76.7958V61.2876H293.577V76.917C293.577 77.7651 293.334 78.3709 292.85 78.8555C292.365 79.219 291.638 79.4613 290.669 79.4613H281.34C279.038 79.4613 277.099 79.0978 275.403 78.3709C273.707 77.6439 271.405 76.0689 268.497 73.7669C265.71 71.4649 261.712 67.709 256.502 62.4992L246.446 52.3219L267.649 44.3254L263.408 27.8479L224.395 42.2658V54.8662L243.781 73.7669C244.387 74.3727 244.992 74.9785 245.235 75.5843C245.598 76.19 245.719 76.6747 245.719 77.2805C245.719 77.8863 245.477 78.492 244.871 78.8555C244.265 79.219 243.417 79.4613 242.327 79.4613H216.036C214.945 79.4613 214.218 79.219 213.855 78.7344C213.37 78.2497 213.128 77.4016 213.128 76.3112V34.3905H196.529V77.4016C196.529 83.7019 198.104 88.5482 201.133 91.8195C204.162 95.2119 208.766 96.7869 214.703 96.7869H244.629C247.173 96.7869 249.596 96.5446 251.777 95.9388C253.958 95.333 255.775 94.6061 257.35 93.6368C258.926 92.6676 260.137 91.456 260.864 90.0021C262.56 91.9406 264.378 93.3945 265.953 94.3638C267.649 95.333 269.587 95.9388 271.889 96.3023C274.191 96.6658 277.342 96.7869 281.219 96.7869C285.096 96.7869 281.219 96.7869 281.461 96.7869H290.548C293.213 96.7869 295.394 96.5446 297.09 95.9388C298.787 95.333 300.24 94.3638 301.452 93.031C302.664 94.3638 304.118 95.333 305.935 95.9388C307.752 96.5446 309.933 96.9081 312.356 96.9081H324.957C327.622 96.9081 329.803 96.6658 331.499 96.06C333.195 95.4542 334.649 94.4849 335.861 93.1522C337.073 94.4849 338.526 95.4542 340.344 96.06C342.161 96.6658 344.342 97.0292 346.765 97.0292H358.76C364.697 97.0292 369.301 95.333 372.814 91.8195C376.328 88.427 378.024 83.7018 378.024 77.7651V61.4087H361.789V77.0381V76.917Z" fill="url(#paint5_linear_21_14207)"/>
<path d="M388.08 40.6908V96.9081H404.679V34.2694L388.08 40.6908Z" fill="url(#paint6_linear_21_14207)"/>
<path d="M382.749 18.1552C382.022 17.3071 381.416 16.3378 381.053 15.3685C380.689 14.2781 380.568 13.1877 380.568 11.9761C380.568 9.9164 381.053 8.09903 382.143 6.28166C383.113 4.58544 384.567 3.13154 386.384 2.04112C388.201 0.950697 390.261 0.466064 392.442 0.466064C395.834 0.466064 398.621 1.67765 400.802 3.97965C402.983 6.28166 404.194 9.18945 404.194 12.5819C404.194 15.9743 403.346 17.7917 401.771 19.9725C400.196 22.1534 397.652 23.9707 394.38 25.3035L376.57 32.6941L372.208 22.5169L382.87 18.034L382.749 18.1552ZM389.776 12.5819C389.776 13.3088 390.019 13.9146 390.382 14.3993C390.746 14.8839 391.473 15.3685 392.2 15.6108C393.048 15.2474 393.775 14.8839 394.138 14.3993C394.502 13.9146 394.744 13.3088 394.744 12.703C394.744 12.0972 394.502 11.3703 394.138 10.8857C393.775 10.401 393.169 10.1587 392.321 10.1587C391.473 10.1587 390.988 10.401 390.503 10.8857C390.019 11.3703 389.776 11.9761 389.776 12.5819Z" fill="black"/>
<defs>
<linearGradient id="paint0_linear_21_14207" x1="202.128" y1="0.466064" x2="202.128" y2="133.809" gradientUnits="userSpaceOnUse">
<stop offset="0.4" stop-color="#3F664B"/>
<stop offset="1" stop-color="#2D3B2C"/>
</linearGradient>
<linearGradient id="paint1_linear_21_14207" x1="202.128" y1="0.466064" x2="202.128" y2="133.619" gradientUnits="userSpaceOnUse">
<stop offset="0.4" stop-color="#3F664B"/>
<stop offset="1" stop-color="#2D3B2C"/>
</linearGradient>
<linearGradient id="paint2_linear_21_14207" x1="202.128" y1="0.466064" x2="202.128" y2="133.619" gradientUnits="userSpaceOnUse">
<stop offset="0.4" stop-color="#3F664B"/>
<stop offset="1" stop-color="#2D3B2C"/>
</linearGradient>
<linearGradient id="paint3_linear_21_14207" x1="202.128" y1="0.466064" x2="202.128" y2="133.619" gradientUnits="userSpaceOnUse">
<stop offset="0.4" stop-color="#3F664B"/>
<stop offset="1" stop-color="#2D3B2C"/>
</linearGradient>
<linearGradient id="paint4_linear_21_14207" x1="202.128" y1="0.466064" x2="202.128" y2="133.619" gradientUnits="userSpaceOnUse">
<stop offset="0.4" stop-color="#3F664B"/>
<stop offset="1" stop-color="#2D3B2C"/>
</linearGradient>
<linearGradient id="paint5_linear_21_14207" x1="202.128" y1="0.466064" x2="202.128" y2="133.386" gradientUnits="userSpaceOnUse">
<stop offset="0.4" stop-color="#3F664B"/>
<stop offset="1" stop-color="#2D3B2C"/>
</linearGradient>
<linearGradient id="paint6_linear_21_14207" x1="396.379" y1="33.9065" x2="396.379" y2="96.7741" gradientUnits="userSpaceOnUse">
<stop offset="0.4" stop-color="#3F664B"/>
<stop offset="1" stop-color="#2D3B2C"/>
</linearGradient>
</defs>
</svg>
