<svg width="90" height="90" viewBox="0 0 90 90" fill="none" xmlns="http://www.w3.org/2000/svg">
<path d="M43.7645 47.529C42.3614 47.529 41.1926 53.098 40.0461 53.0446C39.0805 52.9987 39.8874 49.2025 38.4146 49.1907C37.5054 49.1907 37.228 50.7071 36.8201 52.007C36.7964 52.0826 36.126 54.7107 35.1085 54.7107C34.4604 54.7107 33.8923 54.1934 33.8923 52.6592C33.8923 51.9433 33.8567 50.8805 33.0024 50.6982C31.5192 50.3913 31.8559 51.9166 30.5536 51.6705C27.0296 51.0065 24.3628 58.2386 26.506 59.208C29.0764 60.3687 30.9556 55.8106 31.7179 55.9366C32.3038 56.0315 31.9241 57.9955 33.7677 57.8636C35.2717 57.7613 36.4568 54.6589 37.0426 54.6959C37.5617 54.7285 37.1094 56.5636 38.4057 56.6318C39.9245 56.7104 40.5504 54.1919 41.243 54.1801C41.4151 54.1801 41.4907 54.3076 41.4759 54.9212C41.4566 55.7632 41.3439 66.4401 41.3276 66.787C41.2949 67.4451 41.6138 67.5 41.7577 67.5C41.8541 67.5 43.3136 67.4703 43.5939 67.4585C43.8742 67.4466 43.9232 67.1843 43.9202 67.0227C43.9202 66.959 44.1234 51.4808 44.1367 48.1308C44.1308 47.529 43.8713 47.529 43.7645 47.529ZM31.2537 53.9029C30.9022 55.1643 29.4739 57.2395 28.8064 57.3033C28.6077 57.3225 28.3185 57.2173 28.3303 56.7622C28.354 55.695 30.0212 53.2788 30.7034 53.095C31.1781 52.969 31.3872 53.4256 31.2537 53.9029ZM87.6523 40.6467C84.9143 42.3751 85.4423 35.9819 83.7752 35.9819C81.9568 35.9819 81.4273 39.7722 80.7791 39.8359C79.9856 39.913 81.0758 37.0566 79.5036 37.1203C77.7712 37.1915 76.8012 43.4675 75.5449 42.9813C74.2546 42.4833 75.1801 39.1674 73.728 38.9258C72.979 38.8013 72.8248 39.3986 72.3783 39.6877C71.7109 40.1205 70.511 39.3675 68.6288 41.5598C66.4989 44.0397 65.8478 48.0434 67.4719 48.3161C69.6581 48.6837 71.6501 44.9543 72.1544 44.4755C72.8589 43.8055 72.4658 46.4025 74.3628 46.444C76.3666 46.484 76.9703 43.1829 77.5532 43.2111C78.053 43.2392 77.4731 44.9454 78.4283 45.0669C80.4958 45.3308 81.629 39.913 82.4804 40.0271C83.3317 40.1413 83.0114 43.3771 85.0611 43.5846C86.7994 43.7566 87.9919 41.3834 88.1536 41.0321C88.3153 40.6808 88.0349 40.4051 87.6523 40.6467ZM72.0713 42.3514C71.6738 43.4779 70.5288 45.2848 69.8257 45.4108C69.584 45.4538 69.2903 45.2151 69.3096 44.8016C69.3541 43.8336 70.9767 41.7792 71.6352 41.6265C72.0846 41.5227 72.233 41.8918 72.0713 42.3514ZM21.3459 57.9659C20.8683 57.7228 20.8446 57.2381 20.8253 57.0083C20.8061 56.7785 20.8253 55.5645 20.8253 54.7611C20.8253 53.9577 20.9381 53.8125 21.5432 53.3678C31.4495 46.0882 33.1522 39.8196 30.3638 35.85C24.6446 27.7077 4.96847 40.3769 3.53125 41.419C2.04805 42.4937 1.92346 44.1138 1.86414 44.6133C1.82261 44.9602 1.79888 46.8368 1.80036 47.3452C1.80036 47.7751 1.77514 48.1679 2.85491 47.2785C9.7236 41.6221 25.5938 31.5202 28.6492 37.8496C30.1443 40.9476 29.149 45.6332 21.6426 51.174C21.0152 51.6365 20.8342 51.0435 20.8283 50.6552C20.8283 50.3721 20.8179 39.741 20.8283 38.991C20.8431 37.8689 19.8538 38.2839 19.5305 38.4944C19.3258 38.6263 18.6969 39.0355 18.114 39.4105C17.5994 39.7425 17.6394 39.993 17.629 40.2999C17.6216 40.4881 17.6765 52.1078 17.6721 53.0031C17.6721 53.7976 17.6721 54.0585 17.2864 54.3298C17.058 54.4928 13.7594 56.4198 13.0994 56.8186C12.5446 57.1536 12.7493 57.6412 13.0222 57.7658C13.2328 57.8636 16.6234 59.4645 17.1574 59.7076C17.7507 59.9759 17.7032 60.3687 17.7017 60.5732C17.7002 60.7778 17.7017 64.4657 17.718 66.452C17.7269 67.4511 18.3439 66.9723 18.5842 66.8507C18.7548 66.7648 19.7129 66.1941 20.2988 65.7805C20.8505 65.3892 20.8135 64.7251 20.8135 64.4553V62.4557C20.8135 61.7146 21.2436 61.6316 21.5076 61.7546C21.7464 61.8643 29.2395 65.4411 30.6352 66.0992C31.5073 66.5113 32.2371 66.203 32.5396 65.6886C32.5901 65.5997 32.8274 65.1594 33.0751 64.5977C33.4221 63.8091 32.7428 63.3688 32.2549 63.1317C31.8514 62.936 21.825 58.209 21.3489 57.9659H21.3459ZM51.1063 46.9035C50.378 46.0867 48.9171 46.1001 47.7928 46.7923C46.3096 47.7054 45.9151 49.1329 46.6434 49.9496C47.3716 50.7663 49.1144 50.5929 50.1823 49.8844C51.4059 49.0736 51.839 47.7202 51.1093 46.9035H51.1063ZM62.2154 25.1256C65.7039 28.5586 59.7593 35.0674 58.325 36.7423C57.6813 37.4939 57.0836 38.6115 58.0951 39.6832C59.1067 40.7549 60.1894 41.7792 61.0689 42.593C62.1546 43.5994 61.8313 45.479 61.1446 46.4973C60.6878 47.1747 59.6614 48.371 58.4837 49.877C57.3061 51.383 56.2278 52.766 56.1106 52.9186C55.7786 53.3219 55.5826 53.8197 55.5506 54.341C55.5187 54.8622 55.6524 55.3802 55.9326 55.821C57.2008 57.788 57.3239 57.7598 58.1322 56.3546C59.479 54.0155 61.2558 51.844 62.6085 50.3039C63.3454 49.472 64.03 48.5953 64.6583 47.6787C65.8834 45.9341 65.9932 44.0693 64.7636 42.9947C63.1321 41.5717 61.2351 40.3265 59.6718 39.1407C58.7685 38.4529 59.3944 37.605 60.36 36.8832C63.798 34.3114 68.5947 30.0083 66.3936 24.8276C64.2652 19.8175 54.2447 23.6833 53.8383 34.052C53.69 37.7488 54.1854 47.9767 53.911 50.5351C53.7508 52.0248 54.3174 51.8588 54.8618 51.6335C55.3601 51.4275 57.2734 50.4936 57.1741 48.0567C57.0747 45.6198 56.8522 35.0496 56.781 33.9541C56.4161 28.2429 59.9491 22.8962 62.2154 25.1256Z" fill="black"/>
</svg>
