<svg width="27" height="27" viewBox="0 0 27 27" fill="none" xmlns="http://www.w3.org/2000/svg">
<path d="M19.4086 11.5695C19.3418 10.7701 18.6387 10.143 17.8093 10.143H13.2292C12.7514 10.143 12.3627 10.5188 12.3627 10.9807C12.3627 11.4427 12.7514 11.8184 13.2292 11.8184H17.688L18.0346 18.4123C18.0569 18.8599 18.4406 19.207 18.8986 19.207C18.9135 19.207 18.9283 19.207 18.9432 19.207C19.421 19.183 19.7899 18.7905 19.7651 18.3286L19.4111 11.5958V11.5695H19.4086Z" fill="#0E0E0E"/>
<path d="M24.0827 19.5875C23.9763 17.3688 23.8674 15.1501 23.7559 12.9314C23.6817 11.4522 23.6247 9.97309 23.5232 8.49634C23.4341 7.17756 22.2458 6.1053 20.8792 6.07658C20.2033 6.06222 19.525 6.07418 18.8045 6.07418C18.9283 4.03258 18.2599 2.33085 16.569 1.07908C15.4821 0.274886 14.2294 -0.0769496 12.8653 0.014001C11.2809 0.119312 9.96131 0.770327 8.93884 1.9479C7.9139 3.12786 7.54749 4.51606 7.65642 6.07179C7.37914 6.07179 7.13157 6.067 6.884 6.07179C6.30469 6.08615 5.71299 6.04785 5.14605 6.13641C3.93296 6.32549 3.00457 7.33313 2.9303 8.52267C2.81394 10.3848 2.73472 12.2469 2.64311 14.1089C2.49457 17.1319 2.34355 20.1548 2.20244 23.1801C2.17768 23.7114 2.11579 24.2595 2.21234 24.7765C2.42773 25.9373 3.18777 26.653 4.37611 26.9426C4.44048 26.9569 4.50237 26.9809 4.56426 27H21.8992C22.065 26.9545 22.2309 26.9138 22.3943 26.8588C23.5901 26.4663 24.3427 25.4347 24.2981 24.1901C24.2437 22.6535 24.1595 21.1193 24.0877 19.5851L24.0827 19.5875ZM11.3031 2.33085C12.5856 1.57692 13.9323 1.58649 15.2049 2.36436C16.5937 3.20924 17.0666 4.4993 16.9354 6.05504H9.52063C9.38199 4.46819 9.87961 3.16855 11.3031 2.33324V2.33085ZM21.3991 25.2001C18.6659 25.2001 15.9327 25.2001 13.1971 25.2001C10.501 25.2001 7.80744 25.2001 5.1114 25.2001C4.34393 25.2001 3.9899 24.8459 4.02456 24.1039C4.23499 19.7407 4.44791 15.3775 4.66082 11.0142C4.69548 10.2842 4.72023 9.55185 4.76727 8.82424C4.80936 8.18519 5.16091 7.87644 5.8145 7.87405C9.29534 7.86447 12.7737 7.85729 16.2546 7.85011C17.7078 7.84533 19.1635 7.84054 20.6167 7.83336C21.2802 7.83097 21.6516 8.1469 21.6863 8.79552C21.7828 10.5834 21.8645 12.3713 21.9512 14.1592C22.0997 17.2013 22.2482 20.2457 22.3968 23.2878C22.4116 23.5774 22.4215 23.8694 22.4314 24.159C22.4562 24.8244 22.0873 25.1977 21.3991 25.1977V25.2001Z" fill="#0E0E0E"/>
</svg>
