<svg width="56" height="76" viewBox="0 0 56 76" fill="none" xmlns="http://www.w3.org/2000/svg">
<path fill-rule="evenodd" clip-rule="evenodd" d="M26.5016 2.70006C27.0607 2.70006 27.7675 2.56764 28.5299 2.56787C29.3134 2.56806 29.8912 2.58014 30.5901 2.66802C31.8017 2.82028 32.9355 3.25 33.8196 3.7587C34.2442 4.00305 35.025 4.55772 35.3202 4.94658L36.0636 5.83377C36.2134 6.03143 36.3475 6.25088 36.4809 6.47412C36.9944 7.33365 37.6156 8.63492 37.6131 9.65991L37.541 25.6782C37.5173 25.5909 37.5044 25.521 37.4902 25.4646C37.3217 24.7937 37.0455 24.1373 36.7318 23.5352C36.496 23.0829 36.2131 22.6057 35.9 22.2077C35.0672 21.1487 34.2021 20.3551 33.063 19.6238C32.1229 19.0203 31.0505 18.6496 29.9597 18.4071C28.1387 18.0024 26.0173 18.1986 24.3093 18.879C23.0758 19.3704 21.9725 20.0653 21.045 20.9919C20.4647 21.5717 20.0285 22.0972 19.5699 22.778C19.0024 23.6206 18.5885 24.6038 18.3368 25.5987L18.2706 25.7969C18.2678 25.8034 18.262 25.8172 18.2561 25.8264V0.0129893H0.00142085V38.3807C0.00142085 40.2152 -0.0357207 42.0838 0.269789 43.6188C0.587474 45.2151 1.12966 46.6996 1.89743 48.1158C1.97406 48.2571 2.06347 48.422 2.15289 48.5654C2.54501 49.1941 2.98219 49.7814 3.44683 50.3562C3.96064 50.9917 4.68742 51.756 5.33627 52.2569C5.59423 52.4559 5.82146 52.662 6.10389 52.8556C6.25188 52.957 6.34264 53.0298 6.49186 53.1288C6.64373 53.2294 6.76376 53.3092 6.91509 53.4108C7.33453 53.6919 7.77612 53.8947 8.21629 54.1372C8.34009 54.2054 8.30775 54.1947 8.44856 54.2576C11.0312 55.4114 12.7137 55.6924 15.6104 55.6924C16.3853 55.6924 17.6183 55.7667 18.3379 55.686C18.7307 55.6419 19.1942 55.6158 19.6241 55.6054C20.4201 55.5863 21.2947 55.4212 22.086 55.2898L24.3593 54.8297C24.7539 54.7296 25.0689 54.6285 25.47 54.5298C25.8187 54.4439 29.1859 53.2692 29.4117 52.9613C28.4828 53.1775 27.362 53.1347 26.4124 53.1386C26.0742 53.1399 25.7549 53.0766 25.4419 53.0508C24.4679 52.9704 23.4242 52.6692 22.5616 52.2281C20.5725 51.2111 19.4335 49.6483 18.6148 47.6253C18.2127 46.6318 18.2561 46.381 18.2561 45.2966V30.3636C18.3734 30.5483 18.4362 30.9701 18.5038 31.1733C18.6023 31.4692 18.6945 31.6916 18.8104 31.9683C19.4655 33.534 20.3709 34.6121 21.5957 35.7051C21.7941 35.882 21.9858 35.9997 22.1899 36.1687C22.7328 36.618 23.6537 37.0506 24.3027 37.3178C26.543 38.2401 29.4132 38.1694 31.5596 37.3109C32.0312 37.1222 32.6177 36.8661 33.01 36.6014C33.2464 36.4418 33.4523 36.3338 33.6767 36.1661C33.8807 36.0136 34.122 35.8553 34.2952 35.6829C34.654 35.3259 35.0672 35.0135 35.3954 34.6235L36.7024 32.7136C37.0197 32.089 37.3022 31.4492 37.4813 30.7605L37.5846 30.3793C37.5879 30.3708 37.5957 30.3557 37.5985 30.3491C37.6013 30.3425 37.6072 30.3288 37.613 30.3195V55.6924H55.8237V14.6376C55.8237 13.6918 55.7473 12.8932 55.5919 12.094C55.3873 11.0432 54.7935 8.9937 54.2007 8.02162C54.1087 7.87082 54.0544 7.73733 53.9697 7.59155C53.5525 6.87273 53.0936 6.19785 52.5797 5.54422C52.4797 5.41702 52.3892 5.28805 52.2855 5.1775C52.2167 5.10421 52.1757 5.07512 52.1132 4.99719C52.0432 4.90974 52.0424 4.89297 51.9553 4.80253C51.0499 3.86272 50.0788 3.01639 48.9807 2.31204C47.9072 1.62342 46.537 0.973821 45.1875 0.595129C43.5144 0.125611 42.1182 0.0129893 40.3028 0.0129893C39.4039 0.0129893 38.4606 -0.0152127 37.5675 0.0114941C36.7428 0.0361288 35.8445 0.160415 35.0103 0.231979C33.5453 0.357685 31.8707 0.740099 30.4646 1.1529C29.7491 1.36295 29.1004 1.58712 28.423 1.84448C28.1567 1.94567 26.7417 2.49147 26.5016 2.70006Z" fill="#322F63"/>
<path fill-rule="evenodd" clip-rule="evenodd" d="M49.0333 64.5906C49.0264 64.5985 49.017 64.6014 49.0143 64.6157L48.6646 65.1914C48.6024 65.3189 48.5805 65.4024 48.5189 65.5304C48.4609 65.6508 48.415 65.7489 48.3711 65.8673C48.1811 66.3803 48.1595 66.8809 47.9025 67.3814C47.016 69.1082 44.1949 69.7966 42.4643 69.7895C41.7642 69.7867 40.6527 69.8552 40.0978 69.5088C39.8075 69.3277 39.8606 69.0079 39.6855 68.6432C39.4632 68.7919 39.4939 68.9636 39.457 69.2959C39.4305 69.5346 39.3991 69.877 39.4221 70.1838C39.4676 70.7895 39.7753 71.0229 40.3013 71.1556C41.5238 71.464 43.8088 71.1498 45.0148 70.6635C46.2307 70.1733 46.8648 69.6733 47.6101 68.6752C47.7288 68.5162 47.8749 68.2552 48.0192 68.1587C47.9441 69.059 47.6078 70.7452 48.4959 71.0324C49.0354 71.2067 49.3242 70.6205 49.4689 70.2678C49.5697 70.0218 49.8782 69.1098 49.7388 68.8194C49.4806 68.9921 49.5012 69.9988 48.7749 69.4741C48.3664 69.1788 48.5157 68.2805 48.5453 67.8915C48.6347 66.7172 48.6969 66.5572 48.9194 65.4459C48.9853 65.1168 49.0333 64.9752 49.0333 64.5906Z" fill="#322F63"/>
<path fill-rule="evenodd" clip-rule="evenodd" d="M20.0199 69.5683C19.4177 69.5683 18.7149 69.5113 18.2297 69.3744C17.243 69.0959 17.5856 68.7291 17.3301 68.2468C17.1173 68.4026 17.0767 68.9806 17.0212 69.3037C16.9489 69.7244 16.8942 70.1246 17.1261 70.4328C17.5649 71.0162 18.5909 71.066 19.4907 71.066C20.8652 71.066 22.4075 70.8026 23.3779 70.4121C24.4111 69.9963 25.0297 69.4036 25.3278 68.3505C25.4 68.0953 25.3734 68.1141 25.3551 67.8943C24.9816 68.1443 25.1192 68.7336 23.204 69.2252C22.2817 69.462 21.1974 69.5683 20.0199 69.5683Z" fill="#322F63"/>
<path fill-rule="evenodd" clip-rule="evenodd" d="M3.35248 71.4624C3.35248 70.2176 4.19027 69.4936 4.19027 68.7313C3.87094 68.8165 3.38129 70.004 3.26299 70.2717C2.75994 71.4101 2.34777 73.0186 3.49702 73.961C4.05553 74.4191 5.32178 74.298 5.95273 73.928C6.42233 73.6526 6.5896 73.4903 6.97919 73.1033C7.88719 72.2015 8.28319 70.8725 8.49897 69.5999C8.56515 69.2096 8.563 68.888 8.60629 68.4737C8.63083 68.2392 8.75751 67.5109 8.6878 67.3657C8.59454 67.3995 8.57744 67.4253 8.51084 67.5414C8.46375 67.6233 8.42411 67.7211 8.37964 67.8068C8.03975 68.4626 7.93489 68.6789 7.93923 69.6133C7.94058 69.9055 7.90063 70.0188 7.89479 70.3178C7.88592 70.7718 7.69852 71.07 7.47993 71.4011C7.40668 71.5122 7.3947 71.5332 7.3097 71.6275C6.97216 72.0017 6.77635 72.2247 6.26369 72.4767C5.83969 72.6851 5.61331 72.6868 5.05233 72.7671C4.87953 72.7919 4.57617 72.7487 4.39015 72.7164C3.75359 72.6061 3.35248 72.1182 3.35248 71.4624Z" fill="#322F63"/>
<path fill-rule="evenodd" clip-rule="evenodd" d="M37.8336 67.9825C38.5053 67.9825 38.2511 68.4032 37.7549 68.7408C37.581 68.8591 37.2379 69.03 37.0429 68.984C36.8799 68.9455 36.9838 68.9161 36.9873 68.9003C36.9874 68.8997 37.4619 67.9825 37.8336 67.9825ZM33.2479 69.7004C33.2479 70.0292 33.3462 70.4219 33.4691 70.6248C33.8461 71.2479 34.6016 71.1874 35.087 70.6127C35.3079 70.3511 35.448 70.0126 35.7171 69.8326C36.0639 70.0159 36.4861 70.1465 36.9691 70.0264C38.2495 69.7081 39.3078 67.5293 38.3961 67.2852C37.5779 67.0662 37.0723 68.2913 36.7327 68.777C36.3359 69.3444 36.2613 68.4967 35.7267 69.0491C35.3784 69.409 35.3824 69.7445 34.703 69.7445C33.4561 69.7445 33.9325 67.5335 34.0491 66.7126C34.0911 66.4171 34.1362 66.1079 34.1814 65.7876C34.2165 65.5392 34.3061 65.1152 34.3061 64.8549C34.1292 64.9021 34.1645 64.935 34.0229 65.2767C33.6323 66.2199 33.7151 65.8855 33.5253 67.0263C33.3918 67.8291 33.2479 68.8097 33.2479 69.7004Z" fill="#322F63"/>
<path fill-rule="evenodd" clip-rule="evenodd" d="M49.0333 64.5906C49.369 64.4131 49.705 64.1126 50.0028 63.8853L51.4393 62.7655C51.6083 62.6327 51.7481 62.5309 51.9095 62.3983C52.7424 61.7136 54.2521 60.5526 54.8281 59.8077C55.1336 59.4125 55.6767 58.9359 55.8916 58.2713C55.9389 58.1249 55.9426 58.0584 56 57.939C55.7863 57.996 54.5568 59.3251 54.2492 59.5818C53.9381 59.8417 53.4302 60.3993 52.9387 60.7835L50.1237 63.0811C50.0322 63.1698 50.0026 63.2127 49.8965 63.2945C49.5438 63.5666 49.067 64.1851 49.0333 64.5906Z" fill="#322F63"/>
<path fill-rule="evenodd" clip-rule="evenodd" d="M50.5325 69.6124C50.5325 71.2178 51.5585 71.5894 52.1017 70.2991C52.2402 69.97 52.4284 69.3486 52.4284 68.9516C52.4284 68.7831 52.442 68.9355 52.3844 68.8194C52.2129 68.9341 52.2341 69.0458 52.1587 69.2547C51.8924 69.9915 51.1497 69.5336 51.1497 68.7754C51.1497 67.9186 51.2221 67.4945 51.3339 66.7128L51.5907 64.8549C51.4354 64.8963 51.4436 64.9246 51.3006 65.2699C50.9737 66.0593 50.9471 66.0474 50.8098 66.9821C50.6891 67.8038 50.5325 68.7167 50.5325 69.6124Z" fill="#322F63"/>
<path fill-rule="evenodd" clip-rule="evenodd" d="M30.8667 67.7182C31.1061 67.8783 31.4507 68.2175 31.5808 68.4584C32.1517 69.515 30.3425 70.4342 30.2935 71.0219C30.7863 70.9809 31.5178 70.285 31.7993 69.9273C32.376 69.1943 32.8413 67.7377 32.1723 66.8544C32.0592 66.705 31.6679 66.3139 31.5282 66.2204C31.506 66.3151 30.964 67.3009 30.8667 67.7182Z" fill="#322F63"/>
<path fill-rule="evenodd" clip-rule="evenodd" d="M10.0988 70.9779C10.2507 71.0183 10.2155 71.066 10.2751 71.066C10.9265 71.066 11.5443 70.8932 11.8752 70.55C12.2399 70.1718 12.3079 69.6554 12.5822 69.1419C12.6966 68.9279 12.8744 68.7023 13.0818 68.5837C13.718 68.2201 13.7966 68.3952 14.1707 67.5573C14.2328 67.4181 14.42 66.9017 14.42 66.7491C14.42 66.5806 14.4335 66.733 14.3759 66.6169C14.2678 66.6892 14.214 66.7894 14.1227 66.8925C13.6051 67.4766 13.9106 67.216 13.2147 67.6153C13.0435 67.7135 12.7594 67.9588 12.6484 68.1068C12.211 68.6899 12.4165 69.3212 11.3247 70.0441C11.1501 70.1597 10.3747 70.6572 10.2338 70.8044C10.1913 70.8488 10.1331 70.9268 10.0988 70.9779Z" fill="#322F63"/>
<path fill-rule="evenodd" clip-rule="evenodd" d="M9.1287 70.6695C9.58934 70.5466 10.1362 68.9739 10.2259 68.4619C10.293 68.0792 10.5939 65.792 10.5397 65.5596C10.3252 65.7167 9.87 66.8704 9.74406 67.2316C9.73273 67.2642 9.52731 68.8575 9.41089 69.3656C9.32336 69.7475 9.07304 70.4308 9.1287 70.6695Z" fill="#322F63"/>
<path fill-rule="evenodd" clip-rule="evenodd" d="M14.8609 70.6695C15.0236 70.656 15.0274 70.6348 15.1103 70.5223L15.537 69.7152C16.0312 68.7332 16.0044 68.1359 16.153 67.0268C16.1963 66.7034 16.3317 65.8162 16.2718 65.5596C15.9654 65.9118 15.6232 66.8108 15.4866 67.242C15.4309 67.4181 15.4065 67.7716 15.3888 67.9813C15.3503 68.4376 15.25 68.9446 15.143 69.3656L14.8875 70.3468C14.8339 70.5257 14.8307 70.5272 14.8609 70.6695Z" fill="#322F63"/>
<path fill-rule="evenodd" clip-rule="evenodd" d="M25.796 70.6695C26.027 70.6157 26.0984 70.4588 26.1935 70.2738C26.982 68.7394 26.8561 68.7583 27.0881 67.0268C27.1315 66.7034 27.2668 65.8162 27.2071 65.5596C26.9323 65.8753 26.8147 66.2508 26.6524 66.6354C26.3933 67.2498 26.3809 67.3064 26.324 67.9813C26.2855 68.4376 26.1852 68.9446 26.0782 69.3656L25.8226 70.3468C25.769 70.5257 25.7659 70.5272 25.796 70.6695Z" fill="#322F63"/>
<path fill-rule="evenodd" clip-rule="evenodd" d="M5.11624 70.0088C5.2259 70.1724 5.80661 70.5683 5.99816 70.6695C7.00584 69.7944 6.7629 69.208 5.77762 68.6873C5.58826 69.0448 5.20866 69.6127 5.11624 70.0088Z" fill="#322F63"/>
<path fill-rule="evenodd" clip-rule="evenodd" d="M49.871 67.2336C50.0705 67.138 50.1304 67.1659 50.3386 66.8197C50.6055 66.3759 50.6917 65.9982 50.3023 65.6134C50.2071 65.5193 49.9383 65.3258 49.827 65.2514C49.7297 65.4349 49.6138 65.596 49.5175 65.7792C49.4202 65.9645 49.3501 66.1615 49.2503 66.3527C49.1128 66.616 49.2101 66.6714 49.4295 66.8377C49.5144 66.9022 49.5653 66.9499 49.6508 67.0132C49.7621 67.0956 49.8289 67.1171 49.871 67.2336Z" fill="#322F63"/>
<path fill-rule="evenodd" clip-rule="evenodd" d="M27.4716 71.154C28.334 71.154 29.4488 70.2357 29.8682 69.3636C30.0309 69.0252 30.1612 68.6411 30.1612 68.2468C29.7768 68.45 29.6911 69.0821 29.2791 69.4359C29.138 69.557 29.0535 69.6428 28.9164 69.7784L28.3472 70.2669C28.0211 70.5299 27.5428 70.8486 27.4716 71.154Z" fill="#322F63"/>
<path fill-rule="evenodd" clip-rule="evenodd" d="M21.2545 67.1015C21.3532 67.2489 21.8529 67.7182 22.0482 67.7182C22.2892 67.7182 22.6441 66.9564 22.6515 66.6991C22.6624 66.3118 22.172 65.9513 21.9159 65.78C21.7363 66.0478 21.3333 66.7632 21.2545 67.1015Z" fill="#322F63"/>
<path fill-rule="evenodd" clip-rule="evenodd" d="M19.8435 67.1895C19.9265 67.3134 20.4795 67.8062 20.6371 67.8062C20.7561 67.8062 21.6306 66.9452 20.9782 66.2321C20.903 66.1499 20.6011 65.9325 20.5049 65.868C20.4384 65.9672 20.3798 66.045 20.3146 66.1625C20.1663 66.4295 19.9094 66.9071 19.8435 67.1895Z" fill="#322F63"/>
<path fill-rule="evenodd" clip-rule="evenodd" d="M50.356 75.0305L51.1056 75.6472C51.4695 75.4549 51.7206 74.9781 51.7503 74.6183C51.7801 74.258 51.2768 73.7797 50.9734 73.709C50.8407 73.9594 50.379 74.7549 50.356 75.0305Z" fill="#322F63"/>
<path fill-rule="evenodd" clip-rule="evenodd" d="M11.5098 75.3389C11.5098 75.512 12.249 75.9984 12.2593 75.9996C12.4578 76.0221 13.3089 75.0196 12.6001 74.3818L12.1271 74.0614C12.108 74.1329 11.5098 75.1586 11.5098 75.3389Z" fill="#322F63"/>
<path fill-rule="evenodd" clip-rule="evenodd" d="M12.9208 75.2508C12.9208 75.4329 13.6526 75.9095 13.6704 75.9114C13.8699 75.9341 14.6983 74.9723 14.034 74.3149C13.9507 74.2324 13.6801 74.0388 13.5822 73.9733L13.2135 74.5741C13.1733 74.6565 12.9208 75.2217 12.9208 75.2508Z" fill="#322F63"/>
<path fill-rule="evenodd" clip-rule="evenodd" d="M26.5016 2.70006L26.4574 2.70006L26.4941 2.75136L26.5016 2.70006Z" fill="#322F63"/>
</svg>
