<svg width="27" height="45" viewBox="0 0 27 45" fill="none" xmlns="http://www.w3.org/2000/svg">
<path d="M13.1131 10.9241C18.2312 10.9241 22.3969 15.0874 22.3969 20.2079C22.3969 25.3284 18.2336 29.4917 13.1131 29.4917C7.99254 29.4917 3.82926 25.326 3.82926 20.2079C3.82926 15.0898 7.99254 10.9241 13.1131 10.9241ZM13.1131 9C6.92225 9 1.90515 14.0171 1.90515 20.2079C1.90515 26.3987 6.92225 31.4158 13.1131 31.4158C19.3039 31.4158 24.321 26.3987 24.321 20.2079C24.321 14.0171 19.3015 9 13.1131 9Z" fill="#0E0E0E"/>
<path d="M24.3186 35.9976C24.0492 35.9976 23.7822 35.887 23.5922 35.6681L18.3322 29.636C17.9835 29.2344 18.0243 28.6283 18.426 28.2795C18.8252 27.9308 19.4337 27.9717 19.7825 28.3733L25.0425 34.4054C25.3913 34.8071 25.3504 35.4131 24.9487 35.7619C24.7659 35.9206 24.5422 36 24.3162 36L24.3186 35.9976Z" fill="#0E0E0E"/>
</svg>
