<svg width="117" height="48" viewBox="0 0 117 48" fill="none" xmlns="http://www.w3.org/2000/svg">
<path fill-rule="evenodd" clip-rule="evenodd" d="M104.852 31.9782L101.83 32.9035V39.1819H87.3679C87.3849 39.1534 87.3934 39.1221 87.3934 39.0936V34.3528C87.3934 33.1142 86.3842 32.0978 85.1483 32.0978H79.5612C77.7584 32.0978 76.2843 33.5784 76.2843 35.3892V38.9712H68.798V34.0453C68.798 32.9292 67.8909 32.018 66.7797 32.018H61.0424C59.5343 32.018 58.3013 33.2566 58.3013 34.7714V42.2541C59.4918 42.3225 60.7589 41.9181 61.2635 40.3948V36.3801C61.2635 35.8989 61.6547 35.5088 62.1309 35.5088H64.7359C65.2122 35.5088 65.6033 35.9018 65.6033 36.3801V40.5144C65.6657 41.5594 66.4226 42.2114 67.1454 42.2655L68.798 42.2541V42.2285H74.9776C75.7599 41.7274 76.4204 41.1038 76.9533 40.3521C77.4692 41.5423 78.5889 42.3851 79.9467 42.3851H82.4271C83.6913 42.3851 84.7968 41.6533 85.3439 40.5941C85.6813 41.4512 86.3134 42.2257 87.2488 42.2257H99.9084C101.258 42.2257 102.227 41.3857 102.78 40.1984C103.063 41.1978 103.741 42.2257 104.818 42.2257H113.087C114.861 42.2257 116.315 40.7678 116.315 38.9826V32.1433C116.315 32.0522 116.236 31.9554 116.151 31.9782L112.792 32.9035V39.1819H105.019V32.1433C105.019 32.0522 104.937 31.9525 104.855 31.9782H104.852ZM79.9297 35.2554H83.6063C84.057 35.2554 84.4227 35.6256 84.4227 36.0755V38.154C84.4227 38.6067 84.0542 38.974 83.6063 38.974H79.9297C79.479 38.974 79.1133 38.6039 79.1133 38.154V36.0755C79.1133 35.6227 79.4818 35.2554 79.9297 35.2554ZM11.3196 32.4622L8.73154 33.3876V39.1819H3.34852V27.3484C3.34852 26.6138 2.87513 26.5911 2.34221 26.779C1.96237 26.9128 0.995749 27.3968 0.627243 27.6474C0.445825 27.7698 0.31543 27.9264 0.31543 28.1685V39.8538C0.360784 40.9444 0.6074 42.2228 1.9652 42.2228H6.95137C8.07673 42.2228 8.53595 41.6363 9.36084 40.7564C9.71233 41.5451 10.3218 42.2228 11.1977 42.2228H19.4664C20.6655 42.2228 21.1105 41.5565 22.0516 40.5742C22.0743 40.5514 22.097 40.5287 22.1225 40.5059C22.4683 41.1095 22.8453 41.6647 23.2563 42.1659H52.065C52.6178 41.4199 53.0373 40.4119 53.3689 39.2417H23.9026C23.9622 39.1562 23.9962 39.0708 23.9962 38.9826V32.6273C23.9962 32.5362 23.9111 32.4337 23.8318 32.4622L21.2437 33.3876V39.1819H11.7731C11.5293 39.1648 11.4783 39.1733 11.4783 38.7491V32.6302C11.4783 32.5391 11.3961 32.4366 11.3139 32.4651L11.3196 32.4622ZM11.9375 45.5883H18.8853V48H11.9375V45.5883ZM90.8092 45.5883H97.7569V48H90.8092V45.5883ZM106.851 45.5883H110.323V48H106.851V45.5883ZM8.59264 26.6053H12.0651V29.017H8.59264V26.6053Z" fill="#0E103E"/>
<path fill-rule="evenodd" clip-rule="evenodd" d="M84.4455 0H68.9683C65.9125 0.0113893 63.0013 0.959543 60.2347 2.85016C55.7474 5.91387 53.338 11.375 48.2979 12.961C47.5836 13.1859 47.1952 13.1347 46.4526 13.1347H32.1857V22.1151H47.3908C47.5666 22.1151 47.7395 22.1179 47.9152 22.1151C50.8803 22.0553 53.7065 21.1071 56.3994 19.2706C60.881 16.2126 63.2904 10.7571 68.3163 9.1655C69.1128 8.95765 69.453 8.98327 70.2439 8.98327H84.4455V0Z" fill="#3BB5B5"/>
</svg>
