<svg width="21" height="22" viewBox="0 0 21 22" fill="none" xmlns="http://www.w3.org/2000/svg">
<path d="M5.40565 3.20247C6.32407 4.78558 7.22402 6.33529 8.12733 7.89169C7.17701 8.56969 7.1535 9.53826 7.34323 10.5185C7.68239 12.2803 8.52358 13.7799 9.90541 14.9539C10.3739 15.3513 10.9095 15.6503 11.5475 15.6469C11.8581 15.6453 12.1687 15.5484 12.5347 15.4866C13.4011 16.9795 14.3044 18.5343 15.2077 20.089C13.6966 21.0609 12.6069 21.1494 11.3141 20.3428C10.1354 19.608 9.14985 18.6629 8.26837 17.6075C6.19814 15.1309 4.64337 12.3705 3.71152 9.27774C3.41769 8.30583 3.24475 7.31555 3.22293 6.30022C3.20278 5.25484 3.58391 4.41151 4.46708 3.81534C4.7693 3.61161 5.07656 3.41789 5.40565 3.20247Z" fill="white"/>
<path d="M10.9246 6.41879C10.9145 6.7127 10.8087 6.88972 10.6072 7.00661C10.1673 7.26378 9.72575 7.51929 9.28082 7.76644C8.95509 7.94679 8.62096 7.86163 8.43459 7.541C7.58165 6.07979 6.73207 4.61692 5.88584 3.15237C5.68772 2.81003 5.7851 2.48439 6.13266 2.28066C6.55241 2.03517 6.97217 1.79136 7.39696 1.55423C7.76131 1.34882 8.082 1.43399 8.29187 1.79303C9.13306 3.2342 9.97089 4.67536 10.8054 6.11987C10.8675 6.22675 10.8994 6.35199 10.9246 6.41712V6.41879Z" fill="white"/>
<path d="M17.9999 18.6244C17.8841 18.7814 17.7985 18.9868 17.644 19.0887C17.2058 19.3759 16.744 19.6298 16.2823 19.8819C15.9515 20.0623 15.6325 19.9454 15.421 19.5813C14.657 18.2704 13.8964 16.9595 13.1342 15.6469C13.0536 15.51 12.9696 15.3747 12.8957 15.2345C12.7295 14.9172 12.8101 14.5932 13.1174 14.4095C13.5606 14.144 14.0106 13.8851 14.4639 13.6363C14.7796 13.4626 15.1087 13.5495 15.29 13.8584C16.148 15.3246 17.0009 16.7959 17.8505 18.2671C17.9042 18.3606 17.9227 18.4742 17.958 18.5777C17.9714 18.5944 17.9848 18.6094 17.9983 18.6261L17.9999 18.6244Z" fill="white"/>
</svg>
