<svg width="74" height="77" viewBox="0 0 74 77" fill="none" xmlns="http://www.w3.org/2000/svg">
<path d="M40.6897 30.5936L40.4778 30.7146L25.1761 15.4099C25.1725 15.4061 25.1704 15.401 25.1704 15.3958C25.1704 15.3906 25.1725 15.3857 25.1761 15.3821L40.4808 0.074452C40.5058 0.0494014 40.5309 0.0494014 40.5559 0.074452L55.8846 15.3994C55.9002 15.4149 55.9002 15.4305 55.8846 15.446C51.0393 20.2878 46.1986 25.1308 41.3623 29.9751C41.1464 30.191 40.9222 30.3972 40.6897 30.5936Z" fill="#EC3237"/>
<path d="M24.9612 58.0345L24.9574 73.9239C24.9574 73.987 24.9276 74.0083 24.868 73.9878C24.2828 73.7829 23.7016 73.5744 23.1245 73.3625C14.0055 70.0122 5.71705 63.6303 1.97899 54.4318C-0.295851 48.8345 -0.63629 42.6855 1.09671 36.9236C2.73803 31.4654 6.08529 26.7007 10.4854 23.0341C14.7082 19.5162 19.6081 17.0993 24.9334 15.4716C24.9509 15.466 24.9597 15.4726 24.9597 15.4911V30.5771C24.9597 30.5966 24.9697 30.6064 24.9897 30.6064L40.0456 30.6056C40.0572 30.6056 40.0683 30.6102 40.0765 30.6184C40.0846 30.6266 40.0892 30.6377 40.0892 30.6492L40.0877 57.9489C40.0877 57.9749 40.0747 57.9879 40.0487 57.9879H25.0078C24.9767 57.9879 24.9612 58.0035 24.9612 58.0345ZM15.5446 38.3831C13.5809 41.9693 13.5035 46.1861 15.4432 49.7881C17.207 53.064 20.2785 55.3839 23.7888 56.7141C24.134 56.8444 24.486 56.9782 24.8447 57.1154C24.8843 57.1305 24.9041 57.1167 24.9041 57.0741L24.9056 30.7236C24.9056 30.6875 24.889 30.6763 24.856 30.6898C21.063 32.2221 17.5369 34.7435 15.5446 38.3831Z" fill="#3E4095"/>
<path d="M40.6897 30.5936L62.7956 30.5974C62.8081 30.5974 62.8205 30.6007 62.8313 30.607C62.8421 30.6134 62.8511 30.6225 62.8572 30.6334C64.9637 34.5496 66.5224 38.831 66.8455 43.292C67.1076 46.9048 66.5339 50.3786 65.1245 53.7133C64.5013 55.1878 63.7465 56.6019 62.8602 57.9556C62.8462 57.9777 62.8262 57.9887 62.8001 57.9887L41.2669 57.9872C41.1867 57.9872 41.1794 57.9641 41.2451 57.9181C41.9314 57.4336 42.6276 56.9303 43.3335 56.4083C44.8882 55.2589 46.3211 54.0054 47.6322 52.6477C48.4348 51.8165 49.1718 50.8999 49.8432 49.8979C50.7969 48.473 51.5296 46.7933 51.7295 45.0881C52.2308 40.8127 49.5012 37.3482 46.4215 34.7427C44.7471 33.3264 42.8673 32.0388 40.7821 30.8799C40.6819 30.8243 40.5805 30.7692 40.4778 30.7146L40.6897 30.5936Z" fill="#3E4095"/>
<path d="M37.2447 73.5466C37.2204 73.4851 37.2079 73.4193 37.2079 73.3527C37.2074 70.0866 37.2069 66.787 37.2064 63.4537C37.2064 63.3155 37.2605 63.1772 37.3499 63.075C37.7858 62.5775 38.5486 62.5113 39.0882 62.8826C39.3507 63.0634 39.4823 63.3147 39.4828 63.6364C39.4843 66.8313 39.484 70.0676 39.482 73.3452C39.482 73.7142 39.2107 74.0096 38.874 74.114C38.2645 74.3042 37.5033 74.1974 37.2447 73.5466Z" fill="#3E4095"/>
<path d="M35.1074 64.8846C35.691 64.8846 36.1641 64.4116 36.1641 63.828C36.1641 63.2444 35.691 62.7714 35.1074 62.7714C34.5239 62.7714 34.0508 63.2444 34.0508 63.828C34.0508 64.4116 34.5239 64.8846 35.1074 64.8846Z" fill="#3E4095"/>
<path d="M34.8977 65.6016C35.6402 65.5046 36.1393 66.2005 36.14 66.8927C36.143 68.6317 36.1425 70.3502 36.1385 72.0481C36.1375 72.4329 36.0303 72.8207 35.8169 73.2114C35.3772 74.0141 34.5047 74.232 33.6562 74.235C32.5941 74.2385 31.4733 74.2388 30.2939 74.2358C29.2501 74.2328 28.4167 73.7691 28.0897 72.7387C28.0251 72.5343 27.993 72.2455 27.9935 71.8722C27.9956 69.2514 27.9951 66.6617 27.992 64.1031C27.9913 63.6341 28.2423 63.1073 28.6722 62.8871C29.1148 62.6601 29.6394 62.8623 29.8693 63.2884C30.0046 63.5394 30.0722 63.8077 30.0722 64.0933C30.0692 66.423 30.0697 68.7765 30.0737 71.1538C30.0745 71.5356 30.1579 72.0353 30.6517 72.0526C31.1033 72.0684 31.555 72.0443 32.0097 72.0797C32.4718 72.1157 33.0911 72.1766 33.53 72.0361C33.8291 71.9414 33.911 71.5093 33.9125 71.2357C33.921 69.8158 33.9213 68.403 33.9133 66.9971C33.9123 66.8073 33.93 66.6364 33.9666 66.4846C34.0718 66.0502 34.4483 65.6602 34.8977 65.6016Z" fill="#3E4095"/>
<path d="M50.5692 72.2149C50.8282 72.1989 51.0972 72.2004 51.3763 72.2194C51.592 72.2345 51.7851 72.2999 51.9144 72.4817C52.2247 72.9176 52.1564 73.5579 51.7054 73.8743C51.6513 73.9119 51.5479 73.9304 51.3951 73.9299C50.8174 73.9284 50.2162 73.9301 49.5914 73.9352C49.4161 73.9367 49.2082 73.9003 48.9677 73.8262C48.9426 73.8187 48.9226 73.8041 48.9075 73.7826C48.7628 73.5697 48.6904 73.4214 48.6904 73.3377C48.6934 71.997 48.6914 70.6565 48.6843 69.3163C48.6788 68.2031 49.1495 67.3812 50.0964 66.8506C51.7205 65.9413 54.2704 66.3696 55.2128 68.0974C55.4871 68.6001 55.5081 69.2404 55.5187 69.8552C55.5302 70.529 55.5312 71.248 55.5217 72.012C55.5212 72.0436 55.5367 72.0594 55.5683 72.0594H56.8766C56.8892 72.0594 56.9016 72.0568 56.9132 72.0517C56.9247 72.0467 56.935 72.0393 56.9435 72.0301L57.5974 71.3161C57.6169 71.2946 57.6229 71.2698 57.6154 71.2417C57.3358 70.1708 57.3884 69.2239 57.9694 68.2725C58.3383 67.6675 58.8982 67.1753 59.549 66.8799C60.5313 66.4335 61.775 66.4816 62.7227 67.0265C64.089 67.8125 64.7984 69.3817 64.4452 70.9336C64.4392 70.9581 64.4444 70.9802 64.461 70.9997C64.9134 71.5311 65.9106 72.3705 66.6141 71.7392C66.9598 71.4304 67.0717 71.02 67.0687 70.5511C67.0617 69.5596 67.06 68.5646 67.0635 67.566C67.0642 67.1707 67.0514 66.792 67.4182 66.535C67.8801 66.2118 68.3829 66.17 68.9265 66.4095C69.3857 66.6116 69.4969 67.0272 69.4946 67.4886C69.4881 68.7331 69.4874 69.9028 69.4924 70.9975C69.4946 71.4619 69.8441 71.7385 70.2627 71.8489C70.5538 71.9261 70.8564 71.9108 71.1705 71.8031C71.6838 71.6265 71.8281 71.2665 71.8243 70.7472C71.8168 69.6014 71.8158 68.4646 71.8213 67.3368C71.8228 66.9859 71.9626 66.7281 72.2753 66.5695C72.7567 66.325 73.2284 66.3451 73.6904 66.6297C73.9015 66.7604 73.9985 66.9859 73.9985 67.2286C73.9955 68.5994 73.996 69.9654 74 71.3266C74.0037 72.5449 72.9448 73.3046 71.8506 73.5925C70.7459 73.8841 69.5224 73.5218 68.544 72.977C68.5184 72.9629 68.4934 72.9639 68.4688 72.98C67.9179 73.346 67.3701 73.6458 66.7704 73.7758C65.5484 74.0389 64.3813 73.5256 63.511 72.6869C63.4995 72.6757 63.4843 72.6693 63.4683 72.6689C63.4523 72.6685 63.4367 72.6741 63.4246 72.6846C62.5013 73.4908 61.4614 73.7879 60.3051 73.5759C59.7004 73.4652 59.1643 73.2002 58.6968 72.7808C58.6876 72.7726 58.6757 72.7678 58.6632 72.7674C58.6507 72.767 58.6384 72.771 58.6284 72.7786C58.1485 73.1468 57.6652 73.5151 57.1788 73.8833C57.0675 73.9682 56.9345 73.9735 56.8015 73.975C56.0359 73.983 55.1988 73.9848 54.2899 73.9803C53.6541 73.9772 53.4009 73.5985 53.4001 73.0063C53.3991 71.9426 53.4011 70.8146 53.4061 69.6222C53.4071 69.2965 53.3671 69.0385 53.2859 68.8481C53.0296 68.2484 52.4389 67.9343 51.8046 68.0147C51.0028 68.1169 50.5286 68.7737 50.5196 69.5643C50.511 70.3083 50.5095 71.1751 50.515 72.1646C50.5155 72.2007 50.5336 72.2174 50.5692 72.2149ZM60.961 72.0225C61.2079 72.0242 61.4527 71.9752 61.6815 71.8781C61.9104 71.7811 62.1187 71.6379 62.2945 71.4569C62.4704 71.2758 62.6104 71.0604 62.7066 70.8229C62.8027 70.5854 62.8531 70.3305 62.8549 70.0727C62.8567 69.8149 62.8099 69.5593 62.717 69.3205C62.6242 69.0817 62.4872 68.8644 62.3139 68.6809C62.1406 68.4974 61.9343 68.3513 61.7069 68.2511C61.4794 68.1509 61.2353 68.0984 60.9884 68.0967C60.7415 68.0949 60.4966 68.144 60.2678 68.2411C60.039 68.3381 59.8307 68.4812 59.6548 68.6623C59.479 68.8434 59.339 69.0588 59.2428 69.2963C59.1466 69.5338 59.0962 69.7887 59.0944 70.0465C59.0926 70.3042 59.1395 70.5598 59.2323 70.7986C59.3251 71.0374 59.4621 71.2548 59.6354 71.4383C59.8088 71.6218 60.015 71.7678 60.2425 71.8681C60.4699 71.9683 60.714 72.0208 60.961 72.0225Z" fill="#3E4095"/>
<path d="M44.9298 69.0781C44.7193 68.6858 44.2414 68.2244 43.7634 68.2169C43.1161 68.2058 42.4102 68.2048 41.6456 68.2139C41.4738 68.2159 41.3177 68.1928 41.1774 68.1447C40.5927 67.9448 40.3688 67.2812 40.831 66.8198C41.0569 66.5943 41.3167 66.4836 41.6103 66.4876C42.2957 66.4966 43.0146 66.4966 43.7672 66.4876C44.164 66.4826 44.5031 66.5207 44.7847 66.6018C48.008 67.53 48.247 72.8823 44.9771 73.9306C44.6489 74.0359 44.1567 74.0877 43.5004 74.0862C42.7955 74.0847 42.1982 74.0802 41.7088 74.0727C41.5063 74.0697 41.3047 74.0051 41.1038 73.8788C40.4026 73.4392 40.6153 72.4584 41.3631 72.2164C41.5003 72.1718 41.6972 72.1516 41.9538 72.1556C42.5379 72.1636 43.1331 72.1646 43.7394 72.1586C44.3887 72.1518 44.9531 71.5979 45.1252 70.9809C45.3135 70.3056 45.2484 69.6713 44.9298 69.0781Z" fill="#3E4095"/>
<path d="M67.3821 75.6712C67.4362 75.3641 67.6013 75.1361 67.8774 74.9873C68.5447 74.6273 69.3188 75.0384 69.424 75.7854C69.4711 76.1191 69.3814 76.4031 69.1549 76.6376C68.5755 77.2373 67.6234 76.9901 67.3656 76.225C67.3526 76.1865 67.3385 76.1862 67.3235 76.2243C67.1446 76.6797 66.8252 76.9292 66.3653 76.9728C65.6431 77.0412 65.0366 76.2491 65.3162 75.5554C65.719 74.5529 67.0672 74.6694 67.3528 75.6727C67.3648 75.7142 67.3746 75.7138 67.3821 75.6712Z" fill="#3E4095"/>
<path d="M70.1928 75.9873C70.2317 76.5725 70.7326 77.0157 71.3115 76.9772C71.8905 76.9388 72.3283 76.4332 72.2895 75.848C72.2506 75.2629 71.7497 74.8196 71.1708 74.8581C70.5918 74.8966 70.154 75.4021 70.1928 75.9873Z" fill="#3E4095"/>
</svg>
