<svg width="15" height="20" viewBox="0 0 15 20" fill="none" xmlns="http://www.w3.org/2000/svg">
<path d="M2.40565 2.20247C3.32407 3.78558 4.22402 5.33529 5.12733 6.89169C4.17701 7.56969 4.1535 8.53826 4.34323 9.51852C4.68239 11.2803 5.52358 12.7799 6.90541 13.9539C7.37385 14.3513 7.90946 14.6503 8.54749 14.6469C8.85811 14.6453 9.16872 14.5484 9.53475 14.4866C10.4011 15.9795 11.3044 17.5343 12.2077 19.089C10.6966 20.0609 9.60695 20.1494 8.3141 19.3428C7.13543 18.608 6.14985 17.6629 5.26837 16.6075C3.19814 14.1309 1.64337 11.3705 0.711519 8.27774C0.417691 7.30583 0.244752 6.31555 0.222925 5.30022C0.202777 4.25484 0.583914 3.41151 1.46708 2.81534C1.7693 2.61161 2.07656 2.41789 2.40565 2.20247Z" fill="white"/>
<path d="M7.92457 5.41879C7.9145 5.7127 7.80872 5.88972 7.60724 6.00661C7.16734 6.26378 6.72575 6.51929 6.28082 6.76644C5.95509 6.94679 5.62096 6.86163 5.43459 6.541C4.58165 5.07979 3.73207 3.61692 2.88584 2.15237C2.68772 1.81003 2.7851 1.48439 3.13266 1.28066C3.55241 1.03517 3.97217 0.791361 4.39696 0.554228C4.76131 0.348825 5.082 0.433992 5.29187 0.793031C6.13306 2.2342 6.97089 3.67536 7.80536 5.11987C7.86749 5.22675 7.89939 5.35199 7.92457 5.41712V5.41879Z" fill="white"/>
<path d="M14.9999 17.6244C14.8841 17.7814 14.7985 17.9868 14.644 18.0887C14.2058 18.3759 13.744 18.6298 13.2823 18.8819C12.9515 19.0623 12.6325 18.9454 12.421 18.5813C11.657 17.2704 10.8964 15.9595 10.1342 14.6469C10.0536 14.51 9.96961 14.3747 9.89574 14.2345C9.72951 13.9172 9.81011 13.5932 10.1174 13.4095C10.5606 13.144 11.0106 12.8851 11.4639 12.6363C11.7796 12.4626 12.1087 12.5495 12.29 12.8584C13.148 14.3246 14.0009 15.7959 14.8505 17.2671C14.9042 17.3606 14.9227 17.4742 14.958 17.5777C14.9714 17.5944 14.9848 17.6094 14.9983 17.6261L14.9999 17.6244Z" fill="white"/>
</svg>
