<svg width="17" height="25" viewBox="0 0 17 25" fill="none" xmlns="http://www.w3.org/2000/svg">
<path d="M9.11851 24.2064C8.82922 24.6707 8.15982 24.6728 7.86841 24.2086C6.34589 21.7852 2.47943 15.6118 1.10473 13.2331C-1.75024 8.29272 1.20821 1.83184 6.76823 0.726631C11.5279 -0.218864 16.03 2.84974 16.8578 7.64536C17.1935 9.58532 16.9549 11.4784 15.9265 13.1778C14.2288 15.9866 10.5777 21.8576 9.11851 24.2022V24.2064ZM4.76637 9.08915C4.76003 11.1718 6.42403 12.8584 8.49135 12.869C10.5312 12.8797 12.2184 11.191 12.229 9.13387C12.2396 7.03845 10.5861 5.35189 8.5188 5.34337C6.44303 5.33485 4.77059 7.00438 4.76637 9.08915Z" fill="white"/>
</svg>
