<svg width="16" height="18" viewBox="0 0 16 18" fill="none" xmlns="http://www.w3.org/2000/svg">
<path d="M2.41649 17.1481C1.96835 17.1481 1.5847 16.9885 1.26557 16.6694C0.946433 16.3503 0.786865 15.9666 0.786865 15.5185V4.11107C0.786865 3.66292 0.946433 3.27928 1.26557 2.96014C1.5847 2.641 1.96835 2.48144 2.41649 2.48144H3.23131V0.851807H4.86094V2.48144H11.3795V0.851807H13.0091V2.48144H13.8239C14.272 2.48144 14.6557 2.641 14.9748 2.96014C15.294 3.27928 15.4535 3.66292 15.4535 4.11107V15.5185C15.4535 15.9666 15.294 16.3503 14.9748 16.6694C14.6557 16.9885 14.272 17.1481 13.8239 17.1481H2.41649ZM2.41649 15.5185H13.8239V7.37032H2.41649V15.5185ZM2.41649 5.74069H13.8239V4.11107H2.41649V5.74069ZM8.1202 10.6296C7.88933 10.6296 7.69582 10.5515 7.53964 10.3953C7.38347 10.2392 7.30538 10.0456 7.30538 9.81477C7.30538 9.5839 7.38347 9.39039 7.53964 9.23421C7.69582 9.07804 7.88933 8.99995 8.1202 8.99995C8.35106 8.99995 8.54458 9.07804 8.70075 9.23421C8.85693 9.39039 8.93501 9.5839 8.93501 9.81477C8.93501 10.0456 8.85693 10.2392 8.70075 10.3953C8.54458 10.5515 8.35106 10.6296 8.1202 10.6296ZM4.86094 10.6296C4.63007 10.6296 4.43656 10.5515 4.28038 10.3953C4.12421 10.2392 4.04612 10.0456 4.04612 9.81477C4.04612 9.5839 4.12421 9.39039 4.28038 9.23421C4.43656 9.07804 4.63007 8.99995 4.86094 8.99995C5.0918 8.99995 5.28532 9.07804 5.44149 9.23421C5.59767 9.39039 5.67575 9.5839 5.67575 9.81477C5.67575 10.0456 5.59767 10.2392 5.44149 10.3953C5.28532 10.5515 5.0918 10.6296 4.86094 10.6296ZM11.3795 10.6296C11.1486 10.6296 10.9551 10.5515 10.7989 10.3953C10.6427 10.2392 10.5646 10.0456 10.5646 9.81477C10.5646 9.5839 10.6427 9.39039 10.7989 9.23421C10.9551 9.07804 11.1486 8.99995 11.3795 8.99995C11.6103 8.99995 11.8038 9.07804 11.96 9.23421C12.1162 9.39039 12.1943 9.5839 12.1943 9.81477C12.1943 10.0456 12.1162 10.2392 11.96 10.3953C11.8038 10.5515 11.6103 10.6296 11.3795 10.6296ZM8.1202 13.8888C7.88933 13.8888 7.69582 13.8108 7.53964 13.6546C7.38347 13.4984 7.30538 13.3049 7.30538 13.074C7.30538 12.8432 7.38347 12.6496 7.53964 12.4935C7.69582 12.3373 7.88933 12.2592 8.1202 12.2592C8.35106 12.2592 8.54458 12.3373 8.70075 12.4935C8.85693 12.6496 8.93501 12.8432 8.93501 13.074C8.93501 13.3049 8.85693 13.4984 8.70075 13.6546C8.54458 13.8108 8.35106 13.8888 8.1202 13.8888ZM4.86094 13.8888C4.63007 13.8888 4.43656 13.8108 4.28038 13.6546C4.12421 13.4984 4.04612 13.3049 4.04612 13.074C4.04612 12.8432 4.12421 12.6496 4.28038 12.4935C4.43656 12.3373 4.63007 12.2592 4.86094 12.2592C5.0918 12.2592 5.28532 12.3373 5.44149 12.4935C5.59767 12.6496 5.67575 12.8432 5.67575 13.074C5.67575 13.3049 5.59767 13.4984 5.44149 13.6546C5.28532 13.8108 5.0918 13.8888 4.86094 13.8888ZM11.3795 13.8888C11.1486 13.8888 10.9551 13.8108 10.7989 13.6546C10.6427 13.4984 10.5646 13.3049 10.5646 13.074C10.5646 12.8432 10.6427 12.6496 10.7989 12.4935C10.9551 12.3373 11.1486 12.2592 11.3795 12.2592C11.6103 12.2592 11.8038 12.3373 11.96 12.4935C12.1162 12.6496 12.1943 12.8432 12.1943 13.074C12.1943 13.3049 12.1162 13.4984 11.96 13.6546C11.8038 13.8108 11.6103 13.8888 11.3795 13.8888Z" fill="#ABABAB"/>
</svg>
