<svg width="90" height="90" viewBox="0 0 90 90" fill="none" xmlns="http://www.w3.org/2000/svg">
<path d="M78.5853 59.8179L67.4957 29.2702L67.4881 29.25H67.2692L64.9856 35.5275L60.8282 46.9557L60.8185 46.9466C59.3776 45.6746 57.3448 44.8794 54.7846 44.5833L54.0037 44.5027L54.7784 44.4033C59.0004 43.6442 61.8384 40.9764 61.8384 37.7622C61.8384 33.3546 57.6949 30.2781 51.7597 30.2781H39.4106V30.5012H42.9989V53.2762L34.284 29.2702L34.2764 29.25H34.0575L31.7739 35.5275L22.9659 59.7393L22.9117 59.7456C22.7612 59.7641 22.6123 59.7789 22.465 59.7901C22.2434 59.8074 22.0231 59.8179 21.8022 59.8179H12.9025L29.8196 30.5012L29.9453 30.2808H9.25506V39.3499H9.4746C9.5135 34.9325 12.0848 30.5012 17.7657 30.5012H24.6194L7.57446 60.0375H30.5373V51.3487H30.3177C30.2878 55.1989 28.1063 58.8558 23.3626 59.6816L23.2118 59.7073L26.8245 49.7722H36.9449L40.5916 59.8179H36.9942V60.0375H51.1136V59.8179H47.5009V44.6646H51.6694C55.9115 44.6646 58.3445 46.5609 58.3445 49.8654V52.5533C58.3445 52.8495 58.3647 53.2825 58.3869 53.6447V53.6579L56.1463 59.8165H53.2194V60.0361H59.2783V59.8165H56.3825L58.423 54.2084C58.4272 54.2626 58.4293 54.2953 58.4293 54.2953L58.4855 54.8006L58.5397 55.135C58.8802 57.2029 59.6708 58.7231 60.8887 59.6531L61.0638 59.7803C61.9892 60.424 63.139 60.75 64.4833 60.75C66.2639 60.75 67.4513 60.3058 68.4315 59.2604L68.303 59.1394C67.3998 59.9736 66.6419 60.3114 65.6922 60.3114C64.0741 60.3114 63.2272 58.3477 63.2272 56.4112V52.6451C63.2358 51.7106 63.0896 50.7812 62.7944 49.8946L62.7541 49.7778V49.7736H70.1566L73.8033 59.8193H70.2059V60.0389H82.4245V59.8193L78.5853 59.8179ZM26.9051 49.5526L31.8906 35.8486L36.865 49.5526H26.9051ZM47.503 44.4443V30.5012H50.6849C54.9354 30.5012 57.1794 33.0293 57.1794 37.8095C57.1794 42.8935 55.8914 44.4443 51.6694 44.4443H47.503ZM62.6679 49.5526L62.6464 49.4984C62.3174 48.6968 61.8385 47.9654 61.2354 47.3435L61.0269 47.135L61.0047 47.1142L65.0995 35.8486L70.0739 49.5526H62.6679Z" fill="black"/>
</svg>
